<?xml version="1.0" encoding="utf-8"?>
<!-- Generator: Adobe Illustrator 19.2.1, SVG Export Plug-In . SVG Version: 6.00 Build 0)  -->
<svg version="1.1" id="Layer_1" xmlns="http://www.w3.org/2000/svg" xmlns:xlink="http://www.w3.org/1999/xlink" x="0px" y="0px"
	 viewBox="0 0 286.3 286.3" style="enable-background:new 0 0 286.3 286.3;" xml:space="preserve">
<style type="text/css">
	.st0{fill:#4798CF;}
	.st1{display:none;fill:#0071BC;}
	.st2{fill:#424C5F;}
	.st3{fill:#1A243D;}
	.st4{fill:#F9D642;}
	.st5{fill:#F4C100;}
	.st6{fill:#85CBF3;}
	.st7{fill:#F2E8BE;}
	.st8{fill:#84CDF3;}
	.st9{fill:#87848B;}
	.st10{fill:#E05324;}
	.st11{fill:#CA4419;}
	.st12{fill:#F7CB7D;}
	.st13{fill:#AA472E;}
	.st14{fill:#DD5F40;}
	.st15{fill:#E88C26;}
</style>
<circle class="st0" cx="143.2" cy="143.2" r="143.2"/>
<ellipse class="st1" cx="128.7" cy="156.1" rx="287.1" ry="212.3"/>
<g>
	<rect x="38.1" y="230.7" class="st2" width="42.5" height="14.9"/>
	<rect x="35.3" y="234.3" class="st2" width="48.2" height="12.8"/>
	<rect x="78.5" y="230.7" class="st3" width="42.5" height="16.3"/>
	<rect x="78.5" y="234.3" class="st3" width="46.1" height="12.8"/>
	<path class="st4" d="M11.4,82.7l7.6,45.2c0,0,1.4,9.9,2.7,11.7c1.2,1.8,3,3,6.2,5.1c2.4,1.6,31.5,23,34.2,25.2s8.3,5.7,8.3,5.7
		s-3,9.7-2.7,10.5c1.1,2.4,4.1,22.7,4.1,22.7s-2.1,3.4-3.9,5.3c-3.4,3.5-11.7,9.9-17.4,12.2c-5.7,2.3-13.3,4.5-13.3,4.5l41.9,0.1
		L79.7,74l-42.3,0.2v6c0,0-20.9-0.7-23.4-0.2C11.5,80.5,11.4,82.7,11.4,82.7z M22.1,88.2l15.2,0.1c0,0.5-0.6,27.4,3.4,43.6
		c1.5,5.9,5.2,15.9,5.2,15.9s-13.5-9.9-15.6-11.6c-2.1-1.7-1.8-3.9-1.8-3.9s-7.9-40-8.4-41.6S22.1,88.2,22.1,88.2z"/>
	<path class="st5" d="M143.1,80c-2.5-0.5-23.6,0.2-23.6,0.2v-6L78.8,74l-0.1,156.8l41.2-0.1c0,0-7.6-2.2-13.3-4.5
		c-5.7-2.3-14-8.7-17.4-12.2c-1.8-1.9-3.9-5.3-3.9-5.3s3-20.3,4.1-22.7c0.4-0.8-2.7-10.5-2.7-10.5s5.7-3.5,8.3-5.7
		s31.8-23.6,34.2-25.2c3.2-2.1,5-3.4,6.2-5.1c1.2-1.8,2.7-11.7,2.7-11.7l7.6-45.2C145.8,82.7,145.6,80.5,143.1,80z M137.1,90.8
		c-0.5,1.5-8.4,41.6-8.4,41.6s0.4,2.2-1.8,3.9c-2.1,1.7-15.6,11.6-15.6,11.6s3.7-10.1,5.2-15.9c4-16.2,3.4-43.1,3.4-43.6l15.2-0.1
		C135.2,88.2,137.5,89.3,137.1,90.8z"/>
</g>
<g>
	<path class="st6" d="M223.8,206.7c0.4,5.5,5,9.9,10.6,9.9h39c5.6,0,10.2-4.4,10.6-9.9H223.8z"/>
	<path class="st7" d="M262.7,205.9v-21.3v-112c0-5.9-4.8-10.6-10.6-10.6H160c-5.9,0-10.6,4.8-10.6,10.6v133.2
		c0,5.9,4.8,10.6,10.6,10.6h11.3h80.8h20.5c0.1,0,0.2,0,0.4,0C267.3,216.4,262.7,211.7,262.7,205.9z"/>
	<path class="st8" d="M252.8,62.1c-0.2,0-0.5,0-0.7,0h-102c-5.9,0-10.6,4.8-10.6,10.6h103.5C242.9,67.1,247.3,62.5,252.8,62.1z"/>
	<rect x="172.7" y="89.7" class="st5" width="67.3" height="10.6"/>
	<rect x="161.4" y="108.2" class="st9" width="89.3" height="4.3"/>
	<rect x="161.4" y="123" class="st9" width="89.3" height="4.3"/>
	<rect x="161.4" y="137.9" class="st9" width="89.3" height="4.3"/>
	<rect x="161.4" y="153.5" class="st9" width="89.3" height="4.3"/>
	<polygon class="st10" points="220.9,199.9 210,222.6 219.6,220.9 223.9,229.4 234.3,208.2 	"/>
	<polygon class="st10" points="247.4,199.7 258.7,222.9 248.5,220.7 244.6,229.7 233.5,206.8 233.9,206.3 	"/>
	<circle class="st11" cx="234.2" cy="194.5" r="14.9"/>
	<circle class="st12" cx="234.5" cy="194.5" r="10.3"/>
</g>
<g>
	<polygon class="st13" points="147.2,168.2 196.3,167.6 192.3,185.4 122.7,185.4 115.1,167.8 	"/>
	<polygon class="st14" points="115.1,167.9 152.4,235.2 137.1,243 105.4,184.9 	"/>
	<polygon class="st14" points="196.3,167.7 206.5,185.6 172.5,248.2 160.4,233.1 	"/>
	<circle class="st5" cx="155.7" cy="253.7" r="21.7"/>
	<circle class="st15" cx="156" cy="253.4" r="17.7"/>
	<circle class="st5" cx="156.1" cy="253.3" r="15.7"/>
</g>
</svg>
