<?xml version="1.0" encoding="utf-8"?>
<!-- Generator: Adobe Illustrator 15.1.0, SVG Export Plug-In . SVG Version: 6.00 Build 0)  -->
<!DOCTYPE svg PUBLIC "-//W3C//DTD SVG 1.1//EN" "http://www.w3.org/Graphics/SVG/1.1/DTD/svg11.dtd">
<svg version="1.1" id="Layer_1" xmlns="http://www.w3.org/2000/svg" xmlns:xlink="http://www.w3.org/1999/xlink" x="0px" y="0px"
	 width="151.407px" height="80.213px" viewBox="0 0 151.407 80.213" enable-background="new 0 0 151.407 80.213"
	 xml:space="preserve">
<g>
	<path fill="#12212C" d="M72.697,31.32l-5.8-2.789l-6.25,24.625l7.259,2.308c0,0,33.366,3.942,41.116,5.067
		c1.692,0.246,7.25-29,7.25-29L72.697,31.32z"/>
	<path fill="#172A3A" d="M72.697,31.32l-4.791,24.144c0,0-32.293-10.035-39.761-11.236c-1.998-0.321,4.059-29.472,4.059-29.472
		L72.697,31.32z"/>
	<polygon fill="#1E374D" points="0,1.836 80.665,0 151.407,31.325 73.529,33.159 	"/>
	<polygon fill="#F26317" points="77.683,13.629 130.7,30.283 123.452,61.188 120.343,62.804 125.821,32.383 	"/>
	
		<ellipse transform="matrix(0.9809 0.1946 -0.1946 0.9809 14.5521 -22.4067)" fill="#F26317" cx="121.309" cy="62.855" rx="5.881" ry="3.966"/>
	<path fill="#F26317" d="M119.851,65.285c0,0-4.734,4.184-4.89,7.776c-0.154,3.597,2.765,7.151,2.765,7.151s3.914-1.461,4.818-6.02
		c0.904-4.561-1.619-8.695-1.619-8.695L119.851,65.285z"/>
</g>
</svg>
