<?xml version="1.0" encoding="utf-8"?>
<!-- Generator: Adobe Illustrator 15.1.0, SVG Export Plug-In . SVG Version: 6.00 Build 0)  -->
<!DOCTYPE svg PUBLIC "-//W3C//DTD SVG 1.1//EN" "http://www.w3.org/Graphics/SVG/1.1/DTD/svg11.dtd">
<svg version="1.1" id="Layer_1" xmlns="http://www.w3.org/2000/svg" xmlns:xlink="http://www.w3.org/1999/xlink" x="0px" y="0px"
	 width="2058.479px" height="360.635px" viewBox="0 0 2058.479 360.635" enable-background="new 0 0 2058.479 360.635"
	 xml:space="preserve">
<path fill="#00BAA2" d="M2022.722,360.635c21.892-18.842,35.757-46.752,35.757-77.902c0-56.744-46.001-102.744-102.744-102.744
	c-13.34,0-26.085,2.543-37.779,7.169c0.346-3.428,0.523-6.906,0.523-10.425c0-56.744-46.001-102.744-102.744-102.744
	c-34.264,0-64.605,16.776-83.272,42.558c-11.952-4.869-25.025-7.558-38.728-7.558c-18.765,0-36.352,5.034-51.491,13.819
	C1618.715,53.148,1552.83,2.996,1475.23,2.996c-97.336,0-176.241,78.905-176.241,176.239c0,10.414,0.91,20.615,2.643,30.533
	c-20.446-12.803-43.704-21.525-68.64-25.032c0.318-3.292,0.486-6.628,0.486-10.004c0-56.744-46.001-102.744-102.744-102.744
	c-9.724,0-19.131,1.352-28.046,3.875c-41.607-32.792-94.123-52.362-151.211-52.362c-102.483,0-190.222,63.063-226.57,152.492
	c-19.039-6.479-39.447-9.997-60.677-9.997c-24.195,0-47.322,4.569-68.57,12.885c-2.135-11.355-5.142-22.401-8.952-33.067
	c14.832-12.381,24.275-31.003,24.275-51.834c0-37.277-30.22-67.496-67.496-67.496c-14.515,0-27.947,4.597-38.955,12.392
	C469.082,14.368,426.086,0,379.728,0C262.9,0,167.383,91.178,160.413,206.252c-8.003-1.47-16.25-2.245-24.678-2.245
	C60.771,204.008,0,264.779,0,339.742c0,7.105,0.548,14.082,1.601,20.893H2022.722z"/>
</svg>
