<?xml version="1.0" encoding="utf-8"?>
<!-- Generator: Adobe Illustrator 15.1.0, SVG Export Plug-In . SVG Version: 6.00 Build 0)  -->
<!DOCTYPE svg PUBLIC "-//W3C//DTD SVG 1.1//EN" "http://www.w3.org/Graphics/SVG/1.1/DTD/svg11.dtd">
<svg version="1.1" id="Layer_1" xmlns="http://www.w3.org/2000/svg" xmlns:xlink="http://www.w3.org/1999/xlink" x="0px" y="0px"
	 width="2061.482px" height="486.635px" viewBox="0 0 2061.482 486.635" enable-background="new 0 0 2061.482 486.635"
	 xml:space="preserve">
<radialGradient id="SVGID_1_" cx="1030.7412" cy="243.3174" r="748.876" gradientUnits="userSpaceOnUse">
	<stop  offset="0" style="stop-color:#95E0FF"/>
	<stop  offset="1" style="stop-color:#95E0FF"/>
</radialGradient>
<path fill="url(#SVGID_1_)" d="M8.57,486.635h1979.144c44.661-31.972,73.769-84.285,73.769-143.399
	c0-81.319-55.081-149.762-129.966-170.087C1910.146,74.172,1822.113,0,1716.743,0c-46.358,0-89.354,14.368-124.803,38.876
	c-11.008-7.795-24.44-12.392-38.955-12.392c-37.276,0-67.496,30.219-67.496,67.496c0,20.832,9.442,39.453,24.275,51.835
	c-3.811,10.666-6.817,21.712-8.952,33.066c-21.249-8.315-44.375-12.885-68.57-12.885c-21.23,0-41.639,3.518-60.678,9.997
	c-36.348-89.429-124.088-152.492-226.57-152.492c-57.088,0-109.604,19.569-151.211,52.362c-8.915-2.524-18.322-3.875-28.045-3.875
	c-56.743,0-102.744,46-102.744,102.744c0,3.375,0.168,6.711,0.486,10.004c-24.936,3.507-48.193,12.229-68.639,25.032
	c1.732-9.918,2.643-20.119,2.643-30.533c0-97.334-78.905-176.239-176.241-176.239c-77.6,0-143.484,50.152-167.013,119.811
	c-15.14-8.785-32.727-13.819-51.491-13.819c-13.702,0-26.775,2.689-38.728,7.558c-18.667-25.782-49.008-42.558-83.272-42.558
	c-56.743,0-102.744,46-102.744,102.744c0,3.738,0.205,7.428,0.594,11.063c-13.3-6.287-28.163-9.808-43.85-9.808
	c-56.743,0-102.744,46-102.744,102.744c0,14.091,2.839,27.519,7.973,39.745C14.994,350.892,0,389.812,0,432.235
	C0,451.221,3.014,469.5,8.57,486.635z"/>
</svg>
