<?xml version="1.0" encoding="utf-8"?>
<!-- Generator: Adobe Illustrator 15.1.0, SVG Export Plug-In . SVG Version: 6.00 Build 0)  -->
<!DOCTYPE svg PUBLIC "-//W3C//DTD SVG 1.1//EN" "http://www.w3.org/Graphics/SVG/1.1/DTD/svg11.dtd">
<svg version="1.1" id="Layer_1" xmlns="http://www.w3.org/2000/svg" xmlns:xlink="http://www.w3.org/1999/xlink" x="0px" y="0px"
	 width="14px" height="16px" viewBox="0 0 14 16" enable-background="new 0 0 14 16" xml:space="preserve">
<polygon fill="#4698ce" points="4.334,-38.35 6.934,-33.082 12.746,-32.238 8.539,-28.139 9.531,-22.35 4.334,-25.082
	-0.865,-22.35 0.128,-28.139 -4.078,-32.238 1.734,-33.082 "/>
<g>
	<polygon fill="#4698ce" points="10,0.191 10,4 13.272,4 	"/>
	<path fill="#4698ce" d="M8.893,5C8.262,5,8,5.201,8,4.571V0H0.321C0.005,0,0,0.255,0,0.571v14.857C0,15.745,0.005,16,0.321,16
		h12.571C13.208,16,14,15.745,14,15.429V5H8.893z"/>
</g>
<g>
	<path fill="#4698ce" d="M19.827-68.304c0.366-1.136,0.19-2.337,0.19-3.593C20.018-77.658,16-82.527,10-83.542V-86h1v-4H7v4h1v2.486
		c-4,0.563-6.203,2.231-7.92,4.479c-0.475-0.431-1.504-0.702-2.195-0.702c-1.469,0-2.861,1.188-2.861,2.66
		c0,1.346,0.904,2.449,2.203,2.622c-0.184,0.824-0.34,1.68-0.34,2.558c0,6.5,5.262,11.789,11.759,11.789
		c1.189,0,2.323-0.183,3.405-0.511l-0.219-4.633c-0.972,0.468-2.059,0.74-3.21,0.74c-4.069,0-7.382-3.315-7.382-7.386
		c0-4.071,3.31-7.384,7.381-7.384c4.073,0,7.383,3.313,7.383,7.384c0,0.634-0.087,1.244-0.239,1.831l-2.42-1.051l0.917,11.009
		l8.806-6.791L19.827-68.304z"/>
	<path fill="#4698ce" d="M13.329-76.401c-0.232-0.191-0.579-0.163-0.774,0.072l-3.443,4.148c-0.057-0.008-0.108-0.038-0.168-0.038
		c-0.107,0-0.2,0.041-0.298,0.063l-1.894-1.789c-0.222-0.211-0.568-0.202-0.78,0.021c-0.205,0.219-0.197,0.567,0.024,0.779
		l1.724,1.631c-0.14,0.228-0.244,0.478-0.244,0.767c0,0.808,0.656,1.468,1.468,1.468c0.81,0,1.468-0.66,1.468-1.468
		c0-0.341-0.135-0.636-0.326-0.883l3.314-3.999C13.595-75.858,13.564-76.205,13.329-76.401z"/>
</g>
</svg>
