<?xml version="1.0" encoding="utf-8"?>
<!-- Generator: Adobe Illustrator 15.1.0, SVG Export Plug-In . SVG Version: 6.00 Build 0)  -->
<!DOCTYPE svg PUBLIC "-//W3C//DTD SVG 1.1//EN" "http://www.w3.org/Graphics/SVG/1.1/DTD/svg11.dtd">
<svg version="1.1" id="Layer_1" xmlns="http://www.w3.org/2000/svg" xmlns:xlink="http://www.w3.org/1999/xlink" x="0px" y="0px"
	 width="16.824px" height="16px" viewBox="0 0 16.824 16" enable-background="new 0 0 16.824 16" xml:space="preserve">
<polygon fill="#fbb932" points="8.412,0 11.012,5.268 16.824,6.111 12.617,10.211 13.609,16 8.412,13.268 3.213,16 4.206,10.211
	0,6.111 5.813,5.268 "/>
<g>
	<polygon fill="#fbb932" points="14.078,38.541 14.078,42.35 17.351,42.35 	"/>
	<path fill="#fbb932" d="M12.971,43.35c-0.631,0-0.893,0.201-0.893-0.429V38.35H4.399c-0.316,0-0.321,0.255-0.321,0.571v14.857
		c0,0.316,0.005,0.571,0.321,0.571h12.571c0.315,0,1.107-0.255,1.107-0.571V43.35H12.971z"/>
</g>
<g>
	<path fill="#fbb932" d="M23.905-29.954c0.366-1.136,0.19-2.337,0.19-3.593c0-5.762-4.018-10.631-10.018-11.646v-2.458h1v-4h-4v4h1
		v2.486c-4,0.563-6.203,2.231-7.92,4.479c-0.475-0.431-1.504-0.702-2.195-0.702c-1.469,0-2.861,1.188-2.861,2.66
		c0,1.346,0.904,2.449,2.203,2.622c-0.184,0.824-0.34,1.68-0.34,2.558c0,6.5,5.262,11.789,11.759,11.789
		c1.189,0,2.323-0.183,3.405-0.511l-0.219-4.633c-0.972,0.468-2.059,0.74-3.21,0.74c-4.069,0-7.382-3.315-7.382-7.386
		c0-4.071,3.31-7.384,7.381-7.384c4.073,0,7.383,3.313,7.383,7.384c0,0.634-0.087,1.244-0.239,1.831l-2.42-1.051l0.917,11.009
		l8.806-6.791L23.905-29.954z"/>
	<path fill="#fbb932" d="M17.407-38.052c-0.232-0.191-0.579-0.163-0.774,0.072l-3.443,4.148c-0.057-0.008-0.108-0.038-0.168-0.038
		c-0.107,0-0.2,0.041-0.298,0.063l-1.894-1.789c-0.222-0.211-0.568-0.202-0.78,0.021c-0.205,0.219-0.197,0.567,0.024,0.779
		l1.724,1.631c-0.14,0.228-0.244,0.478-0.244,0.767c0,0.808,0.656,1.468,1.468,1.468c0.81,0,1.468-0.66,1.468-1.468
		c0-0.341-0.135-0.636-0.326-0.883l3.314-3.999C17.673-37.509,17.643-37.855,17.407-38.052z"/>
</g>
</svg>
