<?xml version="1.0" encoding="utf-8"?>
<!-- Generator: Adobe Illustrator 15.1.0, SVG Export Plug-In . SVG Version: 6.00 Build 0)  -->
<!DOCTYPE svg PUBLIC "-//W3C//DTD SVG 1.1//EN" "http://www.w3.org/Graphics/SVG/1.1/DTD/svg11.dtd">
<svg version="1.1" id="Layer_1" xmlns="http://www.w3.org/2000/svg" xmlns:xlink="http://www.w3.org/1999/xlink" x="0px" y="0px"
	 width="50.813px" height="40.107px" viewBox="0 0 50.813 40.107" enable-background="new 0 0 50.813 40.107" xml:space="preserve">
<path fill="#666666" d="M48.152,5.342l2.51,29.782c0,0-5.809-2.703-11.57-1.18s-15.904,4.888-19.185,5.617
	c-3.28,0.73-8.504,0.688-10.671,0.104C7.073,39.08,7.073,39.08,7.073,39.08L4.185,10.059c0,0,4.009,1.556,10.735,0.514
	c6.726-1.041,14.159-5.639,21.232-6.045C43.227,4.117,44.209,4.404,48.152,5.342z"/>
<path fill="#D62612" d="M43.766,1.476l4.924,28.593c0,0-6.02-2.191-11.629-0.177c-5.607,2.016-15.423,6.243-18.627,7.253
	c-3.205,1.012-8.413,1.422-10.623,1.025c-2.205-0.396-2.205-0.396-2.205-0.396L1.634,16.241c0,0,2.818-5.432,9.428-7.051
	c6.611-1.619,13.613-6.817,20.625-7.833C38.699,0.337,39.756,0.882,43.766,1.476z"/>
<path fill="#FFFFFF" d="M13.492,20.297l24.055-6.227l8.58,1.114l-2.51-14.571c-4.01-0.594-5.014-0.795-12.025,0.225
	C24.58,1.854,17.571,7.076,10.96,8.695C4.35,10.314,0.135,8.114,0.135,8.114l2.341,12.69L13.492,20.297z"/>
<path fill="#00966E" d="M45.063,8.648c0,0-5.344-1.656-11.719,0.031S23.25,12.461,23.25,12.461s-8.003,3.178-9.313,3.563
	c-7.875,2.313-12.672-0.087-12.332,0.254c0.07,0.07,1.824,9.998,1.824,9.998s4.82,1.748,11.883-0.127s15.515-6.291,20.438-7.5
	c3.563-0.875,6.738-0.603,7.813-0.5c1.627,0.156,3.226,0.879,3.226,0.879L45.063,8.648z"/>
</svg>
