<?xml version="1.0" encoding="utf-8"?>
<!-- Generator: Adobe Illustrator 15.1.0, SVG Export Plug-In . SVG Version: 6.00 Build 0)  -->
<!DOCTYPE svg PUBLIC "-//W3C//DTD SVG 1.1//EN" "http://www.w3.org/Graphics/SVG/1.1/DTD/svg11.dtd">
<svg version="1.1" id="Layer_1" xmlns="http://www.w3.org/2000/svg" xmlns:xlink="http://www.w3.org/1999/xlink" x="0px" y="0px"
	 width="49.619px" height="40.107px" viewBox="0 0 49.619 40.107" enable-background="new 0 0 49.619 40.107" xml:space="preserve">
<path fill="#666666" d="M47.11,5.342l2.509,29.782c0,0-5.808-2.703-11.567-1.18c-5.763,1.522-15.907,4.888-19.187,5.617
	c-3.28,0.729-8.505,0.688-10.671,0.104C6.031,39.08,6.031,39.08,6.031,39.08L3.143,9.059c0,0,4.009,2.555,10.734,1.513
	c6.727-1.042,14.159-5.639,21.231-6.045C42.183,4.117,43.167,4.404,47.11,5.342z"/>
<path fill="#00B084" d="M43.758,1.104l4.979,28.76c0,0-6.037-2.141-11.629-0.079c-5.592,2.063-15.371,6.373-18.566,7.411
	c-3.195,1.037-8.401,1.491-10.613,1.113C5.72,37.932,5.72,37.932,5.72,37.932L0.497,9.178c0,0,4.215,2.796,10.813,1.122
	c6.597-1.674,13.185-7.36,20.188-8.434C38.499,0.786,39.742,0.544,43.758,1.104z"/>
<path fill="#ED3424" d="M4.305,9.405l4.583,22.16c0,0,6.75-0.333,11.417-2.5c4.353-2.021,9.667-4.583,14.333-5.667
	c7.732-1.795,13.065,0.746,13.065,0.746L43.638,0.398c0,0-4.812-0.883-11.496,0.267c-7.169,1.233-13.422,4.938-15.669,5.983
	C8.222,10.482,4.972,9.079,4.305,9.405z"/>
<path fill="#FFFFFF" d="M4.378,9.379l6.303,29.049c0,0-1.512,0.086-2.546-0.089c-1.034-0.172-2.415-0.407-2.415-0.407L0,8.32
	l1.687,0.596C3.472,9.398,4.378,9.379,4.378,9.379z"/>
<g>
	<g>
		<g>
			<polygon fill="#ED3424" points="1.855,14.289 1.928,14.655 2.05,14.63 2.132,15.046 2.273,15.018 2.357,15.442 2.216,15.47 
				2.298,15.886 2.176,15.91 2.249,16.275 2.056,16.313 1.983,15.948 1.861,15.972 1.779,15.557 1.627,15.586 1.544,15.162 
				1.695,15.132 1.614,14.717 1.735,14.693 1.663,14.328 			"/>
			<polygon fill="#ED3424" points="5.669,33.561 5.597,33.193 5.719,33.17 5.636,32.753 5.778,32.725 5.694,32.302 5.553,32.331 
				5.47,31.915 5.348,31.939 5.276,31.573 5.083,31.611 5.155,31.978 5.034,32.002 5.116,32.417 4.964,32.447 5.048,32.869 
				5.199,32.84 5.281,33.256 5.404,33.231 5.476,33.598 			"/>
			<polygon fill="#ED3424" points="2.984,12.452 3.094,13.006 3.285,12.969 3.401,13.562 3.62,13.519 3.706,13.954 3.95,13.906 
				4.06,14.459 4.239,14.423 4.13,13.87 4.375,13.822 4.288,13.385 4.506,13.344 4.39,12.749 4.579,12.712 4.468,12.158 
				4.662,12.12 4.514,11.367 4.32,11.406 4.195,10.773 4.004,10.811 3.854,10.049 3.637,10.092 3.542,9.622 2.875,9.754 
				2.968,10.224 2.75,10.268 2.9,11.03 2.71,11.067 2.836,11.699 2.611,11.744 2.485,11.112 2.296,11.15 2.145,10.387 1.927,10.43 
				1.571,9.052 0.902,9.184 1.259,10.562 1.04,10.606 1.19,11.368 1.001,11.405 1.126,12.038 0.934,12.076 1.082,12.829 
				1.275,12.791 1.386,13.344 1.575,13.307 1.692,13.9 1.91,13.857 1.997,14.292 2.241,14.244 2.35,14.798 2.529,14.762 
				2.42,14.208 2.665,14.159 2.579,13.725 2.797,13.681 2.68,13.088 2.87,13.05 2.759,12.497 			"/>
			<polygon fill="#ED3424" points="4.503,13.765 4.576,14.131 4.453,14.155 4.535,14.57 4.394,14.599 4.479,15.022 4.619,14.994 
				4.702,15.41 4.823,15.385 4.896,15.751 5.089,15.713 5.017,15.348 5.138,15.324 5.056,14.908 5.207,14.878 5.124,14.454 
				4.973,14.484 4.891,14.068 4.768,14.094 4.696,13.727 			"/>
			<polygon fill="#ED3424" points="3.482,15.22 3.564,15.635 3.687,15.611 3.759,15.977 3.951,15.938 3.879,15.573 4.001,15.548 
				3.918,15.133 4.06,15.105 3.977,14.682 3.835,14.709 3.753,14.294 3.631,14.318 3.559,13.952 3.366,13.991 3.438,14.356 
				3.315,14.38 3.397,14.796 3.27,14.821 3.188,14.405 3.065,14.43 2.993,14.064 2.801,14.102 2.873,14.469 2.75,14.492 
				2.833,14.907 2.692,14.936 2.775,15.359 2.917,15.331 2.999,15.746 3.121,15.723 3.194,16.088 3.386,16.05 3.313,15.685 
				3.436,15.66 3.354,15.245 			"/>
			<polygon fill="#ED3424" points="7.413,34.829 7.303,34.275 7.493,34.237 7.375,33.645 7.594,33.6 7.508,33.165 7.752,33.116 
				7.643,32.563 7.822,32.527 7.931,33.08 8.176,33.031 8.263,33.469 8.48,33.427 8.598,34.019 8.787,33.98 8.897,34.535 
				9.09,34.496 9.239,35.248 9.046,35.286 9.171,35.92 8.981,35.957 9.132,36.719 8.914,36.762 9.06,37.977 8.391,37.854 
				8.246,36.894 8.027,36.938 7.876,36.177 7.687,36.213 7.562,35.58 7.336,35.625 7.462,36.258 7.272,36.295 7.423,37.057 
				7.205,37.1 7.331,37.758 6.631,37.707 6.537,37.232 6.317,37.275 6.167,36.514 5.977,36.552 5.852,35.919 5.659,35.957 
				5.51,35.205 5.703,35.168 5.594,34.613 5.783,34.576 5.667,33.982 5.885,33.938 5.798,33.503 6.042,33.454 5.933,32.9 
				6.113,32.865 6.223,33.418 6.467,33.369 6.553,33.807 6.771,33.764 6.888,34.357 7.078,34.319 7.188,34.873 			"/>
			<polygon fill="#ED3424" points="8.317,33.036 8.244,32.67 8.122,32.694 8.041,32.277 7.899,32.307 7.814,31.883 7.956,31.854 
				7.874,31.439 7.996,31.416 7.924,31.05 8.117,31.011 8.188,31.377 8.311,31.354 8.393,31.769 8.544,31.737 8.628,32.161 
				8.477,32.191 8.559,32.607 8.437,32.632 8.509,32.998 			"/>
			<polygon fill="#ED3424" points="6.903,32.502 6.985,32.919 7.106,32.895 7.179,33.261 7.372,33.223 7.299,32.857 7.422,32.832 
				7.34,32.416 7.48,32.389 7.397,31.966 7.256,31.993 7.173,31.578 7.051,31.602 6.979,31.236 6.786,31.274 6.858,31.641 
				6.736,31.664 6.818,32.079 6.69,32.104 6.608,31.689 6.485,31.714 6.413,31.349 6.221,31.387 6.293,31.752 6.17,31.776 
				6.253,32.191 6.112,32.22 6.196,32.643 6.337,32.615 6.419,33.03 6.542,33.008 6.614,33.373 6.806,33.334 6.734,32.969 
				6.856,32.944 6.774,32.528 			"/>
			<polygon fill="#ED3424" points="6.381,29.43 6.519,30.123 6.73,30.08 6.854,30.713 7.087,30.667 7.206,31.271 7.354,31.242 
				7.426,31.608 7.645,31.564 7.573,31.199 7.721,31.17 7.609,30.605 7.91,30.545 7.778,29.874 8.016,29.826 7.903,29.257 
				8.048,29.229 7.882,28.393 7.738,28.421 7.622,27.838 7.417,27.878 7.255,27.067 7.063,27.105 6.947,26.522 6.729,26.564 
				6.845,27.148 6.626,27.192 6.787,28.003 6.645,28.031 6.76,28.614 6.966,28.573 7.132,29.409 6.875,29.461 6.767,28.912 
				6.586,28.947 6.388,27.949 6.156,27.994 6.008,27.242 6.226,27.199 6.113,26.625 6.318,26.585 6.181,25.891 6.4,25.85 
				6.255,25.117 6.448,25.079 6.315,24.406 6.527,24.363 6.656,25.018 6.823,24.984 6.929,25.518 7.083,25.488 7.221,26.18 
				7.33,26.159 7.435,26.691 7.541,26.67 7.142,24.652 6.984,24.685 6.852,24.012 6.666,24.049 6.577,23.604 6.404,23.638 
				6.313,23.184 6.487,23.148 6.399,22.703 6.585,22.666 6.452,21.993 6.61,21.961 6.211,19.945 6.104,19.966 6.21,20.501 
				6.101,20.521 6.237,21.214 6.083,21.244 6.189,21.779 6.022,21.813 6.152,22.465 5.938,22.506 5.806,21.834 5.613,21.872 
				5.469,21.14 5.25,21.184 5.113,20.491 4.907,20.531 4.793,19.958 4.576,20.001 4.427,19.249 4.657,19.204 4.46,18.204 
				4.64,18.168 4.532,17.62 4.789,17.569 4.954,18.405 4.749,18.446 4.863,19.029 5.005,19.001 5.166,19.812 5.384,19.769 
				5.5,20.353 5.717,20.309 5.603,19.725 5.795,19.687 5.635,18.877 5.841,18.836 5.725,18.252 5.87,18.223 5.705,17.388 
				5.56,17.417 5.447,16.848 5.209,16.895 5.076,16.222 4.774,16.281 4.663,15.717 4.515,15.748 4.442,15.381 4.224,15.424 
				4.296,15.79 4.148,15.819 4.268,16.422 4.036,16.469 4.162,17.103 3.949,17.145 4.087,17.836 3.792,17.895 3.654,17.203 
				3.441,17.245 3.316,16.61 3.085,16.656 2.966,16.053 2.818,16.082 2.746,15.717 2.528,15.761 2.6,16.126 2.452,16.155 
				2.563,16.719 2.261,16.779 2.395,17.452 2.156,17.499 2.269,18.068 2.125,18.096 2.29,18.933 2.435,18.903 2.549,19.487 
				2.756,19.446 2.916,20.256 3.109,20.219 3.225,20.802 3.443,20.759 3.328,20.177 3.547,20.132 3.386,19.321 3.527,19.294 
				3.412,18.71 3.207,18.751 3.04,17.916 3.298,17.864 3.406,18.414 3.586,18.377 3.783,19.376 4.015,19.331 4.164,20.082 
				3.946,20.125 4.059,20.7 3.854,20.74 3.99,21.434 3.772,21.476 3.916,22.208 3.725,22.246 3.857,22.918 3.645,22.961 
				3.516,22.309 3.349,22.341 3.243,21.807 3.089,21.837 2.952,21.146 2.843,21.166 2.737,20.633 2.63,20.653 3.03,22.67 
				3.188,22.639 3.321,23.313 3.507,23.275 3.595,23.721 3.769,23.688 3.859,24.143 3.685,24.177 3.774,24.621 3.587,24.658 
				3.721,25.33 3.562,25.361 3.961,27.38 4.068,27.358 3.962,26.825 4.071,26.804 3.935,26.111 4.089,26.08 3.983,25.546 
				4.15,25.514 4.021,24.859 4.233,24.817 4.367,25.49 4.559,25.453 4.704,26.185 4.922,26.141 5.06,26.834 5.265,26.794 
				5.378,27.367 5.597,27.322 5.746,28.076 5.514,28.121 5.712,29.121 5.532,29.156 5.64,29.705 5.384,29.756 5.219,28.92 
				5.425,28.879 5.309,28.295 5.168,28.323 5.007,27.512 4.789,27.557 4.672,26.973 4.455,27.016 4.569,27.599 4.377,27.637 
				4.538,28.447 4.332,28.488 4.447,29.072 4.302,29.101 4.468,29.938 4.612,29.908 4.725,30.477 4.963,30.43 5.096,31.104 
				5.398,31.043 5.51,31.607 5.658,31.578 5.73,31.943 5.949,31.9 5.875,31.535 6.024,31.506 5.904,30.9 6.136,30.855 6.011,30.223 
				6.223,30.182 6.085,29.488 			"/>
			<polygon fill="#FFFFFF" points="5.875,26.877 5.758,26.285 5.926,26.251 5.808,25.658 5.981,25.624 5.84,24.91 6.059,24.867 
				5.922,24.177 6.14,24.132 6.056,23.707 6.21,23.677 6.121,23.221 5.966,23.251 5.882,22.826 5.663,22.87 5.527,22.177 
				5.308,22.22 5.167,21.509 4.993,21.542 4.876,20.948 4.708,20.982 4.592,20.389 4.296,20.447 4.414,21.04 4.246,21.073 
				4.363,21.667 4.19,21.701 4.332,22.412 4.114,22.456 4.25,23.15 4.031,23.192 4.115,23.617 3.961,23.648 4.052,24.104 
				4.206,24.073 4.29,24.498 4.509,24.455 4.646,25.147 4.864,25.104 5.005,25.816 5.179,25.783 5.296,26.375 5.463,26.344 
				5.58,26.937 			"/>
			<polygon fill="#ED3424" points="5.299,24.195 5.361,24.512 5.528,24.479 5.6,24.836 5.753,24.805 5.62,24.132 5.466,24.162 
				5.399,23.827 5.258,23.855 5.171,23.42 5.313,23.391 5.246,23.056 5.4,23.025 5.268,22.352 5.113,22.383 5.184,22.738 
				5.017,22.771 5.08,23.088 4.874,23.129 4.811,22.813 4.645,22.845 4.573,22.489 4.419,22.52 4.552,23.192 4.707,23.162 
				4.773,23.498 4.915,23.471 5,23.906 4.859,23.934 4.926,24.27 4.772,24.3 4.904,24.974 5.06,24.941 4.988,24.586 5.155,24.553 
				5.093,24.236 			"/>
		</g>
		<g>
			<polygon fill="#FFFFFF" points="2.321,13.673 2.221,13.168 2.402,13.132 2.284,12.54 2.476,12.501 2.347,11.848 2.154,11.886 
				2.037,11.293 1.857,11.328 1.757,10.824 1.564,10.861 1.665,11.367 1.485,11.402 1.602,11.995 1.409,12.034 1.538,12.688 
				1.731,12.649 1.849,13.242 2.029,13.206 2.128,13.711 			"/>
			<polygon fill="#FFFFFF" points="6.334,33.952 6.434,34.456 6.614,34.42 6.732,35.015 6.925,34.977 7.054,35.629 6.862,35.668 
				6.978,36.261 6.798,36.296 6.898,36.802 6.706,36.839 6.606,36.334 6.425,36.369 6.309,35.777 6.115,35.815 5.986,35.162 
				6.18,35.124 6.061,34.529 6.241,34.494 6.142,33.99 			"/>
			<polygon fill="#FFFFFF" points="3.838,13.373 3.738,12.869 3.559,12.904 3.44,12.311 3.248,12.349 3.119,11.695 3.312,11.658 
				3.194,11.064 3.373,11.029 3.274,10.524 3.466,10.485 3.566,10.99 3.747,10.955 3.864,11.548 4.057,11.51 4.185,12.163 
				3.993,12.201 4.111,12.794 3.931,12.83 4.03,13.334 			"/>
			<polygon fill="#FFFFFF" points="7.851,33.652 7.95,34.156 7.771,34.191 7.889,34.786 7.696,34.824 7.826,35.477 8.018,35.439 
				8.135,36.031 8.315,35.996 8.415,36.502 8.607,36.463 8.507,35.957 8.688,35.922 8.571,35.33 8.763,35.291 8.634,34.638 
				8.441,34.677 8.323,34.082 8.143,34.118 8.044,33.613 			"/>
		</g>
		<g>
			
				<rect x="0.491" y="10.892" transform="matrix(-0.194 -0.981 0.981 -0.194 -9.8118 13.8901)" fill="#ED3424" width="0.619" height="0.167"/>
			
				<rect x="2.778" y="13.479" transform="matrix(-0.1937 -0.9811 0.9811 -0.1937 -9.6124 19.2037)" fill="#ED3424" width="0.615" height="0.145"/>
			<polygon fill="#ED3424" points="2.556,10.506 2.312,9.416 2.169,9.443 2.415,10.534 			"/>
			
				<rect x="4.415" y="21.912" transform="matrix(-0.1956 -0.9807 0.9807 -0.1956 -15.8757 30.9468)" fill="#ED3424" width="0.679" height="0.145"/>
			
				<rect x="1.071" y="13.815" transform="matrix(-0.1952 -0.9808 0.9808 -0.1952 -11.9832 17.9641)" fill="#ED3424" width="0.615" height="0.167"/>
			
				<rect x="1.662" y="16.78" transform="matrix(-0.1946 -0.9809 0.9809 -0.1946 -14.1929 22.0729)" fill="#ED3424" width="0.607" height="0.167"/>
			
				<rect x="2.288" y="19.909" transform="matrix(-0.1926 -0.9813 0.9813 -0.1926 -16.5366 26.3808)" fill="#ED3424" width="0.593" height="0.168"/>
			
				<rect x="5.67" y="36.96" transform="matrix(0.1937 0.9811 -0.9811 0.1937 41.1483 24.0207)" fill="#ED3424" width="0.582" height="0.167"/>
			
				<rect x="6.183" y="35.326" transform="matrix(0.1936 0.9811 -0.9811 0.1936 39.9874 22.1434)" fill="#ED3424" width="0.681" height="0.143"/>
			
				<rect x="6.773" y="33.704" transform="matrix(0.1946 0.9809 -0.9809 0.1946 38.8392 20.2492)" fill="#ED3424" width="0.632" height="0.145"/>
			<polygon fill="#ED3424" points="7.758,36.791 7.909,37.695 7.753,37.695 7.616,36.818 			"/>
			
				<rect x="5.078" y="25.267" transform="matrix(0.1946 0.9809 -0.9809 0.1946 29.2188 15.0942)" fill="#ED3424" width="0.68" height="0.145"/>
			
				<rect x="5.061" y="34.019" transform="matrix(0.1957 0.9807 -0.9807 0.1957 37.7675 22.157)" fill="#ED3424" width="0.631" height="0.167"/>
			
				<rect x="4.451" y="31.05" transform="matrix(0.1946 0.9809 -0.9809 0.1946 34.3967 20.3761)" fill="#ED3424" width="0.68" height="0.167"/>
			
				<rect x="3.859" y="27.965" transform="matrix(0.1947 0.9809 -0.9809 0.1947 30.8779 18.4885)" fill="#ED3424" width="0.642" height="0.167"/>
			
				<rect x="3.051" y="23.919" transform="matrix(-0.1947 -0.9809 0.9809 -0.1947 -19.5085 31.9883)" fill="#ED3424" width="0.652" height="0.167"/>
			
				<rect x="4.164" y="23.71" transform="matrix(-0.1954 -0.9807 0.9807 -0.1954 -17.9563 32.8323)" fill="#ED3424" width="0.652" height="0.144"/>
			
				<rect x="3.907" y="10.217" transform="matrix(-0.1935 -0.9811 0.9811 -0.1935 -5.073 16.43)" fill="#ED3424" width="0.618" height="0.167"/>
			
				<rect x="3.31" y="11.856" transform="matrix(-0.1939 -0.981 0.981 -0.1939 -7.3437 17.8218)" fill="#ED3424" width="0.68" height="0.144"/>
			
				<rect x="4.486" y="13.139" transform="matrix(-0.196 -0.9806 0.9806 -0.196 -7.2322 20.5139)" fill="#ED3424" width="0.615" height="0.167"/>
			
				<rect x="5.077" y="16.104" transform="matrix(-0.1919 -0.9814 0.9814 -0.1919 -9.4723 24.5754)" fill="#ED3424" width="0.608" height="0.167"/>
			
				<rect x="5.704" y="19.236" transform="matrix(-0.1955 -0.9807 0.9807 -0.1955 -11.7725 28.9817)" fill="#ED3424" width="0.594" height="0.167"/>
			
				<rect x="9.084" y="36.283" transform="matrix(0.1926 0.9813 -0.9813 0.1926 43.2556 20.1635)" fill="#ED3424" width="0.583" height="0.167"/>
			
				<rect x="7.888" y="34.988" transform="matrix(0.1946 0.9809 -0.9809 0.1946 41.0163 20.1668)" fill="#ED3424" width="0.68" height="0.144"/>
			
				<rect x="8.474" y="33.344" transform="matrix(0.1948 0.9808 -0.9808 0.1948 39.8663 18.2933)" fill="#ED3424" width="0.634" height="0.168"/>
			
				<rect x="7.865" y="30.376" transform="matrix(0.1927 0.9813 -0.9813 0.1927 36.5142 16.5385)" fill="#ED3424" width="0.682" height="0.167"/>
			
				<rect x="7.274" y="27.291" transform="matrix(0.1939 0.981 -0.981 0.1939 32.977 14.6156)" fill="#ED3424" width="0.642" height="0.167"/>
			
				<rect x="6.467" y="23.243" transform="matrix(-0.1947 -0.9809 0.9809 -0.1947 -14.7646 34.5316)" fill="#ED3424" width="0.652" height="0.167"/>
			
				<rect x="5.359" y="23.473" transform="matrix(-0.1954 -0.9807 0.9807 -0.1954 -16.2959 33.7219)" fill="#ED3424" width="0.652" height="0.145"/>
			
				<rect x="3.361" y="16.412" transform="matrix(0.1938 0.981 -0.981 0.1938 19.1269 9.6944)" fill="#ED3424" width="0.607" height="0.145"/>
			
				<rect x="6.168" y="30.771" transform="matrix(-0.1939 -0.981 0.981 -0.1939 -22.4877 43.2071)" fill="#ED3424" width="0.68" height="0.144"/>
		</g>
		<g>
			
				<rect x="1.759" y="15.247" transform="matrix(-0.1954 -0.9807 0.9807 -0.1954 -12.669 20.2082)" fill="#FFFFFF" width="0.392" height="0.108"/>
			
				<rect x="2.897" y="15.023" transform="matrix(-0.1942 -0.981 0.981 -0.1942 -11.0951 21.0389)" fill="#FFFFFF" width="0.392" height="0.107"/>
			
				<rect x="5.18" y="32.532" transform="matrix(0.1954 0.9807 -0.9807 0.1954 36.2831 20.9462)" fill="#FFFFFF" width="0.392" height="0.108"/>
			
				<rect x="6.317" y="32.307" transform="matrix(0.1954 0.9807 -0.9807 0.1954 36.9773 19.6498)" fill="#FFFFFF" width="0.392" height="0.108"/>
			
				<rect x="4.601" y="14.687" transform="matrix(-0.1925 -0.9813 0.9813 -0.1925 -8.7432 22.2855)" fill="#FFFFFF" width="0.393" height="0.107"/>
			
				<rect x="3.463" y="14.911" transform="matrix(-0.1954 -0.9807 0.9807 -0.1954 -10.3015 21.4767)" fill="#FFFFFF" width="0.392" height="0.107"/>
			
				<rect x="8.019" y="31.971" transform="matrix(0.1937 0.9811 -0.9811 0.1937 38.0417 17.76)" fill="#FFFFFF" width="0.393" height="0.106"/>
			
				<rect x="6.884" y="32.195" transform="matrix(0.1959 0.9806 -0.9806 0.1959 37.3163 18.9894)" fill="#FFFFFF" width="0.391" height="0.107"/>
		</g>
	</g>
	
		<rect x="1.604" y="12.193" transform="matrix(-0.1925 -0.9813 0.9813 -0.1925 -9.7176 16.5345)" fill="#FFFFFF" width="0.68" height="0.144"/>
</g>
</svg>
