<?xml version="1.0" encoding="utf-8"?>
<!-- Generator: Adobe Illustrator 15.1.0, SVG Export Plug-In . SVG Version: 6.00 Build 0)  -->
<!DOCTYPE svg PUBLIC "-//W3C//DTD SVG 1.1//EN" "http://www.w3.org/Graphics/SVG/1.1/DTD/svg11.dtd">
<svg version="1.1" id="Layer_1" xmlns="http://www.w3.org/2000/svg" xmlns:xlink="http://www.w3.org/1999/xlink" x="0px" y="0px"
	 width="50.813px" height="40.107px" viewBox="0 0 50.813 40.107" enable-background="new 0 0 50.813 40.107" xml:space="preserve">
<path fill="#666666" d="M48.152,5.342l2.51,29.782c0,0-5.809-2.703-11.57-1.18s-15.904,4.888-19.185,5.617
	c-3.28,0.73-8.504,0.688-10.671,0.104C7.073,39.08,7.073,39.08,7.073,39.08L4.185,10.059c0,0,4.009,1.556,10.735,0.514
	c6.726-1.041,14.159-5.639,21.232-6.045C43.227,4.117,44.209,4.404,48.152,5.342z"/>
<path fill="#D7141A" d="M43.809,1.728l4.881,28.34c0,0-6.02-2.191-11.629-0.177c-5.607,2.016-15.423,6.243-18.627,7.253
	c-3.205,1.012-8.413,1.422-10.623,1.025c-2.205-0.396-2.212-0.434-2.212-0.434L0.381,9.453c0,0,4.128,1.427,10.738-0.192
	c6.611-1.619,13.992-5.723,21.003-6.739C39.135,1.502,39.799,1.134,43.809,1.728z"/>
<path fill="#FFFFFF" d="M14.938,23.023c1.31-0.385,13.031-5.656,19.406-7.344c5.97-1.58,11.13-0.865,11.75-0.687L43.617,0.614
	c-4.01-0.594-5.014-0.795-12.025,0.225C24.58,1.854,17.571,7.076,10.96,8.695C4.35,10.314,0.135,8.114,0.135,8.114l2.858,15.498
	C3.435,23.663,7.702,25.148,14.938,23.023z"/>
<path fill="#11457E" d="M24.033,19.321c0,0-3.137,6.411-9.262,11.911c-3.891,3.494-9.172,6.505-9.172,6.505L0.2,8.214
	C0.2,8.214,6.2,16.696,24.033,19.321z"/>
</svg>
