<?xml version="1.0" encoding="utf-8"?>
<!-- Generator: Adobe Illustrator 15.1.0, SVG Export Plug-In . SVG Version: 6.00 Build 0)  -->
<!DOCTYPE svg PUBLIC "-//W3C//DTD SVG 1.1//EN" "http://www.w3.org/Graphics/SVG/1.1/DTD/svg11.dtd">
<svg version="1.1" id="Layer_1" xmlns="http://www.w3.org/2000/svg" xmlns:xlink="http://www.w3.org/1999/xlink" x="0px" y="0px"
	 width="50.813px" height="40.107px" viewBox="0 0 50.813 40.107" enable-background="new 0 0 50.813 40.107" xml:space="preserve">
<path fill="#666666" d="M48.152,5.342l2.51,29.782c0,0-5.809-2.703-11.57-1.18s-15.904,4.888-19.185,5.617
	c-3.28,0.73-8.504,0.688-10.671,0.104C7.073,39.08,7.073,39.08,7.073,39.08L4.185,10.059c0,0,4.009,1.556,10.735,0.514
	c6.726-1.041,14.159-5.639,21.232-6.045C43.227,4.117,44.209,4.404,48.152,5.342z"/>
<path fill="#002395" d="M43.715,1.18l4.975,28.888c0,0-6.02-2.191-11.629-0.177c-5.607,2.016-15.423,6.243-18.627,7.253
	c-3.205,1.012-8.413,1.422-10.623,1.025c-2.205-0.396-2.212-0.434-2.212-0.434L0.284,8.186c0,0,3.738,2.207,10.349,0.587
	c6.611-1.619,14.024-6.656,20.977-7.796C38.602-0.17,39.705,0.586,43.715,1.18z"/>
<path fill="#ED2939" d="M44.201,0.491l5.021,29.805c0,0-3.77-1.132-5.344-1.132s-5.907,0.501-8.902,1.87
	c-2.902,1.327-5.961-29.661-5.961-29.661s4.922-1.245,9.703-1.288C42.653,0.051,44.201,0.491,44.201,0.491z"/>
<path fill="#FFFFFF" d="M29.073,1.374l5.903,29.661c0,0-6.799,2.606-7.553,2.804s-7.653,2.884-7.653,2.884L14.809,7.325
	C14.809,7.325,25.875,1.93,29.073,1.374z"/>
</svg>
