<?xml version="1.0" encoding="utf-8"?>
<!-- Generator: Adobe Illustrator 15.1.0, SVG Export Plug-In . SVG Version: 6.00 Build 0)  -->
<!DOCTYPE svg PUBLIC "-//W3C//DTD SVG 1.1//EN" "http://www.w3.org/Graphics/SVG/1.1/DTD/svg11.dtd">
<svg version="1.1" id="Layer_1" xmlns="http://www.w3.org/2000/svg" xmlns:xlink="http://www.w3.org/1999/xlink" x="0px" y="0px"
	 width="50.813px" height="40.107px" viewBox="0 0 50.813 40.107" enable-background="new 0 0 50.813 40.107" xml:space="preserve">
<path fill="#666666" d="M48.152,5.342l2.51,29.782c0,0-5.809-2.703-11.57-1.18s-15.904,4.888-19.185,5.617
	c-3.28,0.73-8.504,0.688-10.671,0.104C7.073,39.08,7.073,39.08,7.073,39.08L4.185,10.059c0,0,4.009,1.556,10.735,0.514
	c6.726-1.041,14.159-5.639,21.232-6.045C43.227,4.117,44.209,4.404,48.152,5.342z"/>
<path fill="#111F8A" d="M43.617,0.614l5.072,29.455c0,0-6.02-2.191-11.629-0.177c-5.607,2.016-15.423,6.243-18.627,7.253
	c-3.205,1.012-8.413,1.422-10.623,1.025c-2.205-0.396-2.205-0.396-2.205-0.396L0.135,8.114c0,0,4.215,2.2,10.825,0.581
	c6.611-1.619,13.62-6.841,20.632-7.857C38.604-0.181,39.607,0.02,43.617,0.614z"/>
<path fill="#FFFFFF" d="M46.435,16.973l0.573,3.33c0,0-3.32-0.696-4.695-0.696s-5.399,0.155-7.5,0.875
	c-2.667,0.915-6.416,2.333-6.958,2.583s-0.542,0.25-0.542,0.25s-8.333,3.374-8.833,3.583s-4.709,1.708-7.792,1.75
	s-7.042-0.625-7.042-0.625l-0.5-3.375c0,0,5.465,1.288,9.167,0.584c8.322-1.583,20.105-9.478,28.917-8.917
	C44.986,16.555,46.435,16.973,46.435,16.973z"/>
<path fill="#FFFFFF" d="M47.648,24.023l0.572,3.327c0,0-3.533-0.743-4.908-0.743s-5.399,0.154-7.5,0.875
	c-2.667,0.914-6.416,2.333-6.958,2.583s-0.542,0.25-0.542,0.25s-8.333,3.374-8.833,3.583s-4.709,1.708-7.792,1.75
	s-6.572-0.532-6.572-0.532L4.49,31.726c0,0,5.121,1.211,8.823,0.507c8.322-1.583,20.105-9.479,28.917-8.917
	C45.986,23.555,47.648,24.023,47.648,24.023z"/>
<path fill="#FFFFFF" d="M45.314,10.468l0.498,3.118c0,0-3.416-0.521-5.041-0.521s-4.584,0.083-7.75,1
	c-1.771,0.513-13.292,5.333-13.292,5.333l-1.542,0.655l-0.583-3.28c0,0,7.708-3.417,7.875-3.417s6.629-2.801,10.667-3.25
	C40.646,9.607,43.353,10.018,45.314,10.468z"/>
<path fill="#FFFFFF" d="M16.563,10.19l0.542,3.333l4.542-2.042c0,0,8.042-3.292,9.042-3.583s7.501-1.666,10.084-1.333
	s3.97,0.578,3.97,0.578l-0.565-3.286c0,0-3.112-0.542-5.279-0.542s-5.209,0.375-8.834,1.25C26.909,5.327,16.563,10.19,16.563,10.19z
	"/>
<path fill="#FFFFFF" d="M17.146,13.398l0.551,3.334c0,0-2.968,1.208-4.718,1.625S7.33,18.98,5.604,18.815
	c-1.75-0.167-3.667-0.875-3.667-0.875l-0.549-3.227c0,0,4.497,1.51,7.341,1.019C15.729,14.523,17.146,13.398,17.146,13.398z"/>
<path fill="#FFFFFF" d="M8.938,9.065l3.657,17.089l-4.157,0.494l-0.5-0.291L4.037,9.161C4.037,9.161,6.202,9.257,8.938,9.065z"/>
<path fill="#FFFFFF" d="M4.037,31.494"/>
</svg>
