<?xml version="1.0" encoding="utf-8"?>
<!-- Generator: Adobe Illustrator 15.1.0, SVG Export Plug-In . SVG Version: 6.00 Build 0)  -->
<!DOCTYPE svg PUBLIC "-//W3C//DTD SVG 1.1//EN" "http://www.w3.org/Graphics/SVG/1.1/DTD/svg11.dtd">
<svg version="1.1" id="Layer_1" xmlns="http://www.w3.org/2000/svg" xmlns:xlink="http://www.w3.org/1999/xlink" x="0px" y="0px"
	 width="50.813px" height="40.107px" viewBox="0 0 50.813 40.107" enable-background="new 0 0 50.813 40.107" xml:space="preserve">
<path fill="#666666" d="M48.152,5.342l2.51,29.782c0,0-5.809-2.703-11.57-1.18s-15.904,4.888-19.185,5.617
	c-3.28,0.73-8.504,0.688-10.671,0.104C7.073,39.08,7.073,39.08,7.073,39.08L4.185,10.059c0,0,4.009,1.556,10.735,0.514
	c6.726-1.041,14.159-5.639,21.232-6.045C43.227,4.117,44.209,4.404,48.152,5.342z"/>
<path fill="#EC1C2E" d="M43.617,0.614l5.072,29.455c0,0-6.02-2.191-11.629-0.177c-5.607,2.016-15.423,6.243-18.627,7.253
	c-3.205,1.012-8.413,1.422-10.623,1.025c-2.205-0.396-2.205-0.396-2.205-0.396L0.135,8.114c0,0,4.215,2.2,10.825,0.581
	c6.611-1.619,13.62-6.841,20.632-7.857C38.604-0.181,39.607,0.02,43.617,0.614z"/>
<g>
	<g>
		<path fill="#FFE01B" d="M23.207,13.118c-0.229-1.08,0.576-2.032,0.29-3.476c0.896,0.706,0.107,2.569,0.73,3.413
			c-0.056-1.1,0.893-1.919,0.842-3.388c0.772,0.835-0.305,2.554,0.175,3.483c0.121-1.096,1.188-1.759,1.374-3.217
			c0.628,0.942-0.713,2.475-0.386,3.467c0.296-1.065,1.458-1.557,1.874-2.969c0.468,1.028-1.099,2.336-0.937,3.366
			c0.463-1.006,1.689-1.313,2.324-2.646c0.299,1.088-1.46,2.142-1.462,3.182c0.618-0.922,1.876-1.039,2.718-2.257
			c0.123,1.121-1.781,1.891-1.953,2.92c0.759-0.818,2.021-0.74,3.046-1.815c-0.059,1.124-2.062,1.594-2.394,2.585
			c0.879-0.692,2.112-0.421,3.298-1.326c-0.235,1.102-2.293,1.259-2.778,2.186c0.976-0.549,2.156-0.094,3.47-0.804
			c-0.41,1.051-2.465,0.893-3.094,1.733c1.054-0.392,2.141,0.237,3.556-0.264c-0.575,0.976-2.578,0.505-3.335,1.239
			c1.106-0.227,2.078,0.563,3.556,0.284c-0.723,0.876-2.629,0.105-3.492,0.714c1.127-0.054,1.964,0.874,3.466,0.825
			c-0.854,0.753-2.611-0.301-3.563,0.169c1.123,0.119,1.798,1.163,3.291,1.345c-0.966,0.615-2.532-0.696-3.546-0.377
			c1.089,0.289,1.593,1.423,3.035,1.832c-1.05,0.459-2.389-1.074-3.441-0.915c1.029,0.452,1.343,1.647,2.705,2.271
			c-1.111,0.294-2.188-1.425-3.253-1.428c0.943,0.604,1.063,1.835,2.31,2.657c-1.145,0.12-1.932-1.742-2.984-1.906
			c0.837,0.736,0.754,1.975,1.854,2.978c-1.15-0.058-1.632-2.018-2.644-2.343c0.708,0.859,0.43,2.066,1.356,3.225
			c-1.128-0.231-1.288-2.242-2.237-2.717c0.563,0.957,0.096,2.107,0.822,3.395c-1.075-0.402-0.91-2.413-1.77-3.027
			c0.399,1.031-0.245,2.095,0.27,3.479c-0.999-0.562-0.517-2.522-1.268-3.262c0.231,1.079-0.576,2.032-0.289,3.477
			c-0.896-0.705-0.106-2.57-0.73-3.415c0.056,1.104-0.893,1.919-0.842,3.391c-0.771-0.835,0.306-2.555-0.174-3.485
			c-0.121,1.1-1.19,1.76-1.375,3.219c-0.627-0.942,0.712-2.477,0.386-3.466c-0.296,1.063-1.456,1.555-1.873,2.969
			c-0.469-1.028,1.098-2.338,0.936-3.368c-0.463,1.008-1.688,1.316-2.324,2.647c-0.3-1.087,1.458-2.142,1.46-3.183
			c-0.617,0.923-1.876,1.039-2.717,2.256c-0.124-1.117,1.783-1.888,1.952-2.917c-0.758,0.817-2.02,0.74-3.046,1.814
			c0.058-1.125,2.063-1.596,2.395-2.585c-0.878,0.691-2.112,0.422-3.296,1.325c0.236-1.102,2.291-1.259,2.777-2.186
			c-0.978,0.548-2.155,0.093-3.469,0.804c0.41-1.051,2.465-0.893,3.094-1.732c-1.054,0.392-2.144-0.239-3.555,0.263
			c0.572-0.977,2.579-0.505,3.333-1.239c-1.104,0.226-2.078-0.563-3.554-0.284c0.722-0.876,2.627-0.104,3.489-0.713
			c-1.125,0.053-1.962-0.875-3.462-0.825c0.853-0.754,2.61,0.3,3.56-0.17c-1.12-0.118-1.798-1.163-3.29-1.345
			c0.965-0.614,2.532,0.695,3.545,0.378c-1.087-0.29-1.589-1.425-3.033-1.832c1.049-0.46,2.387,1.074,3.44,0.915
			c-1.029-0.452-1.342-1.65-2.704-2.274c1.111-0.293,2.187,1.426,3.252,1.431c-0.945-0.604-1.063-1.835-2.308-2.66
			c1.145-0.119,1.933,1.745,2.983,1.911c-0.835-0.741-0.755-1.975-1.853-2.979c1.148,0.057,1.628,2.017,2.641,2.343
			c-0.707-0.859-0.43-2.067-1.355-3.227c1.127,0.232,1.288,2.243,2.236,2.719c-0.561-0.957-0.096-2.108-0.823-3.395
			c1.075,0.401,0.912,2.412,1.772,3.027c-0.401-1.032,0.243-2.097-0.269-3.478C22.939,10.418,22.458,12.379,23.207,13.118z"/>
	</g>
	<path fill="#EC1C2E" d="M25.274,24.479c2.853-0.623,4.65-3.391,4.016-6.182c-0.637-2.791-3.467-4.55-6.32-3.928
		c-2.854,0.621-4.651,3.39-4.015,6.181C19.591,23.342,22.42,25.101,25.274,24.479z"/>
	<g>
		<g>
			<path fill="#FFE01B" d="M23.117,15.015c1.318-0.287,2.629,0.006,3.656,0.71c-1.266,0.409-2.297,0.946-3.128,1.605
				c-1.039-0.251-2.207-0.31-3.528-0.155C20.739,16.112,21.798,15.302,23.117,15.015z"/>
			<path fill="#FFE01B" d="M23.345,17.585c-0.092,0.079-0.18,0.161-0.266,0.243c-0.939-0.253-2.009-0.315-3.223-0.138
				c0.038-0.087,0.078-0.174,0.121-0.257C21.242,17.269,22.359,17.332,23.345,17.585z"/>
			<path fill="#FFE01B" d="M24.029,17.436c0.114,0.034,0.229,0.071,0.344,0.11c0.741-0.619,1.682-1.121,2.857-1.464
				c-0.069-0.063-0.145-0.124-0.22-0.182C25.794,16.276,24.811,16.796,24.029,17.436z"/>
			<path fill="#FFE01B" d="M19.757,17.949c-0.031,0.086-0.059,0.174-0.085,0.262c1.12-0.217,2.109-0.169,2.972,0.077
				c0.065-0.077,0.136-0.15,0.206-0.226C21.95,17.81,20.92,17.755,19.757,17.949z"/>
			<path fill="#FFE01B" d="M20.731,22.488c-0.537-0.566-0.933-1.275-1.116-2.083c-0.151-0.66-0.146-1.314-0.01-1.931
				c1.075-0.241,2.027-0.208,2.854,0.031C21.57,19.616,21.028,20.953,20.731,22.488z"/>
			<path fill="#FFE01B" d="M23.437,23.891c-0.221-0.034-0.437-0.08-0.646-0.143c-0.271-1.68-0.077-3.379,0.766-4.764
				c0.099,0.059,0.196,0.122,0.292,0.189C23.087,20.57,23.01,22.281,23.437,23.891z"/>
			<path fill="#FFE01B" d="M27.437,16.275c0.063,0.065,0.125,0.133,0.186,0.203c-1.104,0.267-1.98,0.722-2.653,1.302
				c-0.094-0.042-0.189-0.08-0.285-0.118C25.388,17.06,26.295,16.583,27.437,16.275z"/>
			<path fill="#FFE01B" d="M28.522,20.79c0.241-0.735,0.289-1.543,0.106-2.349c-0.15-0.66-0.44-1.25-0.831-1.753
				c-1.077,0.229-1.924,0.654-2.57,1.215C26.518,18.538,27.585,19.524,28.522,20.79z"/>
			<path fill="#FFE01B" d="M24.11,19.372c1.192,0.969,1.903,2.491,2.081,4.089c-0.332,0.162-0.688,0.289-1.065,0.37
				c-0.378,0.082-0.755,0.117-1.125,0.106C23.469,22.418,23.451,20.746,24.11,19.372z"/>
			<path fill="#FFE01B" d="M26.682,23.182c0.187-0.121,0.361-0.254,0.523-0.396c-0.484-1.634-1.398-3.092-2.762-3.995
				c-0.065,0.094-0.125,0.19-0.182,0.29C25.555,20.032,26.369,21.549,26.682,23.182z"/>
			<path fill="#FFE01B" d="M23.233,18.807c-0.114-0.055-0.241-0.113-0.361-0.161c-0.917,1.24-1.365,2.749-1.485,4.416
				c0.222,0.158,0.458,0.297,0.704,0.417C22.012,21.771,22.334,20.141,23.233,18.807z"/>
			<path fill="#FFE01B" d="M24.659,18.496c0.079-0.099,0.168-0.202,0.257-0.296c1.369,0.742,2.428,1.923,3.263,3.382
				c-0.133,0.237-0.286,0.459-0.459,0.669C27.052,20.672,26.053,19.33,24.659,18.496z"/>
			<path fill="#FFE01B" d="M23.729,17.697c0.063,0.021,0.287,0.098,0.343,0.119c-0.066,0.062-0.215,0.217-0.256,0.26
				c-0.056-0.022-0.259-0.1-0.346-0.129C23.512,17.904,23.68,17.741,23.729,17.697z"/>
			<path fill="#FFE01B" d="M23.243,18.189c-0.063,0.071-0.161,0.185-0.197,0.232c0.127,0.047,0.301,0.123,0.356,0.15
				c0.046-0.061,0.138-0.185,0.192-0.245C23.503,18.289,23.309,18.208,23.243,18.189z"/>
			<path fill="#FFE01B" d="M24.383,17.941c0.089,0.039,0.226,0.1,0.278,0.128c-0.093,0.094-0.217,0.237-0.256,0.284
				c-0.068-0.037-0.205-0.11-0.281-0.142C24.19,18.139,24.33,17.985,24.383,17.941z"/>
			<path fill="#FFE01B" d="M23.906,18.476c0.059,0.032,0.233,0.125,0.282,0.155c-0.057,0.076-0.143,0.199-0.184,0.273
				c-0.071-0.05-0.202-0.126-0.285-0.17C23.749,18.687,23.867,18.529,23.906,18.476z"/>
		</g>
	</g>
</g>
</svg>
