<?xml version="1.0" encoding="utf-8"?>
<!-- Generator: Adobe Illustrator 15.1.0, SVG Export Plug-In . SVG Version: 6.00 Build 0)  -->
<!DOCTYPE svg PUBLIC "-//W3C//DTD SVG 1.1//EN" "http://www.w3.org/Graphics/SVG/1.1/DTD/svg11.dtd">
<svg version="1.1" id="Layer_1" xmlns="http://www.w3.org/2000/svg" xmlns:xlink="http://www.w3.org/1999/xlink" x="0px" y="0px"
	 width="50.813px" height="40.107px" viewBox="0 0 50.813 40.107" enable-background="new 0 0 50.813 40.107" xml:space="preserve">
<path fill="#666666" d="M48.152,5.342l2.51,29.782c0,0-5.809-2.703-11.57-1.18s-15.904,4.888-19.185,5.617
	c-3.28,0.73-8.504,0.688-10.671,0.104C7.073,39.08,7.073,39.08,7.073,39.08L4.185,10.059c0,0,4.009,1.556,10.735,0.514
	c6.726-1.041,14.159-5.639,21.232-6.045C43.227,4.117,44.209,4.404,48.152,5.342z"/>
<path fill="#0092C0" d="M43.617,0.614l5.072,29.455c0,0-6.02-2.191-11.629-0.177c-5.607,2.016-15.423,6.243-18.627,7.253
	c-3.205,1.012-8.413,1.422-10.623,1.025c-2.205-0.396-2.205-0.396-2.205-0.396L0.135,8.114c0,0,4.215,2.2,10.825,0.581
	c6.611-1.619,13.62-6.841,20.632-7.857C38.604-0.181,39.607,0.02,43.617,0.614z"/>
<g>
	<g>
		<path fill="#FFF100" d="M22.31,10.778c0.015,0.382,0.029,1.303,0.071,1.471c0.04,0.156,0.197,0.251,0.354,0.211
			s0.25-0.198,0.211-0.354C22.906,11.951,22.474,11.116,22.31,10.778z"/>
		<path fill="#FFF100" d="M21.092,11.216c0.089,0.372,0.282,1.272,0.357,1.429c0.069,0.146,0.243,0.208,0.387,0.138
			c0.146-0.07,0.208-0.243,0.138-0.388C21.905,12.25,21.318,11.515,21.092,11.216z"/>
		<path fill="#FFF100" d="M19.983,11.883c0.158,0.348,0.524,1.192,0.628,1.332c0.096,0.129,0.278,0.155,0.407,0.059
			c0.129-0.096,0.155-0.278,0.06-0.407C20.983,12.739,20.264,12.132,19.983,11.883z"/>
		<path fill="#FFF100" d="M19.025,12.754c0.224,0.31,0.747,1.067,0.876,1.184c0.119,0.108,0.304,0.098,0.411-0.021
			c0.107-0.119,0.099-0.303-0.021-0.411C20.172,13.397,19.349,12.943,19.025,12.754z"/>
		<path fill="#FFF100" d="M18.256,13.795c0.28,0.26,0.942,0.9,1.09,0.989c0.139,0.083,0.317,0.037,0.399-0.101
			c0.083-0.138,0.037-0.317-0.101-0.399C19.507,14.202,18.61,13.917,18.256,13.795z"/>
		<path fill="#FFF100" d="M17.704,14.965c0.326,0.201,1.1,0.7,1.263,0.758c0.151,0.054,0.317-0.025,0.371-0.176
			c0.054-0.152-0.025-0.318-0.176-0.372C19.011,15.121,18.075,15.017,17.704,14.965z"/>
		<path fill="#FFF100" d="M17.391,16.221c0.358,0.133,1.215,0.472,1.387,0.498c0.159,0.022,0.306-0.087,0.33-0.246
			c0.023-0.159-0.087-0.307-0.246-0.331C18.703,16.119,17.766,16.199,17.391,16.221z"/>
		<path fill="#FFF100" d="M17.33,17.514c0.377,0.06,1.283,0.226,1.457,0.217c0.16-0.008,0.284-0.145,0.276-0.306
			s-0.145-0.284-0.306-0.276C18.596,17.158,17.693,17.419,17.33,17.514z"/>
		<path fill="#FFF100" d="M17.521,18.793c0.382-0.014,1.303-0.028,1.471-0.071c0.156-0.04,0.25-0.198,0.211-0.354
			c-0.039-0.155-0.197-0.25-0.354-0.21C18.694,18.198,17.859,18.63,17.521,18.793z"/>
		<path fill="#FFF100" d="M17.96,20.011c0.372-0.088,1.271-0.282,1.428-0.356c0.145-0.069,0.207-0.243,0.138-0.388
			c-0.069-0.146-0.242-0.208-0.388-0.138C18.993,19.198,18.258,19.786,17.96,20.011z"/>
		<path fill="#FFF100" d="M18.626,21.121c0.348-0.159,1.192-0.524,1.332-0.628c0.128-0.097,0.156-0.279,0.059-0.408
			c-0.095-0.129-0.278-0.155-0.407-0.06C19.481,20.122,18.876,20.841,18.626,21.121z"/>
		<path fill="#FFF100" d="M19.497,22.078c0.309-0.224,1.067-0.747,1.184-0.875c0.107-0.12,0.098-0.305-0.021-0.412
			c-0.119-0.107-0.303-0.099-0.411,0.021C20.141,20.931,19.687,21.756,19.497,22.078z"/>
		<path fill="#FFF100" d="M20.538,22.849c0.26-0.28,0.9-0.941,0.99-1.09c0.082-0.139,0.037-0.317-0.101-0.399
			c-0.138-0.082-0.317-0.037-0.399,0.101C20.945,21.597,20.66,22.494,20.538,22.849z"/>
		<path fill="#FFF100" d="M21.708,23.399c0.201-0.325,0.701-1.099,0.758-1.262c0.053-0.151-0.025-0.318-0.177-0.373
			c-0.151-0.053-0.318,0.026-0.373,0.177C21.864,22.095,21.76,23.029,21.708,23.399z"/>
		<path fill="#FFF100" d="M22.963,23.712c0.134-0.357,0.473-1.214,0.498-1.386c0.024-0.159-0.087-0.307-0.246-0.329
			c-0.159-0.024-0.307,0.085-0.33,0.245C22.862,22.401,22.942,23.339,22.963,23.712z"/>
		<path fill="#FFF100" d="M24.257,23.774c0.06-0.378,0.226-1.284,0.216-1.457c-0.008-0.16-0.145-0.283-0.305-0.275
			c-0.16,0.009-0.284,0.145-0.276,0.306C23.901,22.509,24.162,23.412,24.257,23.774z"/>
		<path fill="#FFF100" d="M25.537,23.582c-0.014-0.381-0.028-1.303-0.07-1.471c-0.04-0.155-0.198-0.25-0.354-0.211
			c-0.156,0.039-0.251,0.198-0.212,0.354C24.94,22.41,25.374,23.244,25.537,23.582z"/>
		<path fill="#FFF100" d="M26.755,23.146c-0.089-0.372-0.282-1.272-0.356-1.429c-0.069-0.146-0.243-0.207-0.388-0.138
			c-0.146,0.068-0.207,0.241-0.138,0.387S26.527,22.847,26.755,23.146z"/>
		<path fill="#FFF100" d="M27.864,22.479c-0.159-0.349-0.525-1.193-0.629-1.332c-0.097-0.128-0.276-0.155-0.407-0.06
			c-0.129,0.097-0.156,0.279-0.059,0.408C26.864,21.623,27.583,22.229,27.864,22.479z"/>
		<path fill="#FFF100" d="M28.822,21.607c-0.223-0.309-0.749-1.067-0.877-1.183c-0.118-0.108-0.303-0.099-0.412,0.021
			c-0.106,0.12-0.098,0.305,0.021,0.412C27.675,20.963,28.498,21.418,28.822,21.607z"/>
		<path fill="#FFF100" d="M29.591,20.568c-0.279-0.261-0.94-0.902-1.09-0.991c-0.14-0.082-0.315-0.037-0.399,0.101
			c-0.082,0.138-0.037,0.316,0.101,0.399C28.342,20.159,29.237,20.444,29.591,20.568z"/>
		<path fill="#FFF100" d="M30.144,19.397c-0.325-0.201-1.1-0.7-1.264-0.759c-0.15-0.055-0.317,0.025-0.37,0.176
			c-0.054,0.153,0.024,0.318,0.177,0.373C28.837,19.241,29.772,19.346,30.144,19.397z"/>
		<path fill="#FFF100" d="M30.455,18.141c-0.358-0.133-1.213-0.472-1.385-0.497c-0.159-0.023-0.309,0.087-0.331,0.246
			s0.088,0.306,0.247,0.33C29.145,18.242,30.081,18.162,30.455,18.141z"/>
		<path fill="#FFF100" d="M30.518,16.848c-0.377-0.062-1.282-0.227-1.455-0.218c-0.161,0.008-0.284,0.145-0.277,0.306
			c0.008,0.16,0.144,0.284,0.305,0.275S30.154,16.943,30.518,16.848z"/>
		<path fill="#FFF100" d="M30.326,15.567c-0.383,0.014-1.302,0.029-1.471,0.071c-0.156,0.04-0.252,0.199-0.213,0.354
			c0.04,0.156,0.199,0.25,0.354,0.211C29.154,16.164,29.989,15.731,30.326,15.567z"/>
		<path fill="#FFF100" d="M29.889,14.35c-0.373,0.089-1.272,0.282-1.43,0.356c-0.146,0.069-0.206,0.243-0.138,0.388
			c0.069,0.145,0.244,0.207,0.388,0.138C28.854,15.163,29.591,14.576,29.889,14.35z"/>
		<path fill="#FFF100" d="M29.222,13.241c-0.347,0.159-1.193,0.525-1.332,0.628c-0.129,0.096-0.155,0.278-0.059,0.407
			c0.095,0.129,0.277,0.156,0.405,0.06C28.366,14.24,28.972,13.521,29.222,13.241z"/>
		<path fill="#FFF100" d="M28.351,12.282c-0.308,0.224-1.065,0.748-1.183,0.876c-0.107,0.119-0.099,0.303,0.021,0.411
			c0.117,0.108,0.303,0.098,0.41-0.021C27.708,13.429,28.162,12.606,28.351,12.282z"/>
		<path fill="#FFF100" d="M27.311,11.513c-0.26,0.28-0.9,0.941-0.99,1.091c-0.082,0.138-0.037,0.316,0.102,0.399
			c0.137,0.083,0.317,0.037,0.399-0.101C26.903,12.764,27.188,11.867,27.311,11.513z"/>
		<path fill="#FFF100" d="M26.14,10.961c-0.2,0.325-0.699,1.099-0.757,1.262c-0.054,0.152,0.024,0.318,0.175,0.373
			c0.153,0.053,0.32-0.026,0.373-0.177C25.984,12.267,26.088,11.333,26.14,10.961z"/>
		<path fill="#FFF100" d="M24.884,10.648c-0.133,0.358-0.473,1.215-0.498,1.386c-0.023,0.159,0.087,0.307,0.247,0.331
			c0.159,0.023,0.306-0.087,0.331-0.246C24.986,11.959,24.906,11.022,24.884,10.648z"/>
		<path fill="#FFF100" d="M23.591,10.587c-0.06,0.376-0.226,1.283-0.216,1.456c0.007,0.161,0.144,0.284,0.305,0.276
			c0.16-0.008,0.284-0.145,0.276-0.306C23.947,11.853,23.687,10.949,23.591,10.587z"/>
	</g>
	<circle fill="#FFF100" cx="23.924" cy="17.181" r="4.381"/>
	<g>
		<path fill="#FFF100" d="M25.515,24.305c-0.277,0.107-1.168,0.249-1.693,0.176c-0.867-0.117-1.731-0.127-2.257-0.393
			c-0.667-0.335-2.716-0.869-4.077-3.448c-0.264-0.501-0.306-0.725-0.454-0.681c-0.076,0.022-0.031,0.455,0.167,0.913
			c0.186,0.429,0.038,0.415-0.362-0.106c-0.383-0.5-0.657-0.923-0.835-1.374c-0.135-0.342-0.331,0.051-0.138,0.556
			c0.165,0.429,0.704,1.22,1.139,1.627c0.372,0.348,0.176,0.409-0.195,0.122s-0.905-0.735-1.27-1.281
			c-0.364-0.546-0.164,0.296,0.017,0.592c0.474,0.776,1.306,1.385,1.741,1.645c0.436,0.261,0.313,0.385-0.076,0.228
			c-0.39-0.161-0.523-0.172-1.001-0.473c-0.478-0.301-0.576-0.08-0.132,0.25c0.443,0.33,0.875,0.58,1.371,0.799
			c0.267,0.118,0.496,0.251,0.156,0.291c-0.221,0.024-0.608-0.125-0.79-0.233c-0.181-0.108-0.426-0.05-0.14,0.18
			c0.322,0.257,1.027,0.637,1.531,0.684c0.179,0.016,0.071,0.157-0.296,0.167c-0.368,0.011-0.063,0.201,0.133,0.244
			c0.196,0.044,0.501,0.069,0.715,0.057c0.212-0.013,0.167,0.092-0.004,0.146c-0.172,0.053-0.311,0.072-0.422,0.064
			c-0.11-0.007,0.004,0.117,0.129,0.144c0.125,0.023,0.333,0.033,0.48,0.006c0.148-0.027,0.15,0.164-0.02,0.166
			c-0.169,0.001-0.353,0.011-0.239,0.116c0.115,0.104,0.594,0.05,0.913-0.014c0.318-0.065,0.233,0.068,0.084,0.147
			c-0.15,0.079-0.294,0.121-0.405,0.148c-0.111,0.028-0.141,0.217,0.109,0.168c0.25-0.047,0.598-0.114,1.165,0.01
			c0.747,0.164,1.708,0.254,2.31,0.01c0.532-0.218,0.193-0.298-0.07-0.199c-0.423,0.158-0.873-0.063-1.172,0.013
			c-0.3,0.076-0.837-0.157-1.153-0.12c-0.149,0.017-0.297-0.079-0.116-0.178c0.182-0.096,0.222-0.219,0.183-0.292
			c-0.059-0.114-0.369,0.087-0.606,0.045c-0.185-0.034-0.177-0.099-0.064-0.231c0.155-0.179-0.004-0.245-0.281-0.18
			c-0.277,0.064-0.365-0.059-0.256-0.194c0.111-0.136,0.021-0.185-0.112-0.142c-0.133,0.045-0.146-0.091-0.067-0.142
			s0.037-0.114-0.072-0.102c-0.254,0.034-0.482-0.164-0.687-0.196c-0.171-0.025-0.179-0.096-0.104-0.107
			c0.075-0.011,0.146-0.077,0.005-0.14c-0.209-0.095-0.039-0.204-0.321-0.285c-0.216-0.061-0.303-0.153-0.289-0.243
			c0.021-0.115,0.333-0.117,0.317-0.275c-0.014-0.133-0.452-0.21-0.491-0.409c-0.018-0.09,0.051-0.11,0.136-0.088
			c0.086,0.022,0.173,0.006,0.125-0.09c-0.056-0.11-0.03-0.168,0.161-0.117c0.51,0.133,1.219,0.739,1.914,1.374
			c0.468,0.426,0.871,0.549,1.18,0.556c0.414,0.009,1.292,0.327,1.691,0.54c0.261,0.14,0.457,0.224,0.825,0.049
			c0.367-0.175,0.805-0.192,1.173-0.121c0.368,0.071,0.729,0.177,0.929-0.276C25.725,24.22,25.703,24.232,25.515,24.305z"/>
		<path fill="#FFF100" d="M27.859,23.887c-0.859,0.234-1.367,0.459-1.527,0.685c-0.31,0.438-0.432,0.284-0.583,0.456
			c-0.152,0.173-0.303,0.226-0.404,0.194c-0.101-0.03-0.134-0.085,0.034-0.173c0.168-0.089,0.269-0.28,0.333-0.393
			c0.21-0.372,0.682-0.571,1.061-0.751c1.25-0.595,3.011-1.792,3.897-3.839c0.61-1.411,0.608-2.737,0.482-3.921
			c-0.046-0.42,0.181-0.37,0.277-0.105c0.099,0.263,0.196,0.938,0.201,1.164c0.007,0.225,0.091,0.384,0.21,0.019
			c0.182-0.55,0.225-1.601,0.189-2.106c-0.035-0.505,0.144-0.5,0.267-0.046c0.182,0.671,0.128,1.808-0.238,2.869
			c-0.147,0.422,0.004,0.525,0.234,0.074c0.333-0.65,0.472-0.985,0.566-1.575c0.083-0.502,0.259-0.453,0.235,0.156
			c-0.035,0.884-0.356,1.595-0.641,2.14c-0.282,0.546-0.129,0.507,0.084,0.371c0.212-0.136,0.513-0.569,0.705-1.031
			c0.193-0.46,0.334-0.311,0.229,0.101c-0.099,0.383-0.445,1.085-0.699,1.498c-0.198,0.325,0.04,0.278,0.173,0.069
			c0.133-0.208,0.218-0.446,0.39-0.54c0.171-0.096,0.397-0.148,0.061,0.447c-0.156,0.276-0.678,0.901-0.949,1.125
			c-0.274,0.224-0.129,0.311,0.097,0.191c0.229-0.12,0.556-0.415,0.585-0.302c0.031,0.126-0.22,0.312-0.429,0.468
			c-0.222,0.167-0.307,0.434-0.008,0.358c0.142-0.036,0.132,0.09,0.013,0.146c-0.121,0.055-0.355,0.13-0.346,0.241
			c0.005,0.061,0.106,0.081,0.186,0.066s0.104,0.044,0.018,0.149c-0.275,0.338-0.767,0.307-0.916,0.489
			c-0.149,0.181,0.032,0.125,0.258,0.064c0.266-0.073,0.549,0.074,0.178,0.176c-0.523,0.143-1.159,0.459-1.65,0.858
			c-0.366,0.299-0.746,0.173-0.24-0.175c0.285-0.197,0.696-0.476,0.83-0.591c0.303-0.262-0.255-0.054,0.056-0.37
			c0.093-0.095,0.338-0.162,0.316-0.249c-0.022-0.087-0.264-0.075-0.103-0.221c0.08-0.072,0.255-0.131,0.359-0.148
			c0.104-0.016,0.166-0.18-0.004-0.184c-0.172-0.002-0.188-0.091-0.016-0.181s0.353-0.193,0.442-0.266
			c0.088-0.073,0.053-0.158-0.139-0.12c-0.19,0.038-0.233-0.029-0.075-0.135c0.185-0.124,0.408-0.34,0.542-0.481
			c0.135-0.142,0.092-0.193-0.081-0.201c-0.172-0.008-0.198-0.033-0.074-0.15c0.133-0.127,0.229-0.254,0.24-0.354
			c0.01-0.106,0.007-0.212-0.167-0.153c-0.189,0.063-0.286,0.087-0.319-0.121c-0.031-0.208-0.003-0.285,0.08-0.451
			c0.087-0.172-0.039-0.257-0.308-0.067c-0.454,0.32-0.592,0.407-0.736,0.814c-0.146,0.406-0.337,0.867-0.412,1.225
			s-0.354,0.799-0.688,0.987c-0.334,0.187-1.048,0.758-1.324,1.115C28.247,23.675,28.379,23.745,27.859,23.887z"/>
		<path fill="#FFF100" d="M24.109,26.362c-0.191-0.045-0.241-0.182,0.018-0.297c0.239-0.108,0.237-0.103,0.347-0.196
			c0.11-0.096,0.51-0.427,0.711-0.484c0.202-0.056,0.217,0.104,0.03,0.158c-0.188,0.053-0.574,0.377-0.701,0.527
			c-0.127,0.148-0.199,0.189-0.287,0.189C24.14,26.262,24.116,26.304,24.109,26.362z"/>
		<path fill="#FFF100" d="M23.857,27.137c-0.235-0.158-0.107-0.426,0.129-0.604c0.066-0.05,0.199,0.072,0.459-0.018
			c0.26-0.092,0.53-0.199,0.349-0.315c-0.098-0.063-0.152-0.131-0.031-0.162c0.048-0.012,0.09-0.027,0.123-0.061
			c0.033-0.034,0.094-0.061,0.148-0.046c0.055,0.015,0.104,0.011,0.168-0.017c0.065-0.027,0.132,0.012,0.072,0.092
			c-0.135,0.179,0.018,0.253,0.133,0.203c0.117-0.05,0.322-0.111,0.448-0.103c0.125,0.01,0.238-0.015,0.324-0.056
			c0.088-0.043,0.272-0.074,0.485-0.04c0.262,0.04,0.264,0.201,0.055,0.218c-0.505,0.039-0.887,0.115-1.145,0.232
			c-0.259,0.116-0.723,0.188-1.036,0.22C24.273,26.707,24.017,26.746,23.857,27.137z"/>
		<path fill="#FFF100" d="M25.683,26.768c-0.085,0.251-0.266,0.453-0.491,0.582c-0.224,0.129-0.319,0.246-0.009,0.208
			c0.309-0.036,0.409-0.134,0.545-0.241c0.138-0.107,0.151-0.268,0.303-0.106c0.141,0.148,0.257,0.101,0.396-0.12
			c0.077-0.124,0.133-0.209,0.245-0.233c0.112-0.022,0.148-0.006,0.093,0.122c-0.055,0.126,0.064,0.292,0.193,0.09
			c0.129-0.203,0.186-0.325,0.321-0.354c0.137-0.03,0.123,0.036,0.05,0.151c-0.074,0.117-0.107,0.212,0.092,0.142
			c0.198-0.071,0.289-0.119,0.329-0.269c0.039-0.148,0.076-0.226,0.284-0.129c0.21,0.097,0.333,0.194,0.379,0.023
			c0.043-0.171,0.075-0.226,0.193-0.168c0.158,0.079,0.571-0.123,0.548-0.334c-0.01-0.094-0.027-0.213,0.155-0.12
			s0.467-0.025,0.431-0.191c-0.038-0.166,0.049-0.214,0.213-0.193s0.354-0.002,0.429-0.114c0.075-0.11,0.092-0.171-0.003-0.281
			c-0.096-0.108-0.105-0.237,0.106-0.212c0.345,0.042,0.731,0.066,0.892-0.271c0.162-0.34,0.223-0.427-0.161-0.32
			c-0.386,0.107-1.097,0.227-1.425,0.268c-0.33,0.043-0.775,0.067-0.868,0.091s-0.109,0.06-0.082,0.119
			c0.024,0.06-0.101,0.092-0.092,0.188c0.008,0.094-0.048,0.161-0.161,0.137c-0.114-0.021-0.13,0.018-0.066,0.104
			c0.063,0.088,0.078,0.181-0.067,0.188c-0.37,0.016-0.544,0.197-0.782,0.383c-0.495,0.382-0.841,0.504-1.286,0.566
			C25.938,26.533,25.767,26.525,25.683,26.768z"/>
	</g>
</g>
<g>
	<g>
		<path fill="#FFF100" d="M7.123,29.974c-0.055-0.353-0.786-1.18-1.516-0.599c-0.929,0.74,0.973,2.744,1.615,3.878
			c0.345,0.611,0.111,1.016-0.197,1.092c-0.339,0.084-0.489-0.084-0.571-0.307c-0.061-0.166,0.078-0.364,0.243-0.412
			c0.165-0.048,0.301,0.072,0.255,0.18c-0.37-0.064-0.375,0.4-0.063,0.371c0.407-0.042,0.424-0.534,0.213-0.686
			c-0.21-0.15-0.578-0.079-0.657,0.096c0.029-0.166,0.043-0.403,0.002-0.638c-0.014-0.081-0.024-0.403,0.06-0.49
			c-0.081-0.022-0.21,0.07-0.182,0.126c-0.098-0.181-0.252-0.33-0.491-0.401c0.356,0.481,0.434,0.967,0.318,1.38
			c-0.146,0.516,0.12,1.268,0.958,1.03c0.795-0.225,0.812-1.003,0.13-1.965c-0.678-0.957-2.042-2.616-1.354-3.071
			c0.24-0.158,0.641,0.007,0.889,0.336c0.087,0.116,0.038,0.171-0.088,0.191c-0.041,0.005-0.151,0.022-0.255,0.038l-0.009-0.055
			c-0.033-0.211-0.242-0.178-0.209,0.033l0.009,0.056c-0.077,0.011-0.118,0.091-0.112,0.13c0.005,0.037,0.07,0.102,0.146,0.09
			l0.008,0.055c0.033,0.212,0.243,0.179,0.21-0.033l-0.009-0.055c0.105-0.016,0.352-0.055,0.393-0.061
			c0.057-0.01,0.112,0.015,0.125,0.101c0.058,0.367,0.102,0.649,0.137,0.877c0.013,0.083-0.271,0.091-0.281-0.095
			c-0.003-0.076-0.061-0.089-0.085-0.049c-0.225,0.352,0.311,0.467,0.398,0.352c0.037,0.233,0.063,0.396,0.083,0.53
			c0.057,0.366,0.454,0.304,0.396-0.063c-0.021-0.134-0.046-0.296-0.083-0.53c0.118,0.083,0.594-0.189,0.272-0.457
			c-0.036-0.029-0.086-0.001-0.066,0.074c0.048,0.18-0.226,0.258-0.239,0.176c-0.035-0.229-0.08-0.511-0.137-0.878
			c-0.013-0.086,0.031-0.125,0.088-0.133c0.042-0.007,0.289-0.046,0.393-0.063l0.008,0.056c0.033,0.211,0.243,0.178,0.21-0.033
			l-0.008-0.055c0.076-0.013,0.118-0.093,0.112-0.132c-0.006-0.037-0.07-0.102-0.147-0.09l-0.009-0.056
			c-0.033-0.209-0.243-0.176-0.21,0.033l0.009,0.056c-0.104,0.017-0.214,0.034-0.255,0.041c-0.126,0.019-0.19-0.018-0.142-0.156
			c0.135-0.388,0.467-0.667,0.744-0.59c0.793,0.223,0,2.221-0.354,3.338c-0.355,1.123-0.101,1.86,0.724,1.831
			c0.871-0.03,0.895-0.826,0.598-1.274c-0.236-0.356-0.312-0.842-0.119-1.41c-0.205,0.141-0.307,0.33-0.344,0.532
			c0.009-0.062-0.141-0.109-0.212-0.063c0.107,0.058,0.196,0.365,0.207,0.448c0.033,0.236,0.118,0.457,0.197,0.605
			c-0.128-0.143-0.5-0.098-0.655,0.109c-0.155,0.209,0.013,0.674,0.412,0.588c0.306-0.066,0.159-0.507-0.173-0.334
			c-0.077-0.089,0.016-0.243,0.187-0.249C8.814,33.315,9.007,33.464,9,33.641c-0.01,0.237-0.102,0.443-0.449,0.467
			c-0.318,0.021-0.664-0.293-0.521-0.98c0.265-1.276,1.466-3.764,0.354-4.186C7.511,28.61,7.068,29.621,7.123,29.974z"/>
	</g>
	<g>
		<path fill="#FFF100" d="M8.227,37.038c0.225,0.185,0.517,0.159,0.699-0.03c0.376-0.393-0.219-0.753-0.467-1.243
			c-0.315-0.625-0.223-1.02,0.175-1.131c0.335-0.095,0.488,0.083,0.57,0.308c0.06,0.165-0.079,0.364-0.243,0.413
			c-0.164,0.045-0.301-0.074-0.255-0.181c0.37,0.063,0.375-0.402,0.063-0.371c-0.406,0.04-0.424,0.534-0.213,0.685
			c0.212,0.151,0.579,0.079,0.657-0.096c-0.029,0.166-0.043,0.402-0.002,0.638c0.015,0.083,0.024,0.402-0.06,0.489
			c0.082,0.022,0.21-0.067,0.182-0.125c0.098,0.182,0.253,0.331,0.491,0.402c-0.357-0.481-0.434-0.968-0.317-1.379
			c0.146-0.518-0.12-1.269-0.958-1.032c-0.794,0.225-0.828,1.057-0.017,2.122c0.272,0.357-0.234,0.47-0.36,0.159
			c-0.026,0.336-0.543,0.382-0.393-0.042c0.446-1.261,0.162-2.043-0.665-2.016c-0.87,0.031-0.894,0.827-0.597,1.276
			c0.236,0.355,0.312,0.842,0.119,1.409c0.205-0.14,0.306-0.329,0.344-0.531c-0.01,0.063,0.141,0.108,0.21,0.063
			c-0.106-0.059-0.195-0.366-0.206-0.45c-0.032-0.235-0.118-0.456-0.196-0.604c0.127,0.142,0.5,0.099,0.654-0.109
			c0.155-0.209-0.011-0.673-0.413-0.588c-0.306,0.065-0.159,0.507,0.174,0.335c0.076,0.087-0.017,0.243-0.188,0.248
			c-0.171,0.005-0.365-0.142-0.358-0.319c0.01-0.237,0.103-0.453,0.45-0.466c0.412-0.015,0.619,0.332,0.51,1.024
			c-0.086,0.543-0.543,1.068-0.065,1.325C7.785,37.348,8.07,37.281,8.227,37.038z"/>
	</g>
	<g>
		<path fill="#FFF100" d="M6.83,28.096c0.055,0.352-0.39,1.361-1.262,1.031c-1.111-0.422,0.089-2.911,0.354-4.186
			c0.143-0.688-0.204-1.002-0.52-0.981c-0.349,0.025-0.44,0.229-0.45,0.468c-0.007,0.176,0.187,0.323,0.357,0.318
			c0.171-0.006,0.264-0.162,0.188-0.249c-0.333,0.173-0.479-0.268-0.174-0.333c0.4-0.086,0.568,0.377,0.413,0.586
			c-0.155,0.208-0.527,0.253-0.655,0.109c0.079,0.15,0.165,0.37,0.196,0.605c0.012,0.084,0.101,0.391,0.206,0.45
			c-0.07,0.046-0.221-0.001-0.211-0.064c-0.037,0.202-0.139,0.391-0.344,0.532c0.193-0.566,0.117-1.053-0.119-1.411
			c-0.296-0.446-0.272-1.244,0.598-1.272c0.826-0.029,1.079,0.708,0.724,1.832c-0.354,1.115-1.146,3.113-0.354,3.336
			c0.277,0.077,0.609-0.201,0.745-0.591c0.048-0.138-0.017-0.174-0.143-0.153c-0.04,0.007-0.15,0.022-0.255,0.039l0.008,0.056
			c0.033,0.21-0.177,0.243-0.209,0.032l-0.009-0.054c-0.076,0.011-0.14-0.054-0.146-0.092c-0.006-0.038,0.035-0.118,0.112-0.129
			L5.872,27.92c-0.033-0.212,0.177-0.244,0.209-0.033l0.009,0.056c0.104-0.016,0.352-0.055,0.393-0.062
			c0.057-0.01,0.102-0.049,0.089-0.134c-0.058-0.367-0.102-0.651-0.138-0.879c-0.012-0.081-0.286-0.003-0.238,0.177
			c0.02,0.073-0.031,0.104-0.067,0.073c-0.321-0.267,0.154-0.541,0.273-0.455c-0.037-0.235-0.063-0.396-0.083-0.533
			c-0.057-0.365,0.339-0.428,0.396-0.062c0.021,0.136,0.047,0.298,0.083,0.532c0.087-0.117,0.624,0,0.398,0.351
			c-0.025,0.039-0.082,0.027-0.085-0.05c-0.01-0.187-0.293-0.177-0.281-0.096c0.036,0.228,0.08,0.513,0.138,0.879
			c0.013,0.086,0.067,0.11,0.125,0.101c0.042-0.007,0.288-0.045,0.393-0.063l-0.009-0.054c-0.033-0.211,0.178-0.243,0.21-0.034
			l0.008,0.057c0.076-0.013,0.141,0.051,0.147,0.09c0.006,0.037-0.036,0.118-0.112,0.131l0.008,0.054
			c0.033,0.211-0.177,0.244-0.21,0.033l-0.008-0.055c-0.104,0.017-0.215,0.033-0.256,0.04c-0.126,0.02-0.175,0.074-0.087,0.189
			c0.248,0.329,0.648,0.493,0.889,0.336c0.687-0.454-0.677-2.115-1.355-3.071c-0.682-0.96-0.664-1.739,0.131-1.964
			c0.838-0.238,1.103,0.514,0.958,1.03c-0.116,0.412-0.04,0.898,0.317,1.38c-0.239-0.072-0.393-0.221-0.492-0.401
			c0.029,0.057-0.099,0.146-0.182,0.124c0.084-0.088,0.075-0.406,0.06-0.49c-0.041-0.234-0.027-0.471,0.002-0.637
			c-0.079,0.176-0.445,0.247-0.657,0.096c-0.211-0.151-0.193-0.644,0.213-0.684C7.375,23.861,7.37,24.325,7,24.262
			c-0.045,0.106,0.09,0.228,0.255,0.182c0.164-0.049,0.303-0.247,0.243-0.414c-0.083-0.224-0.233-0.39-0.571-0.307
			C6.619,23.8,6.385,24.202,6.73,24.815c0.642,1.133,2.545,3.136,1.615,3.877C7.615,29.273,6.885,28.447,6.83,28.096z"/>
	</g>
	<g>
		<path fill="#FFF100" d="M5.125,17.193c0.055,0.352-0.389,1.362-1.261,1.032c-1.111-0.422,0.088-2.91,0.354-4.187
			c0.142-0.686-0.204-1-0.521-0.979c-0.348,0.023-0.44,0.229-0.45,0.467c-0.007,0.175,0.187,0.324,0.358,0.318
			c0.171-0.004,0.264-0.161,0.188-0.248c-0.333,0.171-0.479-0.27-0.173-0.334c0.401-0.085,0.567,0.379,0.412,0.587
			c-0.155,0.207-0.527,0.251-0.655,0.109c0.079,0.149,0.165,0.371,0.196,0.605c0.012,0.083,0.101,0.391,0.207,0.449
			C3.71,15.06,3.56,15.011,3.57,14.95c-0.038,0.201-0.14,0.39-0.345,0.531c0.193-0.568,0.117-1.054-0.118-1.41
			c-0.296-0.449-0.273-1.245,0.597-1.275c0.826-0.029,1.08,0.709,0.724,1.832c-0.354,1.118-1.146,3.115-0.354,3.337
			c0.277,0.078,0.61-0.201,0.745-0.589c0.048-0.139-0.017-0.175-0.143-0.155c-0.041,0.006-0.151,0.024-0.255,0.041l0.008,0.055
			c0.033,0.21-0.177,0.243-0.209,0.033L4.21,17.293c-0.076,0.012-0.14-0.052-0.146-0.09c-0.006-0.039,0.036-0.119,0.112-0.131
			l-0.009-0.056c-0.033-0.21,0.177-0.243,0.209-0.032l0.009,0.055c0.104-0.016,0.352-0.055,0.393-0.062
			c0.057-0.008,0.102-0.047,0.088-0.134c-0.058-0.366-0.102-0.649-0.137-0.877c-0.013-0.083-0.286-0.004-0.238,0.176
			c0.02,0.074-0.031,0.103-0.067,0.073C4.104,15.95,4.58,15.676,4.699,15.76c-0.037-0.234-0.062-0.396-0.083-0.532
			c-0.057-0.366,0.339-0.427,0.396-0.062c0.021,0.136,0.047,0.298,0.083,0.532c0.087-0.116,0.624-0.001,0.398,0.351
			C5.469,16.088,5.412,16.076,5.409,16c-0.011-0.186-0.294-0.178-0.281-0.095c0.036,0.228,0.08,0.511,0.137,0.877
			c0.013,0.086,0.067,0.109,0.125,0.101c0.042-0.007,0.289-0.045,0.393-0.062l-0.008-0.055c-0.033-0.21,0.177-0.244,0.209-0.033
			l0.009,0.055c0.076-0.012,0.141,0.052,0.147,0.09s-0.036,0.118-0.112,0.13l0.008,0.055c0.033,0.211-0.177,0.243-0.209,0.033
			l-0.009-0.056c-0.104,0.016-0.214,0.033-0.255,0.04c-0.126,0.02-0.176,0.073-0.088,0.191c0.248,0.329,0.649,0.493,0.889,0.334
			c0.687-0.454-0.677-2.113-1.355-3.07c-0.681-0.961-0.664-1.741,0.131-1.966c0.838-0.236,1.104,0.514,0.958,1.032
			c-0.116,0.411-0.04,0.897,0.317,1.38c-0.238-0.073-0.393-0.222-0.491-0.401c0.028,0.055-0.1,0.146-0.182,0.124
			c0.084-0.088,0.075-0.408,0.06-0.491c-0.04-0.233-0.026-0.47,0.003-0.637c-0.079,0.175-0.446,0.246-0.657,0.095
			c-0.211-0.15-0.193-0.644,0.213-0.684c0.312-0.031,0.307,0.434-0.063,0.371c-0.046,0.106,0.09,0.227,0.255,0.179
			c0.165-0.047,0.303-0.247,0.243-0.412c-0.083-0.224-0.232-0.392-0.571-0.308c-0.309,0.076-0.542,0.481-0.197,1.092
			c0.642,1.134,2.545,3.138,1.615,3.878C5.911,18.372,5.181,17.545,5.125,17.193z"/>
	</g>
	<g>
		<path fill="#FFF100" d="M4.021,10.128c0.157-0.245,0.442-0.309,0.675-0.184c0.478,0.258,0.02,0.781-0.066,1.326
			c-0.109,0.692,0.099,1.038,0.511,1.024c0.349-0.013,0.44-0.228,0.45-0.467c0.007-0.175-0.187-0.324-0.358-0.318
			c-0.17,0.005-0.263,0.161-0.187,0.248c0.333-0.172,0.479,0.268,0.173,0.333c-0.399,0.085-0.567-0.378-0.412-0.586
			c0.156-0.208,0.527-0.252,0.655-0.109c-0.079-0.15-0.165-0.371-0.197-0.606c-0.011-0.083-0.1-0.391-0.207-0.449
			c0.071-0.045,0.221,0.001,0.211,0.063c0.038-0.202,0.14-0.39,0.345-0.532c-0.193,0.569-0.117,1.055,0.119,1.41
			c0.296,0.449,0.273,1.245-0.598,1.274c-0.825,0.029-1.11-0.753-0.663-2.015c0.149-0.424-0.367-0.377-0.393-0.041
			c-0.127-0.313-0.633-0.199-0.361,0.159c0.81,1.065,0.778,1.896-0.018,2.122c-0.837,0.237-1.103-0.514-0.957-1.032
			c0.116-0.411,0.039-0.897-0.318-1.379c0.238,0.072,0.393,0.221,0.491,0.402c-0.029-0.056,0.101-0.147,0.182-0.125
			c-0.083,0.087-0.074,0.408-0.06,0.491c0.041,0.234,0.027,0.471-0.002,0.637c0.079-0.175,0.447-0.247,0.657-0.095
			c0.211,0.151,0.194,0.643-0.213,0.684c-0.312,0.03-0.306-0.434,0.063-0.371c0.045-0.106-0.091-0.226-0.256-0.18
			c-0.164,0.047-0.303,0.247-0.242,0.413c0.082,0.224,0.235,0.401,0.57,0.307c0.396-0.111,0.489-0.505,0.174-1.13
			c-0.249-0.492-0.843-0.852-0.466-1.242C3.505,9.969,3.797,9.943,4.021,10.128z"/>
	</g>
	<g>
		<path fill="#FFF100" d="M5.419,19.071c-0.055-0.352-0.787-1.178-1.516-0.598c-0.93,0.74,0.972,2.744,1.615,3.878
			c0.345,0.611,0.111,1.015-0.197,1.093c-0.338,0.083-0.488-0.085-0.571-0.309c-0.06-0.166,0.079-0.366,0.244-0.411
			c0.165-0.047,0.301,0.072,0.255,0.178c-0.37-0.063-0.375,0.401-0.064,0.371c0.408-0.04,0.425-0.533,0.213-0.685
			c-0.21-0.15-0.578-0.078-0.657,0.096c0.03-0.166,0.044-0.402,0.002-0.637c-0.014-0.082-0.024-0.402,0.06-0.49
			c-0.081-0.022-0.21,0.068-0.182,0.124c-0.097-0.18-0.252-0.329-0.49-0.4c0.356,0.481,0.433,0.968,0.317,1.379
			c-0.146,0.518,0.12,1.268,0.958,1.031c0.796-0.226,0.813-1.004,0.131-1.966c-0.678-0.956-2.042-2.616-1.355-3.069
			c0.24-0.159,0.641,0.005,0.889,0.334c0.088,0.118,0.038,0.171-0.088,0.19c-0.041,0.007-0.151,0.024-0.255,0.041l-0.008-0.055
			c-0.033-0.211-0.243-0.178-0.21,0.033l0.009,0.055c-0.076,0.011-0.118,0.093-0.111,0.131c0.005,0.038,0.07,0.102,0.146,0.09
			l0.008,0.055c0.033,0.21,0.243,0.178,0.21-0.033l-0.009-0.055c0.105-0.016,0.353-0.055,0.393-0.061
			c0.057-0.009,0.112,0.014,0.126,0.1c0.057,0.366,0.101,0.649,0.137,0.877c0.013,0.083-0.271,0.091-0.281-0.094
			c-0.004-0.077-0.06-0.09-0.085-0.051c-0.225,0.353,0.311,0.469,0.398,0.352c0.037,0.234,0.062,0.396,0.083,0.532
			c0.058,0.366,0.454,0.304,0.397-0.063c-0.021-0.135-0.047-0.297-0.083-0.531c0.119,0.084,0.594-0.19,0.272-0.457
			c-0.035-0.029-0.086,0-0.066,0.075c0.048,0.18-0.226,0.258-0.239,0.175c-0.035-0.227-0.08-0.511-0.137-0.876
			c-0.013-0.086,0.031-0.125,0.088-0.134c0.042-0.006,0.288-0.044,0.394-0.061l0.008,0.054c0.033,0.21,0.243,0.177,0.209-0.033
			l-0.008-0.055c0.077-0.012,0.119-0.093,0.112-0.131c-0.005-0.038-0.07-0.102-0.146-0.09l-0.009-0.055
			c-0.033-0.21-0.243-0.178-0.209,0.033l0.008,0.055c-0.104,0.016-0.214,0.033-0.255,0.04c-0.126,0.02-0.19-0.016-0.142-0.154
			c0.135-0.389,0.468-0.668,0.745-0.59c0.792,0.222,0,2.219-0.354,3.337c-0.355,1.123-0.102,1.859,0.724,1.831
			c0.871-0.029,0.895-0.825,0.598-1.273c-0.236-0.356-0.312-0.843-0.119-1.411c-0.205,0.141-0.307,0.33-0.345,0.532
			c0.01-0.062-0.141-0.109-0.211-0.063c0.107,0.057,0.195,0.364,0.207,0.448c0.033,0.234,0.118,0.455,0.197,0.605
			c-0.128-0.143-0.5-0.098-0.655,0.109c-0.155,0.208,0.013,0.672,0.413,0.586c0.306-0.065,0.16-0.504-0.173-0.333
			c-0.076-0.087,0.017-0.243,0.188-0.249c0.171-0.005,0.365,0.144,0.357,0.318c-0.009,0.239-0.102,0.443-0.449,0.468
			c-0.318,0.021-0.663-0.292-0.521-0.979c0.265-1.276,1.466-3.765,0.354-4.186C5.807,17.708,5.364,18.719,5.419,19.071z"/>
	</g>
</g>
</svg>
