<?xml version="1.0" encoding="utf-8"?>
<!-- Generator: Adobe Illustrator 15.1.0, SVG Export Plug-In . SVG Version: 6.00 Build 0)  -->
<!DOCTYPE svg PUBLIC "-//W3C//DTD SVG 1.1//EN" "http://www.w3.org/Graphics/SVG/1.1/DTD/svg11.dtd">
<svg version="1.1" id="Layer_1" xmlns="http://www.w3.org/2000/svg" xmlns:xlink="http://www.w3.org/1999/xlink" x="0px" y="0px"
	 width="50.813px" height="40.107px" viewBox="0 0 50.813 40.107" enable-background="new 0 0 50.813 40.107" xml:space="preserve">
<path fill="#666666" d="M48.152,5.342l2.51,29.782c0,0-5.809-2.703-11.57-1.18s-15.904,4.888-19.185,5.617
	c-3.28,0.73-8.504,0.688-10.671,0.104C7.073,39.08,7.073,39.08,7.073,39.08L4.185,10.059c0,0,4.009,1.556,10.735,0.514
	c6.726-1.041,14.159-5.639,21.232-6.045C43.227,4.117,44.209,4.404,48.152,5.342z"/>
<path fill="#D62612" d="M43.617,0.614l5.072,29.455c0,0-6.02-2.191-11.629-0.177c-5.607,2.016-15.423,6.243-18.627,7.253
	c-3.205,1.012-8.413,1.422-10.623,1.025c-2.205-0.396-2.205-0.396-2.205-0.396L0.33,9.169c0,0,4.31,1.786,10.92,0.167
	c6.611-1.619,13.426-6.422,20.438-7.438C38.699,0.879,39.607,0.02,43.617,0.614z"/>
<path fill="#FFFFFF" d="M13.492,20.297l24.055-6.227l8.58,1.114l-2.51-14.571c-4.01-0.594-5.014-0.795-12.025,0.225
	C24.58,1.854,17.571,7.076,10.96,8.695C4.35,10.314,0.135,8.114,0.135,8.114l2.341,12.69L13.492,20.297z"/>
<path fill="#0039A6" d="M45.063,8.648c0,0-5.344-1.656-11.719,0.031S23.25,12.461,23.25,12.461s-8.003,3.178-9.313,3.563
	c-7.875,2.313-12.672-0.087-12.332,0.254c0.07,0.07,1.824,9.998,1.824,9.998s4.82,1.748,11.883-0.127s15.515-6.291,20.438-7.5
	c3.563-0.875,6.738-0.603,7.813-0.5c1.627,0.156,3.226,0.879,3.226,0.879L45.063,8.648z"/>
<path fill="#FFFFFF" d="M7.064,14.031c0,0,0.898,5.622,0.932,6.127c0.034,0.506,0.822,5.682,4.272,8.303
	c3.349,2.545,6.099,2.647,6.099,2.647s2.405-1.491,3.713-3.496c1.309-2.006,1.862-4.439,2.003-5.711
	c0.104-0.934-0.192-3.677-1.339-7.661c-0.952-3.307-0.835-3.157-0.835-3.157L7.064,14.031z"/>
<path fill="#D62612" d="M21.454,11.427c0.673,2.571,1.733,6.506,2.053,8.502c0.231,1.447,0.379,6.875-5.249,10.652
	c-6.672-1.192-8.721-6.221-9.091-7.639c-0.511-1.956-1.125-5.985-1.542-8.609L21.454,11.427z"/>
<path fill="#FFFFFF" d="M14.696,13.628c0.239-0.05,0.798-0.159,0.994-0.259c-0.061,0.663,0.028,1.875,0.212,2.751
	c0.758,0.041,2.42-0.675,2.896-1.024c0.063,0.619,0.25,1.744,0.561,2.195c-0.738-0.111-1.744-0.067-3.162,0.231
	c0.067,0.319,0.328,1.562,0.382,1.817c1.209-0.104,3.191-0.887,3.724-1.198c-0.01,0.667,0.208,1.703,0.407,2.177
	c-0.938-0.186-2.669,0.045-3.864,0.296c0.08,0.382,0.609,2.899,0.609,2.899c-0.182-0.036-0.446-0.064-0.686-0.014
	c-0.238,0.05-0.469,0.182-0.621,0.289c0,0-0.529-2.518-0.609-2.9c-1.195,0.251-2.873,0.736-3.656,1.284
	c-0.008-0.514-0.226-1.55-0.503-2.157c0.614,0.071,2.743-0.011,3.892-0.401c-0.054-0.255-0.315-1.498-0.382-1.817
	c-1.418,0.298-2.357,0.662-2.988,1.061c0.103-0.538-0.179-1.643-0.37-2.235c0.576,0.129,2.386,0.114,3.063-0.227
	c-0.184-0.877-0.591-2.022-0.913-2.604C13.901,13.804,14.457,13.679,14.696,13.628z"/>
<path fill="#0039A6" d="M18.257,30.581c2.621-1.759,3.989-3.875,4.679-5.781c-0.468-0.702-1.228-1.19-2.08-1.012
	c-0.853,0.18-1.214,0.913-1.43,1.349c-0.663-1.134-1.716-1.827-2.656-1.629c-0.94,0.197-1.624,1.256-1.774,2.56
	c-0.374-0.313-1-0.838-1.853-0.659c-0.852,0.179-1.352,0.933-1.497,1.764C13.046,28.639,15.15,30.024,18.257,30.581z"/>
</svg>
