<?xml version="1.0" encoding="utf-8"?>
<!-- Generator: Adobe Illustrator 15.1.0, SVG Export Plug-In . SVG Version: 6.00 Build 0)  -->
<!DOCTYPE svg PUBLIC "-//W3C//DTD SVG 1.1//EN" "http://www.w3.org/Graphics/SVG/1.1/DTD/svg11.dtd">
<svg version="1.1" id="Layer_1" xmlns="http://www.w3.org/2000/svg" xmlns:xlink="http://www.w3.org/1999/xlink" x="0px" y="0px"
	 width="50.813px" height="40.107px" viewBox="0 0 50.813 40.107" enable-background="new 0 0 50.813 40.107" xml:space="preserve">
<path fill="#666666" d="M48.152,5.342l2.51,29.782c0,0-5.809-2.703-11.57-1.18s-15.904,4.888-19.185,5.617
	c-3.28,0.73-8.504,0.688-10.671,0.104C7.073,39.08,7.073,39.08,7.073,39.08L4.185,10.059c0,0,4.009,1.556,10.735,0.514
	c6.726-1.041,14.159-5.639,21.232-6.045C43.227,4.117,44.209,4.404,48.152,5.342z"/>
<path fill="#62BA46" d="M43.646,0.779l5.044,29.289c0,0-6.02-2.191-11.629-0.177c-5.607,2.016-15.423,6.243-18.627,7.253
	c-3.205,1.012-8.413,1.422-10.623,1.025c-2.205-0.396-2.205-0.396-2.205-0.396l-5.23-29.25c0,0,3.975,2.244,10.585,0.625
	c6.611-1.619,13.62-6.797,20.632-7.813C38.604,0.316,39.636,0.186,43.646,0.779z"/>
<path fill="#ED334E" d="M13.492,20.297l24.055-6.227l8.58,1.114l-2.51-14.571c-4.01-0.594-5.014-0.795-12.025,0.225
	C24.58,1.854,17.571,7.076,10.96,8.695C4.35,10.314,0.135,8.114,0.135,8.114l2.341,12.69L13.492,20.297z"/>
<path fill="#FFFFFF" d="M44.611,6.383c0,0-4.893-1.391-11.268,0.297s-12.543,5.469-19.406,7.344
	C6.02,16.187,1.266,15.937,1.605,16.277c0.07,0.07,2.626,14.871,2.626,14.871s4.352,1.709,11.415-0.166s15.327-6.041,20.25-7.25
	c3.563-0.875,6.593-0.938,7.667-0.834c1.627,0.156,4.013,0.696,4.013,0.696L44.611,6.383z"/>
<g>
	<polygon fill="#F2CD1E" points="21.33,13.629 21.381,14.291 20.742,14.524 21.401,14.665 21.392,15.344 21.744,14.762 
		22.387,14.98 21.943,14.462 22.356,13.935 21.719,14.167 	"/>
	<polygon fill="#F2CD1E" points="18.701,15.509 18.753,16.17 18.113,16.404 18.773,16.545 18.764,17.222 19.114,16.642 
		19.759,16.859 19.314,16.342 19.727,15.814 19.089,16.047 	"/>
	<polygon fill="#F2CD1E" points="17.416,18.474 17.468,19.135 16.828,19.369 17.488,19.509 17.479,20.188 17.83,19.607 
		18.474,19.824 18.029,19.306 18.441,18.779 17.804,19.012 	"/>
	<polygon fill="#F2CD1E" points="17.843,21.677 17.895,22.338 17.255,22.571 17.915,22.712 17.905,23.391 18.256,22.81 18.9,23.027 
		18.456,22.509 18.868,21.982 18.23,22.215 	"/>
	<path fill="#F2CD1E" d="M24.889,23.369c0.318-0.116,0.439-0.458,0.528-0.527c0.088-0.07,0.086-0.126-0.051-0.12
		c-0.072,0.002-0.297,0.069-0.396,0.143c-0.046-0.14-0.315-0.428-0.464-0.544c-0.04,0.186-0.06,0.579-0.004,0.716
		c-0.124,0.008-0.339,0.101-0.396,0.146c-0.108,0.085-0.072,0.128,0.04,0.124C24.258,23.303,24.571,23.486,24.889,23.369z"/>
	<path fill="#F2CD1E" d="M22.521,24.574c0.298-0.161,0.368-0.516,0.444-0.599c0.078-0.083,0.068-0.139-0.066-0.111
		c-0.072,0.014-0.284,0.112-0.371,0.201c-0.066-0.135-0.375-0.378-0.539-0.471c-0.013,0.188,0.025,0.58,0.101,0.708
		c-0.122,0.025-0.321,0.149-0.371,0.2c-0.094,0.101-0.053,0.139,0.058,0.119C21.887,24.602,22.224,24.735,22.521,24.574z"/>
	<path fill="#F2CD1E" d="M23.934,20.755c0.838,1.361,2.524,1.896,3.1-0.16c0.948,1.626,2.588,1,2.707-0.269
		c-0.713,0.817-1.839,0.951-2.75,0.083c-0.429,1.042-1.839,1.09-2.528,0.519c-0.688-0.57-1.112-2.007-1.041-2.4
		c0.072-0.392,0.555-0.557,0.896-0.352c-0.194-0.877-0.94-1.224-1.676-0.955c-0.735,0.269-1.082,1.015-0.665,1.81
		c0.128-0.375,0.603-0.561,0.911-0.308c0.308,0.254,0.91,1.626,0.751,2.506c-0.159,0.879-1.268,1.751-2.266,1.232
		c-0.137,1.252-1.084,1.875-2.156,1.711c0.909,0.894,2.567,0.313,2.243-1.54C23.226,23.831,24.17,22.337,23.934,20.755z"/>
	<path fill="#F2CD1E" d="M25.046,23.799c1.237-0.454,3.336-0.866,4.21-0.894l0.063,0.518c-0.934,0.061-2.903,0.456-4.085,0.888
		c-1.182,0.433-2.943,1.399-3.696,1.956L21.25,25.83C21.938,25.288,23.808,24.25,25.046,23.799z"/>
	<polygon fill="#F2CD1E" points="24.55,13.371 24.937,13.91 25.576,13.676 25.163,14.209 25.608,14.721 24.964,14.504 
		24.613,15.085 24.619,14.403 23.963,14.266 24.601,14.033 	"/>
	<polygon fill="#F2CD1E" points="27.444,14.809 27.83,15.348 28.471,15.114 28.058,15.646 28.503,16.159 27.858,15.942 
		27.508,16.522 27.512,15.84 26.856,15.704 27.495,15.471 	"/>
	<polygon fill="#F2CD1E" points="29.184,17.532 29.57,18.071 30.209,17.837 29.796,18.37 30.239,18.883 29.598,18.666 
		29.246,19.246 29.252,18.563 28.597,18.427 29.234,18.194 	"/>
	<path fill="#F2CD1E" d="M27.477,22.765c-0.332,0.067-0.615-0.158-0.728-0.172c-0.111-0.014-0.14-0.063-0.02-0.129
		c0.063-0.035,0.289-0.096,0.412-0.085c-0.035-0.145,0.042-0.531,0.109-0.707c0.13,0.137,0.354,0.459,0.379,0.606
		c0.109-0.059,0.342-0.093,0.413-0.085c0.137,0.015,0.13,0.07,0.033,0.126C27.977,22.376,27.808,22.695,27.477,22.765z"/>
</g>
</svg>
