<?xml version="1.0" encoding="utf-8"?>
<!-- Generator: Adobe Illustrator 15.1.0, SVG Export Plug-In . SVG Version: 6.00 Build 0)  -->
<!DOCTYPE svg PUBLIC "-//W3C//DTD SVG 1.1//EN" "http://www.w3.org/Graphics/SVG/1.1/DTD/svg11.dtd">
<svg version="1.1" id="Layer_1" xmlns="http://www.w3.org/2000/svg" xmlns:xlink="http://www.w3.org/1999/xlink" x="0px" y="0px"
	 width="50.813px" height="40.107px" viewBox="0 0 50.813 40.107" enable-background="new 0 0 50.813 40.107" xml:space="preserve">
<path fill="#666666" d="M48.152,5.342l2.51,29.782c0,0-5.809-2.703-11.57-1.18s-15.904,4.888-19.185,5.617
	c-3.28,0.73-8.504,0.688-10.671,0.104C7.073,39.08,7.073,39.08,7.073,39.08L4.185,10.059c0,0,4.009,1.556,10.735,0.514
	c6.726-1.041,14.159-5.639,21.232-6.045C43.227,4.117,44.209,4.404,48.152,5.342z"/>
<path fill="#EC1C2E" d="M43.617,0.614l5.072,29.455c0,0-6.02-2.191-11.629-0.177c-5.607,2.016-15.423,6.243-18.627,7.253
	c-3.205,1.012-8.413,1.422-10.623,1.025c-2.205-0.396-2.205-0.396-2.205-0.396L0.135,8.114c0,0,4.215,2.2,10.825,0.581
	c6.611-1.619,13.62-6.841,20.632-7.857C38.604-0.181,39.607,0.02,43.617,0.614z"/>
<polygon fill="#FFFFFF" points="26.979,16.607 29.729,14.607 28.396,17.482 30.438,18.94 27.646,19.193 26.271,22.107 
	25.813,19.482 23.229,19.648 25.604,17.732 25.104,15.065 "/>
<path fill="#FFFFFF" d="M19.146,27.398c-3.429,0-6.208-2.779-6.208-6.208c0-3.43,2.779-6.208,6.208-6.208
	c1.27,0,2.449,0.383,3.433,1.037c-1.447-1.439-3.439-2.329-5.641-2.329c-4.417,0-8,3.582-8,8c0,4.417,3.582,8,8,8
	c3.472,0,6.418-2.216,7.525-5.307C23.376,26.188,21.405,27.398,19.146,27.398z"/>
</svg>
