<?xml version="1.0" encoding="utf-8"?>
<!-- Generator: Adobe Illustrator 15.1.0, SVG Export Plug-In . SVG Version: 6.00 Build 0)  -->
<!DOCTYPE svg PUBLIC "-//W3C//DTD SVG 1.1//EN" "http://www.w3.org/Graphics/SVG/1.1/DTD/svg11.dtd">
<svg version="1.1" id="Layer_1" xmlns="http://www.w3.org/2000/svg" xmlns:xlink="http://www.w3.org/1999/xlink" x="0px" y="0px"
	 width="50.813px" height="40.107px" viewBox="0 0 50.813 40.107" enable-background="new 0 0 50.813 40.107" xml:space="preserve">
<path fill="#666666" d="M48.152,5.342l2.51,29.782c0,0-5.809-2.703-11.57-1.18s-15.904,4.888-19.185,5.617
	c-3.28,0.73-8.504,0.688-10.671,0.104C7.073,39.08,7.073,39.08,7.073,39.08L4.185,10.059c0,0,4.009,1.556,10.735,0.514
	c6.726-1.041,14.159-5.639,21.232-6.045C43.227,4.117,44.209,4.404,48.152,5.342z"/>
<path fill="#4D8FCC" d="M43.617,0.614l5.072,29.455c0,0-6.02-2.191-11.629-0.177c-5.607,2.016-15.423,6.243-18.627,7.253
	c-3.205,1.012-8.413,1.422-10.623,1.025c-2.205-0.396-2.205-0.396-2.205-0.396L0.135,8.114c0,0,4.215,2.2,10.825,0.581
	c6.611-1.619,13.62-6.841,20.632-7.857C38.604-0.181,39.607,0.02,43.617,0.614z"/>
<g>
	<g>
		<path fill="#FFFFFF" d="M21.615,19.39c0.108,0.037,0.192,0.099,0.174,0.228c-0.006,0.044-0.004,0.079,0.008,0.101
			c0.013,0.021,0.014,0.036,0.009,0.055c-0.006,0.02-0.002,0.041,0.013,0.051c0.014,0.01,0.02,0.034,0.02,0.054
			c0,0.021,0.014,0.048,0.04,0.054c0.025,0.007,0.02,0.045-0.006,0.028c-0.042-0.027-0.065,0.008-0.094-0.026
			c-0.087-0.103-0.08-0.157-0.091-0.24c-0.011-0.083-0.029-0.178-0.083-0.23C21.55,19.412,21.586,19.38,21.615,19.39z"/>
		<path fill="#FFFFFF" d="M21.617,19.797c-0.031-0.024-0.055-0.006-0.041,0.027c0.013,0.033,0.059,0.083,0.086,0.086
			c0.027,0.003,0.025-0.02,0.007-0.04C21.637,19.833,21.625,19.805,21.617,19.797z"/>
		<path fill="#FFFFFF" d="M21.897,19.842c0.003,0.023,0.025,0.031,0.04,0.016c0.014-0.015,0.009-0.033-0.009-0.036
			C21.909,19.818,21.895,19.828,21.897,19.842z"/>
		<path fill="#FFFFFF" d="M21.94,19.729c-0.02,0.02,0.007,0.037,0.032,0.025C21.996,19.742,21.99,19.682,21.94,19.729z"/>
		<path fill="#FFFFFF" d="M21.772,20.008c0.04,0.028,0.068,0.038,0.101,0.036c0.032-0.001,0.052,0.025,0.066,0.042
			c0.014,0.017,0.044,0.053,0.041,0.078c-0.002,0.025,0,0.055,0.009,0.078c0.009,0.023,0.024,0.064-0.049,0.032
			c-0.072-0.032-0.106-0.071-0.143-0.135c-0.037-0.064-0.048-0.087-0.059-0.105C21.729,20.014,21.748,19.99,21.772,20.008z"/>
		<path fill="#FFFFFF" d="M22.014,20.398c0.036,0.023,0.087-0.01,0.037-0.045C21.998,20.317,21.973,20.372,22.014,20.398z"/>
		<path fill="#FFFFFF" d="M22.109,20.49c-0.02,0.004-0.016,0.026,0.008,0.019S22.133,20.485,22.109,20.49z"/>
		<path fill="#FFFFFF" d="M22.2,20.594c-0.008,0.016-0.017,0.031-0.017,0.044c0,0.014,0.016,0.017,0.018,0.001
			c0.001-0.016,0.003-0.032,0.009-0.04C22.216,20.591,22.206,20.584,22.2,20.594z"/>
		<path fill="#FFFFFF" d="M22.04,20.789c-0.032,0.01-0.049,0.047-0.046,0.079c0.003,0.032,0.028,0.033,0.035,0.007
			c0.007-0.026,0.027-0.054,0.041-0.065C22.083,20.799,22.059,20.783,22.04,20.789z"/>
		<path fill="#FFFFFF" d="M21.21,19.887c0.065,0.044,0.064,0.071,0.058,0.121c-0.007,0.05,0.012,0.083,0.094,0.109
			c0.082,0.027,0.089,0.067,0.193,0.122s0.063,0.093,0.008,0.097c-0.055,0.004-0.076,0.02-0.071,0.079
			c0.005,0.059,0.029,0.068,0.129-0.014c0.067-0.056,0.1,0.013,0.104,0.055c0.004,0.042,0.006,0.076,0.046,0.094
			c0.04,0.018,0.054,0.036,0.035,0.059c-0.019,0.022,0.028,0.064,0.066,0.087c0.038,0.023,0.072,0.021,0.055,0.066
			c-0.017,0.043,0.015,0.064,0.023,0.131c0.008,0.067,0.057,0.056,0.095,0.195c0.012,0.044,0.05,0.149,0.165,0.226
			c0.114,0.078,0.126,0.13,0.17,0.229c0.043,0.099,0.042,0.107-0.032,0.191c-0.074,0.083-0.052,0.167,0.064,0.109
			c0.113-0.055,0.267-0.004,0.362,0.192c0.035,0.072,0.249,0.148,0.497,0.398c0.063,0.064,0.048,0.09,0,0.178
			c-0.048,0.086-0.115,0.104-0.142,0.1c-0.027-0.002-0.074-0.006-0.111,0.031c-0.038,0.039-0.082-0.02-0.161,0.08
			c-0.05,0.064-0.137,0.104-0.243,0.184c-0.105,0.078-0.254,0.074-0.3,0.023c-0.045-0.051-0.138-0.07-0.238-0.113
			c-0.1-0.043-0.204-0.084-0.326,0.039c-0.122,0.123-0.248,0.094-0.307,0.055c-0.059-0.037-0.119-0.063-0.262-0.063
			c-0.143,0.002-0.139-0.059-0.223-0.09c-0.055-0.02-0.088-0.051-0.083-0.131c0.006-0.078-0.068-0.096-0.083,0
			c-0.014,0.096-0.111,0.1-0.157,0.066c-0.044-0.035-0.084-0.053-0.149-0.08c-0.065-0.027-0.127-0.09-0.142-0.139
			c-0.015-0.047-0.042-0.047-0.109-0.018c-0.069,0.029-0.073-0.014-0.066-0.045c0.007-0.033-0.014-0.061-0.041-0.092
			s-0.064-0.041-0.095-0.027c-0.031,0.014-0.018,0.041,0.013,0.084c0.029,0.043-0.062,0.041-0.082,0.004
			c-0.02-0.039-0.031-0.031-0.058-0.035c-0.028-0.004-0.056-0.025-0.074-0.061c-0.019-0.031-0.076-0.018-0.066,0.025
			c0.009,0.045,0.008,0.08-0.091,0.072c-0.097-0.01-0.126-0.074-0.174-0.09c-0.048-0.016-0.06-0.051-0.113-0.018
			c-0.026,0.016-0.035,0.016-0.089-0.006c-0.09-0.037-0.112-0.096-0.142-0.195c-0.069-0.025-0.103-0.123-0.094-0.166
			c0.009-0.041,0-0.082-0.017-0.124c-0.017-0.043,0.006-0.08,0.068-0.116c0.063-0.036,0.099-0.044,0.124-0.034
			c0.024,0.01,0.059,0.008,0.071-0.009s0.042-0.03,0.073-0.058c0.03-0.026,0.054-0.06,0.028-0.077s0-0.044,0.049-0.08
			c0.049-0.036,0.084-0.047,0.167,0.009c0.083,0.057,0.122,0.015,0.181-0.016c0.06-0.031,0.21-0.062,0.321-0.082
			s0.175-0.105,0.247-0.128c0.071-0.021,0.065-0.098,0.061-0.166c-0.004-0.068-0.021-0.097-0.044-0.116
			c-0.023-0.019-0.042-0.069-0.025-0.109c0.019-0.041-0.004-0.073-0.022-0.101c-0.018-0.029-0.017-0.099-0.002-0.134
			s0.025-0.103,0.023-0.149c-0.001-0.047,0.022-0.142,0.05-0.176c0.029-0.035,0.046-0.075,0.05-0.132
			c0.009-0.12,0.12-0.145,0.228-0.148c0.107-0.002,0.236,0.023,0.298,0.043c0.062,0.02,0.091,0.001,0.146-0.049
			c0.053-0.051,0.04-0.075-0.036-0.114L21.21,19.887z"/>
		<path fill="#FFFFFF" d="M23.636,16.838c0.021-0.024-0.009-0.049,0.024-0.091c0.022-0.027,0.005-0.05,0.051-0.079
			c0.027-0.017,0.018-0.034-0.006-0.047c-0.023-0.013-0.04-0.002-0.034,0.017c0.005,0.019-0.008,0.04-0.036,0.057
			c-0.025,0.017,0.007,0.039-0.021,0.059c-0.029,0.02-0.063,0.132-0.067,0.222c-0.002,0.044-0.043,0.04-0.054,0.013
			c-0.011-0.025-0.027-0.022-0.037,0.001c-0.01,0.025,0.012,0.066,0.041,0.062c0.029-0.004,0.048,0.002,0.046,0.025
			c-0.002,0.022-0.032,0.079-0.06,0.101c-0.028,0.021-0.061,0.04-0.065,0.068c-0.005,0.027-0.024,0.05-0.054,0.051
			c-0.03,0.001-0.055,0.034-0.085,0.061c-0.031,0.027-0.103,0.044-0.159,0.059c-0.059,0.016-0.082,0.072-0.12,0.105
			c-0.037,0.033-0.157,0.066-0.224,0.073c-0.067,0.007-0.093,0.063-0.149,0.063c-0.032,0-0.061,0.028-0.089,0.006
			c-0.029-0.022-0.007-0.063,0.039-0.111c0.045-0.049-0.034-0.038-0.069-0.027c-0.035,0.011-0.084-0.021-0.168-0.039
			c-0.045-0.01-0.101-0.021-0.164-0.015c-0.063,0.007-0.075,0.054-0.137,0.051c-0.061-0.003-0.093,0.046-0.124,0.085
			c-0.032,0.04-0.134,0.089-0.183,0.095c-0.05,0.007-0.138,0.043-0.183,0.121c-0.045,0.079-0.092,0.024-0.13,0.126
			c-0.037,0.103,0.052,0.097,0.107,0.041c0.056-0.056,0.15-0.133,0.255-0.143c0.054-0.006,0.012,0.109-0.028,0.108
			c-0.039-0.001-0.109,0.094-0.144,0.079c-0.036-0.016-0.062-0.003-0.087,0.026c-0.025,0.03-0.074,0.014-0.111,0.073
			c-0.027,0.042-0.088,0.092-0.119,0.093s-0.056,0-0.086,0.043c-0.03,0.044-0.019,0.123-0.032,0.162
			c-0.015,0.039-0.043,0.1-0.036,0.136c0.006,0.037-0.006,0.067-0.022,0.098c-0.017,0.031-0.012,0.102,0.021,0.172
			c0.033,0.071,0.014,0.14-0.004,0.174c-0.019,0.035-0.028,0.078-0.057,0.133c-0.03,0.055-0.024,0.146-0.008,0.198
			c0.016,0.053,0.012,0.094-0.01,0.145c-0.058,0.128,0.014,0.1-0.025,0.271c-0.013,0.059,0.001,0.147,0.069,0.183l0.109-0.055
			c-0.066-0.045-0.111-0.178,0.028-0.229s0.133-0.08,0.109-0.194c-0.019-0.089-0.018-0.115,0.057-0.138
			c0.075-0.023,0.085-0.019,0.124-0.004c0.044,0.017,0.103-0.062,0.041-0.108c-0.062-0.045-0.029-0.099-0.104-0.101
			c-0.026,0-0.031-0.036-0.074-0.03c-0.024,0.003-0.045-0.09-0.059-0.133c-0.026-0.087,0.017-0.144,0.066-0.18
			c0.049-0.037,0.109-0.068,0.173-0.071s0.136,0.006,0.149,0.049c0.014,0.043,0.046,0.094,0.068,0.109
			c0.022,0.015,0.061,0.085,0.032,0.133c-0.028,0.048-0.02,0.145,0.033,0.163c0.053,0.018,0.09,0.041,0.072,0.068
			c-0.018,0.027,0.028,0.087-0.002,0.13c-0.03,0.044-0.093,0.091-0.083,0.136c0.01,0.045-0.014,0.081,0.038,0.082
			c0.033,0.001,0.071-0.039,0.1-0.042s0.054-0.029,0.074-0.055c0.02-0.025,0.048-0.068,0.074-0.04c0.02,0.022,0.076,0,0.104,0.037
			c0.029,0.037,0.067,0.049,0.098,0.059c0.032,0.01,0.109-0.003,0.126-0.034c0.016-0.031,0.045-0.083,0.078-0.091
			c0.033-0.008,0.058,0.011,0.04,0.04c-0.017,0.029-0.008,0.038,0.031,0.034c0.038-0.003,0.068,0.005,0.08,0.036
			c0.011,0.026,0.017,0.046,0.046,0.051c0.03,0.003,0.042-0.005,0.047-0.032c0.004-0.027,0.027-0.06,0.055-0.041
			c0.027,0.02,0.06,0.034,0.09,0.034c0.031,0,0.078,0.021,0.102,0.035c0.024,0.015,0.044,0.043,0.019,0.053
			c-0.025,0.01-0.052,0.014-0.08,0.007c-0.028-0.006-0.047,0.023-0.012,0.041c0.036,0.017,0.057,0.028,0.071,0.041
			c0.015,0.013,0.038,0.023,0.062,0.016c0.023-0.008,0.044-0.003,0.063,0.017c0.02,0.02,0.034,0.024,0.053,0.01
			c0.02-0.015,0.02-0.037,0.004-0.045c-0.016-0.008-0.036-0.032-0.025-0.046s0.007-0.033-0.017-0.041
			c-0.024-0.008-0.036-0.066-0.001-0.062c0.08,0.011,0.052-0.033,0.088-0.036c0.052-0.003,0.071-0.007,0.108,0.016
			c0.038,0.023,0.065,0.02,0.085,0.015c0.02-0.003,0.038-0.001,0.056,0.006c0.017,0.008,0.028-0.005,0.024-0.041
			c-0.005-0.044-0.007-0.128,0.018-0.16c0.021-0.025-0.004-0.085,0.022-0.104c0.027-0.019,0.052-0.07,0.038-0.092
			c-0.013-0.022-0.034-0.026-0.068-0.013c-0.035,0.013-0.097-0.017-0.071-0.083c0.031-0.079-0.002-0.127,0.015-0.204
			c0.017-0.077-0.048-0.098-0.113-0.048c-0.065,0.049-0.112,0.04-0.13,0.063c-0.019,0.023-0.056,0.017-0.07,0.007
			c-0.014-0.01-0.039,0.006-0.052,0.036c-0.014,0.03-0.076,0.073-0.114,0.053c-0.039-0.02-0.045-0.102,0.01-0.125
			c0.056-0.023,0.078-0.049,0.065-0.109c-0.013-0.06,0.008-0.178,0.049-0.214c0.042-0.036,0.104-0.066,0.137-0.045
			s0.07,0.025,0.092-0.011c0.021-0.035,0.058-0.058,0.073-0.025c0.016,0.032,0.063,0.026,0.073,0.067s0.047,0.049,0.058,0.086
			s0.131,0.07,0.103-0.023c-0.021-0.068,0-0.104-0.004-0.134c-0.003-0.03,0.03-0.052,0.058-0.044c0.029,0.009,0.1-0.016,0.08-0.059
			c-0.019-0.043-0.065-0.043-0.09-0.013c-0.025,0.031-0.073,0.046-0.087-0.002c-0.008-0.029-0.018-0.058,0-0.083
			c0.018-0.026,0.01-0.07-0.017-0.09c-0.026-0.021-0.057-0.062-0.04-0.083c0.032-0.038,0.019-0.081,0.036-0.109
			c0.018-0.028,0.021-0.082,0.063-0.085c0.042-0.005,0.069-0.039,0.068-0.079c0-0.04-0.001-0.118,0.046-0.132
			c0.047-0.015,0.101-0.048,0.124-0.084s0.104-0.047,0.129-0.112c0.027-0.065,0.034-0.099,0.064-0.131
			c0.029-0.033,0.009-0.061-0.011-0.081c-0.02-0.02-0.045-0.024-0.086-0.006c-0.04,0.019-0.065,0.003-0.057-0.017
			c0.009-0.02,0.025-0.051,0.045-0.06c0.02-0.009-0.008-0.076-0.049-0.075c-0.04,0.001-0.096-0.011-0.087-0.051
			c0.007-0.04-0.021-0.112-0.067-0.104c-0.046,0.008-0.124,0.044-0.131,0.003C23.633,16.894,23.607,16.873,23.636,16.838z"/>
		<path fill="#FFFFFF" d="M19.272,21.603c0.017,0.024,0.063,0.027,0.081,0.008c0.017-0.021,0.001-0.036-0.033-0.042
			C19.285,21.562,19.256,21.58,19.272,21.603z"/>
		<path fill="#FFFFFF" d="M19.16,21.661c0.027,0.018,0.054-0.001,0.047-0.025c-0.008-0.023-0.038-0.044-0.065-0.047
			c-0.026-0.002-0.039,0.006-0.037,0.033c0.001,0.027-0.026,0.036-0.052,0.042s-0.027,0.023-0.001,0.03
			c0.026,0.008,0.041,0.005,0.054-0.012C19.12,21.665,19.147,21.652,19.16,21.661z"/>
		<path fill="#FFFFFF" d="M18.952,21.755c0.05,0.016,0.068-0.017,0.02-0.036C18.921,21.7,18.906,21.742,18.952,21.755z"/>
		<path fill="#FFFFFF" d="M18.915,21.826c-0.018,0.011,0,0.029,0.014,0.021C18.94,21.839,18.935,21.813,18.915,21.826z"/>
		<path fill="#FFFFFF" d="M18.965,21.902c-0.034-0.005-0.07,0.014-0.055,0.041c0.015,0.027,0.034,0.018,0.056-0.002
			S18.983,21.906,18.965,21.902z"/>
		<path fill="#FFFFFF" d="M18.958,22.053c0.03,0.016,0.063-0.027,0.029-0.041C18.952,21.996,18.93,22.037,18.958,22.053z"/>
		<path fill="#FFFFFF" d="M18.996,22.117c-0.033-0.012-0.06-0.002-0.025,0.039C18.997,22.188,19.054,22.139,18.996,22.117z"/>
		<path fill="#FFFFFF" d="M19.154,22.309c-0.021-0.01-0.029-0.033-0.039-0.055c-0.008-0.021-0.058-0.047-0.081-0.016
			s-0.008,0.07,0.027,0.088c0.035,0.018,0.051,0.033,0.057,0.053s0.024,0.029,0.04,0.039s0.041,0.035,0.043,0.059
			c0.003,0.021,0.017,0.031,0.049,0.039c0.079,0.014,0.106,0.041,0.105,0.082s0.006,0.063,0.026,0.072
			c0.038,0.016,0.027,0.049,0.059,0.063c0.032,0.016,0.073,0.025,0.064-0.027c-0.008-0.055-0.055-0.102-0.078-0.156
			c-0.023-0.053-0.057-0.07-0.096-0.094c-0.04-0.021-0.097-0.045-0.125-0.047c-0.028-0.002-0.049-0.027-0.04-0.049
			C19.176,22.338,19.172,22.318,19.154,22.309z"/>
		<path fill="#FFFFFF" d="M19.534,22.826c0.012,0.031,0.037,0.061,0.061,0.074c0.025,0.014,0.069-0.004,0.044-0.041
			c-0.025-0.039-0.054-0.057-0.079-0.064C19.537,22.787,19.523,22.797,19.534,22.826z"/>
		<path fill="#FFFFFF" d="M19.965,23.063c0.014,0.029,0.063,0.061,0.097,0.053s0.049-0.037,0.016-0.061
			c-0.034-0.023-0.066-0.041-0.091-0.037S19.952,23.035,19.965,23.063z"/>
		<path fill="#FFFFFF" d="M20.171,23.223c0.057,0.023,0.047,0.076,0.101,0.084s0.07-0.049,0.027-0.074
			c-0.06-0.035-0.069-0.068-0.104-0.078C20.16,23.146,20.128,23.207,20.171,23.223z"/>
		<path fill="#FFFFFF" d="M22.243,24.635c0.051,0.021,0.143,0.084,0.181,0.1c0.037,0.016,0.096-0.039,0.017-0.094
			c-0.08-0.057-0.164-0.076-0.193-0.074C22.218,24.57,22.204,24.615,22.243,24.635z"/>
		<path fill="#FFFFFF" d="M22.67,17.524c-0.02,0.027-0.003,0.065,0.025,0.044s0.065-0.054,0.083-0.06s0.021-0.036-0.013-0.034
			S22.691,17.498,22.67,17.524z"/>
		<path fill="#FFFFFF" d="M21.909,19.628c-0.024,0.01-0.041,0.03-0.031,0.046c0.01,0.016,0.03,0.026,0.056-0.004
			C21.959,19.641,21.952,19.611,21.909,19.628z"/>
		<path fill="#FFFFFF" d="M23.348,19.616c-0.053-0.024-0.118,0.002-0.089,0.042c0.03,0.041,0,0.063,0.021,0.076
			c0.037,0.023,0.017,0.047,0.05,0.065c0.033,0.018,0.053,0.026,0.054,0.063c0,0.037,0.065,0.04,0.064-0.009
			c-0.001-0.022,0.002-0.05,0.013-0.064c0.01-0.014,0.009-0.046-0.001-0.069c-0.011-0.023-0.012-0.046,0.009-0.068
			c0.021-0.022,0.008-0.05-0.03-0.034C23.401,19.635,23.393,19.637,23.348,19.616z"/>
		<path fill="#FFFFFF" d="M23.959,19.389c0.01-0.058-0.033-0.177-0.049-0.215c-0.017-0.039-0.027-0.1,0.011-0.146
			c0.038-0.047-0.01-0.105,0.033-0.136c0.042-0.03,0.137-0.06,0.117-0.109c-0.02-0.05,0.011-0.133-0.021-0.167
			s-0.018-0.072,0.038-0.09c0.056-0.017,0.203-0.084,0.235-0.107s0.077-0.028,0.113-0.025c0.035,0.002,0.081,0.01,0.106,0.023
			c0.026,0.014,0.052,0.026,0.034,0.054c-0.018,0.027-0.011,0.061,0.022,0.072c0.033,0.012,0.062,0.049,0.029,0.105
			c-0.032,0.056,0.003,0.103-0.025,0.135c-0.028,0.031-0.033,0.057-0.01,0.072c0.024,0.015,0.032,0.073,0.011,0.091
			c-0.021,0.018-0.03,0.044-0.023,0.068c0.007,0.024-0.018,0.135-0.119,0.146c-0.117,0.013-0.117,0.098-0.206,0.092
			c-0.052-0.004-0.102,0.071-0.139,0.092c-0.037,0.021-0.063,0.057-0.074,0.077S23.95,19.445,23.959,19.389z"/>
		<path fill="#FFFFFF" d="M23.518,18.884c0.019-0.039,0.043-0.076,0.036-0.111c-0.008-0.035,0.036-0.089,0.071-0.05
			c0.035,0.038,0.063,0.035,0.086-0.019c0.025-0.053,0.036-0.071,0.012-0.113c-0.024-0.042-0.015-0.067,0-0.11
			c0.017-0.042,0.042-0.044,0.075-0.046c0.034-0.002,0.06-0.013,0.073-0.046c0.013-0.032,0.043-0.036,0.055-0.008
			c0.011,0.028,0.024,0.05,0.026,0.075c0.002,0.025,0.004,0.033-0.044,0.017c-0.048-0.017-0.093,0.063-0.035,0.063
			c0.057-0.001,0.066,0.028,0.039,0.071c-0.027,0.043-0.011,0.087-0.042,0.134c-0.032,0.048-0.022,0.119-0.012,0.171
			c0.01,0.052-0.042,0.121-0.074,0.075c-0.034-0.046-0.077-0.023-0.104,0.011c-0.027,0.034-0.066,0.058-0.097,0.062
			s-0.043-0.007-0.04-0.037c0.002-0.029,0.005-0.059-0.007-0.079S23.503,18.913,23.518,18.884z"/>
		<path fill="#FFFFFF" d="M23.4,18.566c-0.012,0.037-0.02,0.096,0.02,0.101c0.039,0.005,0.066-0.035,0.049-0.055
			c-0.018-0.021-0.006-0.047-0.022-0.063C23.431,18.533,23.408,18.543,23.4,18.566z"/>
		<path fill="#FFFFFF" d="M24.144,18.329c-0.05,0.006-0.069,0.041-0.068,0.069c0,0.029,0.02,0.054,0.061,0.031
			c0.042-0.025,0.104-0.047,0.142-0.056c0.037-0.009,0.071-0.05,0.031-0.087c-0.04-0.037-0.09-0.05-0.125-0.042
			c-0.035,0.008-0.037,0.02-0.02,0.037C24.181,18.3,24.176,18.325,24.144,18.329z"/>
		<path fill="#FFFFFF" d="M23.873,18.239c0.032,0.017,0.064,0.012,0.083-0.002s0.008-0.048-0.04-0.045
			C23.869,18.194,23.843,18.222,23.873,18.239z"/>
		<path fill="#FFFFFF" d="M24.021,18.202c0.009,0.029,0.058,0.046,0.087,0.028c0.028-0.017,0.003-0.033-0.026-0.055
			C24.052,18.152,24.008,18.16,24.021,18.202z"/>
		<path fill="#FFFFFF" d="M23.93,18.141c0.021-0.016,0.06-0.03,0.084-0.035c0.025-0.005,0.048-0.032,0.024-0.042
			c-0.023-0.01-0.049-0.031-0.05-0.063s-0.062-0.041-0.075-0.008c-0.021,0.053-0.072,0.048-0.062,0.091
			C23.862,18.127,23.892,18.17,23.93,18.141z"/>
		<path fill="#FFFFFF" d="M23.728,18.027c-0.031-0.01-0.047,0.017-0.029,0.038c0.018,0.021,0.028,0.043,0.016,0.07
			c-0.013,0.027-0.005,0.042,0.017,0.038c0.022-0.004,0.039,0.021,0.038,0.038c0,0.017,0.062,0.032,0.04-0.021
			c-0.022-0.054-0.044-0.083-0.021-0.106c0.038-0.038-0.006-0.05,0.015-0.074c0.022-0.024,0.083-0.011,0.078-0.056
			c-0.005-0.044-0.073-0.07-0.111-0.061c-0.038,0.009-0.042,0.042-0.011,0.059c0.03,0.017,0.048,0.037,0.025,0.055
			C23.761,18.025,23.76,18.037,23.728,18.027z"/>
		<path fill="#FFFFFF" d="M24.483,19.32c0.024,0.023,0.05,0.031,0.04,0.066c-0.009,0.035,0.047,0.086,0.118,0.036
			c0.071-0.051,0.142-0.107,0.061-0.168c-0.049-0.037-0.06,0.034-0.179,0C24.459,19.235,24.454,19.291,24.483,19.32z"/>
		<path fill="#FFFFFF" d="M24.859,18.599c0.013,0.027,0.033,0.059,0.065,0.069c0.033,0.01,0.037-0.023,0.029-0.046
			c-0.008-0.024-0.05-0.057-0.071-0.059C24.857,18.562,24.844,18.572,24.859,18.599z"/>
		<path fill="#FFFFFF" d="M24.901,18.477c-0.02,0.003-0.015,0.03,0.005,0.027C24.925,18.501,24.928,18.471,24.901,18.477z"/>
		<path fill="#FFFFFF" d="M25.153,18.249c-0.004,0.031,0.019,0.086,0.041,0.094c0.022,0.008,0.053-0.033,0.035-0.048
			c-0.02-0.014-0.042-0.042-0.047-0.058C25.178,18.221,25.158,18.219,25.153,18.249z"/>
		<path fill="#FFFFFF" d="M25.277,18.407c0.015,0.023,0.077,0.051,0.107,0.039c0.031-0.012,0.039-0.061-0.002-0.083
			c-0.042-0.022-0.099-0.019-0.111-0.001C25.261,18.38,25.266,18.388,25.277,18.407z"/>
		<path fill="#FFFFFF" d="M24.995,17.949c-0.021,0.003-0.02,0.029,0.008,0.018C25.031,17.955,25.028,17.944,24.995,17.949z"/>
		<path fill="#FFFFFF" d="M24.761,17.47c-0.02,0.003-0.005,0.028,0.01,0.023C24.788,17.488,24.783,17.466,24.761,17.47z"/>
		<path fill="#FFFFFF" d="M24.858,17.515c-0.014,0.01,0.008,0.029,0.022,0.016C24.897,17.517,24.88,17.5,24.858,17.515z"/>
		<path fill="#FFFFFF" d="M23.733,16.546c-0.022,0.004-0.019,0.04,0.009,0.031C23.772,16.569,23.761,16.541,23.733,16.546z"/>
		<path fill="#FFFFFF" d="M23.845,16.468c-0.025-0.006-0.056,0.017-0.048,0.032c0.008,0.015,0.029,0.009,0.05-0.007
			C23.868,16.479,23.861,16.472,23.845,16.468z"/>
		<path fill="#FFFFFF" d="M24.229,16.385c0.001,0.011,0.031,0.017,0.031,0.002C24.257,16.374,24.228,16.368,24.229,16.385z"/>
		<path fill="#FFFFFF" d="M24.403,16.406c-0.017,0.005-0.008,0.023,0.006,0.019C24.421,16.421,24.418,16.402,24.403,16.406z"/>
		<path fill="#FFFFFF" d="M24.476,16.457c0.004,0.013,0.025,0.007,0.018-0.006C24.487,16.438,24.471,16.44,24.476,16.457z"/>
		<path fill="#FFFFFF" d="M23.926,16.423c-0.022,0.006,0.004,0.034,0.018,0.027C23.956,16.443,23.988,16.407,23.926,16.423z"/>
		<path fill="#FFFFFF" d="M22.271,15.607c-0.019,0.039-0.008,0.091,0.06,0.075c0.065-0.016,0.062-0.035,0.03-0.077
			C22.329,15.564,22.294,15.557,22.271,15.607z"/>
		<path fill="#FFFFFF" d="M22.441,15.613c0.027,0.008,0.078-0.035,0.031-0.048C22.425,15.551,22.405,15.603,22.441,15.613z"/>
		<path fill="#FFFFFF" d="M20.739,14.656c-0.036,0.039,0.027,0.061,0.046,0.038C20.804,14.67,20.771,14.62,20.739,14.656z"/>
		<path fill="#FFFFFF" d="M22.247,13.647c0.02-0.017,0.063-0.03,0.086-0.031c0.023-0.001,0.048,0.013,0.035,0.035
			s-0.027,0.034-0.044,0.018c-0.018-0.017-0.057-0.013-0.064-0.002C22.253,13.678,22.226,13.664,22.247,13.647z"/>
		<path fill="#FFFFFF" d="M22.448,13.683c0.023,0.022,0.085-0.005,0.051-0.04C22.465,13.608,22.417,13.651,22.448,13.683z"/>
		<path fill="#FFFFFF" d="M24.961,22.828c0.031,0.029,0.054-0.033,0.026-0.055C24.958,22.752,24.92,22.793,24.961,22.828z"/>
		<path fill="#FFFFFF" d="M25.691,23.123c0.003,0.049,0.081,0.023,0.041-0.021C25.692,23.059,25.689,23.09,25.691,23.123z"/>
		<path fill="#FFFFFF" d="M26.887,20.018c-0.068,0.017-0.015,0.083,0.027,0.065c0.043-0.018,0.086-0.031,0.144,0.017
			c0.059,0.047,0.172-0.022,0.252,0.031c0.064,0.042,0.256-0.027,0.358-0.028c0.104-0.001,0.119-0.023,0.134-0.045
			c0.016-0.022,0.066-0.038,0.103-0.036c0.035,0.002,0.064-0.016,0.074-0.036c0.012-0.021,0.017-0.03,0.046-0.049
			c0.029-0.017,0.02-0.049,0.007-0.075s0-0.056,0.026-0.082c0.026-0.025,0.056-0.061,0.055-0.09
			c-0.002-0.072,0.052-0.085,0.031-0.126c-0.022-0.041-0.013-0.052,0.025-0.042c0.037,0.01,0.084,0.078,0.1,0.112
			c0.015,0.034,0.058,0.104,0.092,0.132s0.103,0.224,0.086,0.281c-0.017,0.057,0.012,0.178-0.006,0.248
			c-0.017,0.071-0.028,0.161,0.018,0.268c0.046,0.107,0.163,0.136,0.214,0.133c0.084-0.004,0.15,0.054,0.226,0.104
			c0.076,0.05,0.099,0.078,0.068,0.126c-0.027,0.047,0.007,0.084-0.039,0.133s-0.022,0.124-0.071,0.19
			c-0.049,0.067,0.02,0.106,0.089,0.15c0.069,0.043,0.059,0.133,0.034,0.18s0.004,0.115,0.029,0.164
			c0.022,0.049-0.019,0.183-0.06,0.23c-0.042,0.047-0.054,0.121-0.055,0.229c-0.002,0.109-0.127,0.156-0.151,0.24
			c-0.025,0.086-0.072,0.016-0.119,0.133c-0.025,0.066-0.076,0.063-0.117,0.123c-0.07,0.098-0.135,0.084-0.174,0.17
			c-0.038,0.086-0.144,0.07-0.177,0.115c-0.034,0.043-0.074-0.004-0.116-0.055c-0.041-0.053-0.121-0.016-0.194-0.014
			c-0.073,0-0.199-0.045-0.253-0.092c-0.054-0.049-0.164-0.08-0.257-0.078c-0.095,0.004-0.076-0.064-0.16-0.096
			c-0.083-0.031-0.115-0.121-0.104-0.236c0.012-0.117-0.078-0.115-0.093-0.162c-0.015-0.049-0.093-0.051-0.112-0.096
			c-0.019-0.045-0.146-0.055-0.269-0.033c-0.123,0.02-0.122-0.102-0.098-0.148c0.025-0.047,0.003-0.079-0.043-0.095
			c-0.044-0.017-0.147-0.019-0.182,0.013c-0.033,0.032-0.093,0.034-0.138,0.03c-0.044-0.004-0.126,0.025-0.171,0.066
			c-0.043,0.039-0.195,0.107-0.272,0.109s-0.201,0.021-0.359,0.07c-0.169,0.053-0.114-0.021-0.209-0.021
			c-0.096,0-0.09-0.049-0.155-0.068c-0.066-0.02-0.078-0.086-0.144-0.104c-0.067-0.018-0.121-0.109-0.176-0.149
			c-0.056-0.04-0.106-0.123-0.04-0.17c0.068-0.046,0.006-0.123,0.031-0.152s-0.006-0.059-0.011-0.092
			c-0.005-0.033,0.018-0.092,0.089-0.16c0.071-0.068,0.118-0.197,0.181-0.222c0.061-0.024,0.103-0.095,0.132-0.15
			c0.028-0.055,0.077-0.122,0.133-0.11s0.209-0.053,0.234-0.124c0.023-0.071,0.091-0.132,0.172-0.151
			c0.08-0.019,0.115-0.034,0.147-0.062c0.029-0.026,0.066-0.038,0.091,0.003c0.035,0.058,0.087,0.029,0.123,0.048
			s0.081,0.014,0.11-0.003c0.029-0.018,0.055-0.021,0.098-0.022c0.044,0,0.134-0.015,0.155-0.086s0.059-0.134,0.158-0.174
			c0.101-0.04,0.218-0.123,0.229-0.153c0.014-0.03,0.065-0.084,0.097-0.098L26.887,20.018z"/>
		<path fill="#FFFFFF" d="M26.741,15.823c0.037-0.017,0.08-0.077,0.043-0.103c-0.037-0.026-0.101-0.018-0.12,0.014
			c-0.02,0.032-0.05,0.038-0.054,0.061C26.606,15.819,26.621,15.877,26.741,15.823z"/>
		<path fill="#FFFFFF" d="M27.729,18.53c0.023-0.036,0.03-0.07,0.027-0.118c-0.004-0.048,0.001-0.099,0.057-0.063
			c0.054,0.035,0.158,0.012,0.155-0.072c-0.003-0.083,0.042-0.09,0.096-0.081c0.056,0.009,0.129-0.014,0.164-0.068
			c0.048-0.072,0.136-0.084,0.18-0.132c0.042-0.048,0.097-0.068,0.145-0.08s0.061-0.073,0.027-0.083
			c-0.036-0.009-0.033-0.048-0.092-0.044c-0.06,0.004-0.124-0.012-0.19-0.111c-0.023-0.036-0.057-0.034-0.102-0.025
			c-0.045,0.01-0.072-0.034-0.081-0.083c-0.012-0.049-0.106-0.076-0.144-0.143c-0.037-0.066-0.092-0.101-0.132-0.119
			c-0.04-0.019-0.093-0.093-0.088-0.146c0.005-0.053-0.016-0.176,0.086-0.269c0.102-0.092,0.091-0.123,0.049-0.179
			c-0.044-0.056-0.044-0.112,0.106-0.175c0.148-0.063,0.217-0.067,0.212-0.152c-0.004-0.085,0.104-0.197,0.092-0.279
			c-0.012-0.083,0.009-0.128,0.014-0.164c0.007-0.037,0.016-0.091-0.09-0.011c-0.104,0.08-0.142,0.212-0.137,0.258
			c0.006,0.046-0.022,0.163-0.12,0.197c-0.098,0.034-0.138-0.04-0.103-0.119c0.037-0.081,0.029-0.118,0.013-0.143
			c-0.017-0.025-0.009-0.054,0.001-0.079c0.011-0.024-0.021-0.054-0.064-0.058c-0.044-0.003-0.104-0.071-0.202-0.05
			c-0.097,0.021-0.145,0.074-0.152,0.12s-0.047,0.071-0.046,0.122c0.003,0.051-0.021,0.071-0.057,0.065
			c-0.037-0.006-0.06,0.039-0.092,0.028c-0.038-0.014-0.025-0.032-0.048-0.043c-0.024-0.01-0.015-0.056-0.055-0.075
			c-0.041-0.019-0.055-0.044-0.04-0.06c0.016-0.016,0.016-0.054-0.01-0.06c-0.024-0.007-0.057-0.038-0.071-0.073
			c-0.014-0.036-0.143-0.102-0.247-0.091c-0.043,0.004-0.125,0.004-0.145,0.036c-0.02,0.032-0.112,0.031-0.144,0.033
			c-0.031,0.001-0.107,0.027-0.131,0.086c-0.024,0.06-0.031,0.143-0.086,0.154c-0.055,0.011-0.067,0.026-0.054,0.071
			c0.015,0.045,0.031,0.063,0.058,0.075c0.027,0.012,0.029,0.083-0.003,0.073c-0.032-0.01-0.055-0.017-0.075-0.017
			c-0.02,0-0.034-0.03-0.014-0.05c0.019-0.021,0.029-0.049,0.002-0.053c-0.026-0.003-0.123-0.04-0.088-0.082
			c0.056-0.069,0.004-0.1,0.029-0.133c0.024-0.034,0.038-0.069-0.005-0.097c-0.043-0.027-0.093-0.038-0.131-0.021
			c-0.037,0.018-0.067,0.07-0.075,0.119c-0.009,0.049-0.037,0.069-0.092,0.086c-0.056,0.017-0.16,0.072-0.205,0.037
			c-0.046-0.035-0.1-0.05-0.115-0.016c-0.015,0.033-0.064,0.006-0.097,0.068c-0.033,0.062-0.056,0.126-0.088,0.147
			c-0.03,0.021-0.046,0.095-0.094,0.124c-0.017,0.01-0.013,0.033-0.002,0.052c0.013,0.02,0.006,0.056-0.025,0.074
			c-0.032,0.019-0.07,0.056-0.105,0.061c-0.035,0.005-0.072-0.009-0.099-0.03c-0.026-0.02-0.091-0.015-0.13-0.038
			c-0.039-0.022-0.108-0.024-0.136,0.016s-0.064,0.092-0.106,0.096c-0.042,0.004-0.08-0.024-0.045-0.053
			c0.035-0.028,0.039-0.081,0.098-0.122c0.06-0.042,0.127-0.114,0.122-0.152c-0.006-0.039-0.012-0.081-0.012-0.109
			c0.002-0.052-0.1-0.084-0.119-0.015c-0.019,0.069-0.139,0.146-0.137,0.227c0.001,0.08,0.011,0.146-0.061,0.18
			c-0.071,0.033-0.041,0.11-0.124,0.124c-0.082,0.014-0.099,0.071-0.061,0.1c0.038,0.029,0.011,0.094-0.039,0.081
			s-0.111-0.023-0.139-0.003c-0.029,0.02-0.061,0.018-0.065-0.003c-0.003-0.022-0.039-0.032-0.056-0.015
			c-0.018,0.017-0.011,0.041,0.018,0.043c0.029,0.002,0.045,0.015,0.035,0.041c-0.008,0.025-0.007,0.077,0.059,0.1
			c0.064,0.024,0.15,0.041,0.172,0.074c0.022,0.033,0.049,0.042,0.082,0.021c0.03-0.021,0.066-0.038,0.091-0.028
			c0.027,0.009,0.052,0.007,0.086-0.006c0.033-0.012,0.074-0.02,0.102,0.023c0.028,0.043,0.051,0.034,0.089,0.048
			c0.04,0.014,0.079,0.048,0.096,0.066c0.017,0.018,0.027,0.012,0.02,0.045c-0.006,0.034,0.006,0.039,0.024,0.02
			c0.017-0.02,0.049-0.044,0.089-0.048c0.039-0.003,0.063-0.011,0.061,0.039c-0.002,0.05,0.025,0.137,0.061,0.149
			c0.036,0.012,0.076,0.063,0.034,0.105c-0.041,0.041-0.031,0.056-0.024,0.077s0.004,0.039-0.008,0.06
			c-0.011,0.021-0.016,0.034-0.007,0.048c0.006,0.015,0.013,0.03-0.001,0.046c-0.017,0.016-0.021,0.044,0.016,0.013
			c0.036-0.031,0.086-0.084,0.128-0.014c0.042,0.071,0.096,0.132,0.129,0.128s0.064,0.003,0.049,0.031
			c-0.014,0.027,0.016,0.059,0.06,0.04c0.043-0.02,0.067-0.041,0.096-0.073c0.027-0.032,0.054-0.052,0.072-0.045
			c0.019,0.005,0.034,0.018,0.021,0.04c-0.014,0.021,0.008,0.026,0.038,0.031c0.03,0.005,0.085,0.046,0.063,0.07
			c-0.023,0.024-0.051,0.029-0.084-0.002c-0.031-0.032-0.063-0.03-0.095-0.014c-0.031,0.016-0.085,0.026-0.123,0.036
			c-0.038,0.009-0.064,0.036-0.029,0.082c0.011,0.014,0.042,0.042,0.077,0.046c0.036,0.004,0.06,0.025,0.046,0.053
			c-0.012,0.027,0.003,0.049,0.017,0.077L27.729,18.53z"/>
		<path fill="#FFFFFF" d="M28.178,19.25c-0.023,0.026-0.003,0.093,0.028,0.107c0.028,0.015,0.06-0.009,0.062-0.071
			C28.269,19.226,28.217,19.208,28.178,19.25z"/>
		<path fill="#FFFFFF" d="M28.427,17.594c-0.04,0.04-0.046,0.086,0.02,0.1c0.064,0.015,0.156-0.019,0.195-0.051
			c0.038-0.032,0.031-0.073-0.015-0.1S28.528,17.494,28.427,17.594z"/>
		<path fill="#FFFFFF" d="M27.236,16.092c0.009,0.059,0.027,0.108,0.1,0.073c0.072-0.035,0.039-0.055-0.013-0.083
			C27.271,16.055,27.23,16.063,27.236,16.092z"/>
		<path fill="#FFFFFF" d="M28.368,16.328c-0.025,0.037-0.031,0.07-0.013,0.099c0.019,0.029,0.008,0.097,0.043,0.112
			c0.034,0.016,0.079,0.031,0.072-0.044c-0.006-0.076,0.066-0.163,0.053-0.224c-0.015-0.06,0.038-0.171,0.021-0.214
			c-0.017-0.042,0.024-0.159,0.004-0.195c-0.019-0.038-0.038-0.084-0.03-0.116c0.008-0.033-0.057-0.096-0.098-0.022
			c-0.042,0.073-0.013,0.155-0.034,0.201c-0.021,0.045,0.008,0.14-0.022,0.18c-0.031,0.04-0.004,0.097,0.009,0.127
			C28.386,16.262,28.399,16.279,28.368,16.328z"/>
		<path fill="#FFFFFF" d="M24.813,16.206c0.014-0.019,0.034-0.047,0.053-0.053c0.021-0.006,0.058,0.014,0.025,0.033
			c-0.031,0.018-0.054,0.025-0.06,0.036S24.802,16.222,24.813,16.206z"/>
		<path fill="#FFFFFF" d="M24.967,16.102c-0.018,0.02,0.007,0.04,0.032,0.031c0.035-0.013,0.023-0.029,0.06-0.04
			c0.035-0.011,0.048-0.013,0.064-0.007c0.018,0.006,0.039-0.014,0.029-0.039c-0.01-0.025-0.054-0.021-0.077,0.008
			c-0.024,0.029-0.043,0.037-0.057,0.028C25.005,16.075,24.98,16.084,24.967,16.102z"/>
		<path fill="#FFFFFF" d="M26.672,19.773c-0.023,0.019-0.049,0.061-0.032,0.083c0.015,0.023,0.047,0.022,0.068,0
			c0.028-0.028-0.009-0.051,0.005-0.068C26.728,19.771,26.693,19.756,26.672,19.773z"/>
		<path fill="#FFFFFF" d="M26.338,20.122c0.028-0.008,0.06-0.038,0.081-0.06c0.022-0.022,0.074-0.014,0.052,0.034
			c-0.021,0.048-0.095,0.079-0.127,0.07C26.31,20.157,26.321,20.127,26.338,20.122z"/>
		<path fill="#FFFFFF" d="M25.881,20.297c-0.01,0.021-0.003,0.059,0.023,0.066c0.026,0.007,0.065-0.012,0.075-0.032
			c0.009-0.02-0.021-0.037-0.02-0.062C25.961,20.247,25.899,20.259,25.881,20.297z"/>
		<path fill="#FFFFFF" d="M25.669,20.282c-0.006,0.017-0.001,0.059,0.021,0.067c0.021,0.009,0.024-0.016,0.035-0.032
			c0.01-0.016,0.005-0.042-0.009-0.051C25.702,20.257,25.677,20.263,25.669,20.282z"/>
		<path fill="#FFFFFF" d="M25.632,20.203c0.021,0.014,0.032-0.015,0.016-0.022C25.63,20.173,25.616,20.192,25.632,20.203z"/>
		<path fill="#FFFFFF" d="M24.847,19.838c0.006,0.022,0.009,0.054-0.002,0.075c-0.012,0.021,0.005,0.067,0.04,0.068
			c0.035,0,0.057-0.015,0.065-0.055c0.01-0.04,0.015-0.069-0.002-0.077c-0.03-0.015-0.022-0.045-0.046-0.056
			C24.881,19.783,24.84,19.806,24.847,19.838z"/>
		<path fill="#FFFFFF" d="M25.04,20.028c-0.028,0.001-0.056-0.033-0.032-0.062c0.023-0.028,0.031-0.068,0.013-0.092
			c-0.019-0.025-0.013-0.062,0.003-0.08c0.014-0.017,0.009-0.061-0.018-0.062c-0.027,0-0.077-0.02-0.063-0.039
			c0.021-0.03,0.054-0.058,0.054-0.088c0.001-0.061,0.049-0.073,0.056-0.012c0.006,0.061,0.019,0.058,0.041,0.065
			c0.024,0.007,0.046,0.033,0.049,0.05c0.002,0.017,0.025,0.052,0.049,0.058c0.024,0.006,0.037,0.039,0.011,0.062
			c-0.024,0.022-0.004,0.063-0.04,0.079s-0.056,0.054-0.057,0.074C25.101,20.014,25.058,20.027,25.04,20.028z"/>
		<path fill="#FFFFFF" d="M29.126,20.101c-0.015,0.063,0.05,0.164,0.016,0.221c-0.034,0.057,0.035,0.133,0.001,0.19
			c-0.034,0.057-0.038,0.122,0.021,0.144c0.06,0.022,0.092,0.052,0.115,0.108c0.022,0.058,0.128,0.082,0.171,0.051
			c0.043-0.03,0.082-0.106,0.137-0.117c0.054-0.011,0.078-0.179,0.029-0.222c-0.047-0.042-0.14-0.193-0.141-0.234
			c-0.001-0.039-0.029-0.077-0.061-0.084c-0.031-0.007-0.05-0.03-0.061-0.068c-0.012-0.037-0.049-0.043-0.122-0.037
			C29.159,20.057,29.135,20.07,29.126,20.101z"/>
		<path fill="#FFFFFF" d="M29.729,19.714c-0.05,0.01-0.016,0.085,0.025,0.067C29.794,19.763,29.781,19.703,29.729,19.714z"/>
		<path fill="#FFFFFF" d="M29.733,19.562c-0.017-0.052,0.064-0.048,0.063,0.016C29.792,19.643,29.744,19.599,29.733,19.562z"/>
		<path fill="#FFFFFF" d="M30.777,17.598c-0.042,0.026-0.018,0.075,0.031,0.043C30.856,17.608,30.836,17.563,30.777,17.598z"/>
		<path fill="#FFFFFF" d="M31.267,18.457c-0.045,0.042-0.046,0.112-0.004,0.14c0.044,0.027,0.064-0.002,0.062-0.047
			c-0.002-0.045,0.021-0.082,0.001-0.11C31.305,18.411,31.294,18.431,31.267,18.457z"/>
		<path fill="#FFFFFF" d="M31.472,18.221c0.024,0.013,0.035-0.017,0.014-0.027C31.465,18.183,31.45,18.21,31.472,18.221z"/>
		<path fill="#FFFFFF" d="M31.495,18.1c0.022,0.007,0.031-0.023,0.013-0.03C31.487,18.063,31.466,18.091,31.495,18.1z"/>
		<path fill="#FFFFFF" d="M25.143,16.472c-0.007-0.041,0.028-0.087,0.019-0.118c-0.008-0.032,0.021-0.063,0.038-0.077
			c0.018-0.014,0.033-0.032,0.046-0.062s0.033-0.061,0.06-0.061c0.026,0.001,0.069,0.06,0.005,0.119
			c-0.063,0.058-0.114,0.147-0.117,0.196C25.19,16.518,25.157,16.563,25.143,16.472z"/>
		<path fill="#FFFFFF" d="M25.245,16.046c0.034,0.01,0.054,0.049,0.064,0.071c0.012,0.022,0.028,0.034,0.07,0.013
			c0.04-0.021,0.102-0.075,0.104-0.106c0.003-0.031,0.01-0.068,0.033-0.075s0.044-0.052,0.081-0.063
			c0.035-0.011,0.054,0.018,0.091,0.002c0.038-0.016,0.116,0.012,0.155,0.026s0.093-0.007,0.105-0.023
			c0.012-0.017,0.081-0.056,0.115-0.044s0.067-0.084-0.007-0.076c-0.075,0.009-0.133-0.045-0.142-0.074
			c-0.009-0.03-0.061-0.048-0.093-0.041c-0.033,0.007-0.086,0.029-0.138,0.03c-0.052,0.002-0.066-0.017-0.067-0.04
			c-0.001-0.022-0.078,0.018-0.092,0.061c-0.014,0.041-0.038,0.098-0.071,0.123s-0.037,0.063-0.038,0.101
			c0,0.037-0.035,0.071-0.068,0.05c-0.032-0.021-0.035-0.041-0.095-0.02C25.195,15.981,25.207,16.035,25.245,16.046z"/>
		<path fill="#FFFFFF" d="M26.23,15.874c-0.03-0.003-0.086,0.032-0.05,0.068c0.038,0.036,0.077,0.022,0.096,0
			C26.296,15.918,26.283,15.878,26.23,15.874z"/>
		<path fill="#FFFFFF" d="M26.314,15.666c0.024,0.013,0.049-0.02,0.021-0.032C26.31,15.621,26.284,15.649,26.314,15.666z"/>
		<path fill="#FFFFFF" d="M26.563,15.725c0.017,0.013,0.044-0.007,0.021-0.023C26.563,15.685,26.543,15.71,26.563,15.725z"/>
		<path fill="#FFFFFF" d="M26.879,15.324c-0.002-0.035,0.024-0.04,0.037-0.021c0.013,0.021,0.041,0.026,0.055,0.003
			c0.012-0.023,0.051-0.089,0.069-0.097c0.017-0.008,0.04-0.017,0.047,0.011c0.007,0.028-0.023,0.094-0.041,0.105
			c-0.019,0.013-0.032,0.045-0.008,0.039c0.025-0.005,0.066-0.005,0.076,0.018c0.008,0.014,0.01,0.052-0.028,0.068
			c-0.027,0.011-0.062,0.032-0.059,0.061c0.002,0.029,0.01,0.07-0.035,0.078s-0.083,0.019-0.093,0.035
			c-0.011,0.016-0.057,0.026-0.08-0.012c-0.022-0.039-0.028-0.095,0.015-0.124c0.044-0.029,0.084-0.069,0.068-0.101
			C26.886,15.356,26.878,15.339,26.879,15.324z"/>
		<path fill="#FFFFFF" d="M26.818,15.165c-0.013,0.028-0.008,0.056,0.018,0.07c0.026,0.014,0.053,0.001,0.058-0.021
			c0.006-0.023,0.007-0.063-0.015-0.071C26.856,15.134,26.828,15.142,26.818,15.165z"/>
		<path fill="#FFFFFF" d="M26.952,15.171c-0.024,0.005-0.023,0.042,0.007,0.039C26.987,15.208,26.98,15.165,26.952,15.171z"/>
		<path fill="#FFFFFF" d="M27.214,15.428c0.028,0.011,0.101,0.001,0.116-0.016c0.013-0.017-0.009-0.045-0.025-0.036
			c-0.016,0.01-0.051,0.024-0.072,0.024C27.211,15.401,27.19,15.42,27.214,15.428z"/>
		<path fill="#FFFFFF" d="M27.266,15.107c-0.019-0.005-0.032,0.027-0.012,0.039c0.021,0.01,0.057,0,0.081-0.012
			c0.023-0.012,0.021-0.043-0.012-0.029C27.29,15.119,27.278,15.11,27.266,15.107z"/>
		<path fill="#FFFFFF" d="M27.012,14.896c-0.025,0.008-0.06,0.014-0.079,0.021c-0.021,0.006-0.029-0.002-0.044,0.028
			s-0.027,0.058-0.028,0.083c-0.002,0.024-0.005,0.04,0.031,0.044c0.036,0.004,0.094,0.026,0.094,0.043
			c-0.002,0.018,0.018,0.029,0.032,0.022c0.016-0.007,0.045,0.008,0.047,0.026c0.002,0.02,0.013,0.028,0.044,0.017
			c0.031-0.012,0.097-0.062,0.054-0.086c-0.042-0.024-0.081-0.057-0.071-0.086c0.008-0.028-0.019-0.077-0.031-0.092
			c-0.013-0.015-0.014-0.041,0.006-0.041c0.031,0,0.047-0.03,0.024-0.046c-0.023-0.017-0.041,0.001-0.038,0.033
			C27.055,14.893,27.036,14.888,27.012,14.896z"/>
		<path fill="#FFFFFF" d="M26.948,14.792c-0.025,0.008-0.024,0.054,0.013,0.044C26.996,14.828,26.974,14.784,26.948,14.792z"/>
		<path fill="#FFFFFF" d="M27.095,14.509c0.019-0.009,0.052-0.051,0.021-0.059c-0.031-0.007-0.106-0.058-0.13-0.082
			c-0.021-0.023-0.061-0.018-0.08-0.01c-0.019,0.008,0.015,0.041,0.046,0.051c0.031,0.009,0.067,0.054,0.09,0.087
			C27.064,14.529,27.069,14.521,27.095,14.509z"/>
		<path fill="#FFFFFF" d="M27.11,14.558c-0.01,0.021-0.049,0.054-0.08,0.07c-0.032,0.017-0.047,0.083,0.004,0.083
			c0.049,0,0.11-0.032,0.106-0.065c-0.007-0.033-0.013-0.065-0.002-0.078C27.15,14.557,27.126,14.525,27.11,14.558z"/>
		<path fill="#FFFFFF" d="M27.269,14.756c0.04,0.025,0.179,0.131,0.2,0.161c0.021,0.03,0.033,0.049,0.062,0.051
			s0.069,0.009,0.086,0.019s0.056,0,0.057-0.035c0-0.035,0.007-0.081,0.027-0.095c0.019-0.015,0.017-0.068-0.005-0.077
			c-0.022-0.008-0.055,0.003-0.062,0.045c-0.007,0.041-0.027,0.076-0.054,0.083c-0.029,0.009-0.05-0.004-0.068-0.038
			c-0.02-0.033-0.04,0-0.077-0.047c-0.039-0.047-0.12-0.1-0.149-0.102C27.258,14.72,27.247,14.743,27.269,14.756z"/>
		<path fill="#FFFFFF" d="M27.408,14.711c-0.02-0.009-0.063-0.037-0.079-0.03c-0.015,0.007-0.009,0.042,0.063,0.056
			c0.023,0.005,0.089,0.044,0.101,0.065c0.01,0.02,0.053,0.065,0.079,0.058c0.026-0.008,0.044-0.026,0.032-0.051
			c-0.012-0.024-0.031-0.051-0.024-0.075c0.005-0.023-0.046-0.067-0.07-0.021c-0.008,0.013,0.004,0.05,0.016,0.062
			c0.01,0.012-0.001,0.026-0.022-0.001C27.48,14.745,27.436,14.725,27.408,14.711z"/>
		<path fill="#FFFFFF" d="M27.331,14.338c0.01,0.022,0.118,0.102,0.162,0.115c0.044,0.012,0.09-0.023,0.041-0.05
			c-0.068-0.04-0.077-0.081-0.121-0.099C27.366,14.287,27.31,14.29,27.331,14.338z"/>
		<path fill="#FFFFFF" d="M26.953,14.123c-0.026,0.009-0.023,0.048,0.012,0.04S26.979,14.115,26.953,14.123z"/>
		<path fill="#FFFFFF" d="M27.643,14.427c-0.027,0.003-0.017,0.057,0.014,0.05C27.686,14.472,27.676,14.423,27.643,14.427z"/>
		<path fill="#FFFFFF" d="M27.638,14.53c-0.039,0-0.06,0.031-0.043,0.052c0.019,0.021,0.035,0.035,0.064,0.035
			c0.03-0.001,0.044,0.027,0.046,0.048c0.003,0.021,0.031,0.047,0.058,0.039c0.024-0.007,0.041-0.041,0.063-0.049
			c0.021-0.009,0.002-0.063-0.039-0.065c-0.042-0.003-0.074-0.008-0.088-0.025C27.685,14.546,27.663,14.531,27.638,14.53z"/>
		<path fill="#FFFFFF" d="M27.838,14.733c-0.006,0.041,0.012,0.104,0.053,0.122c0.041,0.02,0.069,0.011,0.083-0.011
			c0.014-0.021,0.001-0.043-0.021-0.063c-0.02-0.02-0.057-0.037-0.067-0.054S27.842,14.708,27.838,14.733z"/>
		<path fill="#FFFFFF" d="M27.994,14.903c-0.01,0.015,0.001,0.043,0.026,0.042c0.025-0.001,0.031-0.012,0.034-0.032
			C28.057,14.893,28.019,14.863,27.994,14.903z"/>
		<path fill="#FFFFFF" d="M28.07,14.961c-0.067,0.002-0.046,0.089,0.012,0.046C28.118,14.982,28.111,14.96,28.07,14.961z"/>
		<path fill="#FFFFFF" d="M28.091,15.151c0.015,0.027,0.021,0.051-0.016,0.034c-0.037-0.018-0.05-0.048-0.048-0.075
			c0-0.026,0.012-0.044,0.032-0.033c0.02,0.012,0.031,0,0.045-0.014c0.014-0.012,0.063-0.025,0.074,0.009s0.089,0.129,0.12,0.145
			c0.03,0.016,0.063,0.046,0.047,0.072c-0.015,0.025,0.003,0.074,0.04,0.051c0.037-0.023,0.085-0.006,0.063,0.047
			c-0.021,0.052,0.006,0.153,0.02,0.187c0.013,0.034-0.018,0.092-0.068,0.05c-0.05-0.042-0.077-0.103-0.086-0.141
			s-0.059-0.144-0.12-0.182c-0.061-0.039-0.071-0.071-0.048-0.098c0.024-0.027,0.021-0.084-0.007-0.099
			C28.112,15.09,28.066,15.107,28.091,15.151z"/>
		<path fill="#FFFFFF" d="M27.458,15.124c-0.045-0.012-0.069,0.021-0.058,0.052c0.013,0.031,0.027,0.046,0.008,0.078
			c-0.02,0.032-0.01,0.104,0.032,0.105c0.04,0.002,0.068,0.011,0.11-0.008c0.041-0.019,0.142,0.014,0.171,0.052
			c0.029,0.037,0.085,0.046,0.11,0.061c0.024,0.012,0.068,0.042,0.088,0.077c0.02,0.034,0.046,0.087,0.076,0.072
			c0.029-0.015,0.058-0.05,0.096-0.047c0.039,0.003,0.099-0.013,0.074-0.048c-0.025-0.036-0.033-0.05-0.021-0.083
			c0.009-0.032-0.054-0.079-0.06-0.115c-0.005-0.036-0.067-0.06-0.073-0.11c-0.008-0.05-0.076-0.086-0.098-0.106
			c-0.02-0.02-0.069-0.079-0.137-0.052c-0.066,0.026-0.099,0.059-0.139,0.042s-0.068,0.053-0.102,0.025
			C27.503,15.093,27.498,15.135,27.458,15.124z"/>
		<path fill="#FFFFFF" d="M26.676,14.275c0,0.048,0.045,0.089,0.108,0.07c0.063-0.02,0.094-0.093,0.037-0.127
			c-0.058-0.034-0.111-0.133-0.181-0.152c-0.068-0.019-0.096-0.034-0.123-0.065c-0.026-0.032-0.048-0.078-0.003-0.104
			c0.044-0.024,0.012-0.09-0.03-0.06c-0.043,0.031-0.095,0.029-0.112-0.029c-0.018-0.058-0.07-0.151-0.118-0.177
			c-0.048-0.025-0.143-0.031-0.165,0.005c-0.024,0.036-0.081,0.037-0.14-0.02c-0.058-0.058-0.261-0.174-0.324-0.212
			c-0.064-0.038-0.102,0.026-0.031,0.068c0.07,0.042,0.115,0.091,0.137,0.107c0.022,0.016,0.032,0.03,0.024,0.079
			c-0.009,0.049,0.014,0.1,0.072,0.123c0.058,0.022,0.123,0.078,0.132,0.126c0.01,0.049,0.071,0.123,0.143,0.129
			c0.07,0.007,0.149,0.092,0.219,0.094c0.07,0.001,0.13,0.081,0.203,0.077C26.596,14.201,26.678,14.182,26.676,14.275z"/>
		<path fill="#FFFFFF" d="M25.241,13.769c0.008-0.031,0.034-0.041,0.021-0.071c-0.013-0.031,0.011-0.038,0.047-0.002
			c0.038,0.037,0.072,0.095,0.05,0.132C25.335,13.865,25.223,13.848,25.241,13.769z"/>
		<path fill="#FFFFFF" d="M25.424,13.673c0.037,0.02,0.104,0.059,0.158,0.051s0.106-0.076,0.05-0.093
			c-0.059-0.016-0.144,0.015-0.185,0.005C25.405,13.627,25.383,13.652,25.424,13.673z"/>
		<path fill="#FFFFFF" d="M25.096,13.536c0.006,0.031,0.019,0.103,0.069,0.095c0.049-0.006,0.057-0.038,0.029-0.056
			c-0.026-0.019-0.052-0.028-0.058-0.047C25.13,13.509,25.091,13.507,25.096,13.536z"/>
		<path fill="#FFFFFF" d="M24.957,13.48c0.009,0.028,0.028,0.077,0.066,0.061c0.038-0.016,0.021-0.045-0.002-0.064
			C24.999,13.458,24.949,13.452,24.957,13.48z"/>
		<path fill="#FFFFFF" d="M24.807,13.482c0.007,0.037,0.053,0.075,0.086,0.042c0.033-0.031,0.012-0.06-0.019-0.072
			C24.846,13.44,24.801,13.45,24.807,13.482z"/>
		<path fill="#FFFFFF" d="M24.649,13.43c0.015,0.048,0.075,0.066,0.109,0.053c0.033-0.013,0.031-0.047,0.006-0.054
			c-0.024-0.007-0.075-0.018-0.087-0.031C24.665,13.385,24.644,13.412,24.649,13.43z"/>
		<path fill="#FFFFFF" d="M24.56,13.325c0.004,0.022,0.032,0.056,0.053,0.05c0.021-0.007,0.024-0.034-0.001-0.049
			C24.587,13.311,24.555,13.3,24.56,13.325z"/>
		<path fill="#FFFFFF" d="M24.762,13.366c0.018,0.015,0.037-0.002,0.016-0.019C24.754,13.332,24.74,13.347,24.762,13.366z"/>
		<path fill="#FFFFFF" d="M24.126,13.089c-0.008,0.038,0.027,0.084,0.056,0.078c0.031-0.006,0.055-0.034,0.022-0.073
			C24.171,13.055,24.132,13.062,24.126,13.089z"/>
		<path fill="#FFFFFF" d="M24.082,13.037c-0.009,0.014,0.006,0.021,0.015,0.013C24.105,13.041,24.094,13.019,24.082,13.037z"/>
		<path fill="#FFFFFF" d="M23.883,12.934c0.023,0.003,0.093,0.031,0.112,0.046s0.045-0.011,0.02-0.029
			c-0.041-0.027-0.095-0.046-0.118-0.05C23.872,12.896,23.856,12.93,23.883,12.934z"/>
		<path fill="#FFFFFF" d="M24.008,12.808c-0.03,0.036,0.041,0.057,0.056,0.032C24.08,12.815,24.032,12.781,24.008,12.808z"/>
		<path fill="#FFFFFF" d="M24.151,12.802c0.027,0.038,0.068,0.063,0.1,0.073s0.125,0.06,0.155,0.016
			c0.029-0.043-0.005-0.066-0.052-0.094c-0.078-0.045-0.124-0.017-0.161-0.034C24.157,12.746,24.121,12.762,24.151,12.802z"/>
		<path fill="#FFFFFF" d="M23.033,13.169c0.02-0.029,0.09-0.065,0.138-0.063c0.051,0.002,0.076,0.046,0.022,0.063
			c-0.051,0.016-0.078,0.041-0.086,0.064C23.088,13.285,22.975,13.253,23.033,13.169z"/>
		<path fill="#FFFFFF" d="M22.763,12.221c0.028-0.007,0.056,0.017,0.078-0.037c0.022-0.055,0.077-0.063,0.106-0.106
			c0.031-0.044,0.069-0.06,0.12-0.093c0.05-0.033,0.083-0.035,0.11-0.004c0.027,0.03,0.044,0.06,0.094,0.079
			c0.049,0.02,0.057,0.03,0.05,0.067c-0.005,0.037,0.048,0.085,0.101,0.086c0.052,0.001,0.119,0.05,0.088,0.077
			c-0.031,0.027-0.155,0.043-0.208-0.004c-0.054-0.048-0.079-0.033-0.113-0.014c-0.033,0.019-0.086,0-0.113-0.017
			c-0.027-0.017-0.08-0.036-0.113-0.004c-0.034,0.032-0.095,0.003-0.145,0.041C22.769,12.327,22.691,12.239,22.763,12.221z"/>
		<path fill="#FFFFFF" d="M23.265,11.911c0.032,0.002,0.063-0.02,0.073-0.053c0.012-0.033,0.059-0.061,0.115-0.091
			c0.055-0.03,0.087-0.04,0.123-0.089c0.037-0.05,0.11-0.091,0.165-0.086c0.053,0.005,0.141,0.022,0.167-0.021
			c0.025-0.042,0.104-0.023,0.087,0.003c-0.017,0.027-0.018,0.054,0.013,0.057c0.032,0.003,0.047,0.024-0.002,0.048
			c-0.049,0.023-0.1,0.057-0.132,0.092c-0.031,0.036-0.06,0.044-0.119,0.05c-0.059,0.005-0.109,0.025-0.141,0.061
			c-0.032,0.036-0.112,0.061-0.136,0.094c-0.023,0.033-0.042,0.043-0.082,0.029c-0.038-0.014-0.069,0.013-0.087-0.021
			s-0.034-0.037-0.049-0.045C23.245,11.93,23.242,11.91,23.265,11.911z"/>
		<path fill="#FFFFFF" d="M23.656,11.358c0.016,0.036,0.096,0.014,0.108-0.016C23.776,11.313,23.62,11.278,23.656,11.358z"/>
		<path fill="#FFFFFF" d="M24.081,11.375c-0.035,0.023-0.024,0.06,0.024,0.063c0.048,0.002,0.073-0.027,0.066-0.051
			C24.165,11.362,24.117,11.351,24.081,11.375z"/>
		<path fill="#FFFFFF" d="M27.202,12.833c-0.011,0.051-0.111,0.068-0.135,0.03s0.026-0.1,0.092-0.115
			c0.064-0.014,0.066-0.009,0.061-0.047s-0.067-0.066-0.13-0.064c-0.063,0.002-0.117-0.044-0.134-0.097
			c-0.015-0.053-0.102-0.125-0.14-0.135c-0.038-0.012-0.112-0.047-0.155-0.097c-0.045-0.05-0.146-0.077-0.211-0.045
			s-0.243-0.041-0.306-0.079c-0.065-0.038-0.13,0.011-0.178-0.014c-0.05-0.025-0.133,0-0.146,0.033s-0.097,0.042-0.122,0.09
			c-0.026,0.048-0.086,0.069-0.169,0.112c-0.08,0.042-0.15,0.127-0.137,0.202c0.009,0.041-0.048,0.067-0.039,0.095
			c0.009,0.027,0.016,0.038,0.076,0.033c0.059-0.005,0.119,0.067,0.153,0.065c0.033-0.002,0.082,0.057,0.117,0.072
			s0.084,0.104,0.105,0.158c0.021,0.054,0.063,0.084,0.106,0.084c0.044,0,0.104,0.068,0.096,0.166
			c-0.01,0.098,0.036,0.123,0.066,0.131c0.027,0.009,0.06,0.029,0.063,0.067c0.002,0.038,0.024,0.083,0.034,0.102
			c0.01,0.018,0.063,0.044,0.106,0.019c0.065-0.037,0.069-0.095,0.117-0.123c0.049-0.028,0.112-0.073,0.185-0.018
			c0.074,0.055,0.145,0.072,0.167,0.118c0.022,0.045,0.048,0.059,0.019,0.089c-0.03,0.031-0.044,0.07-0.002,0.105
			c0.04,0.035,0.137,0.092,0.17,0.147c0.035,0.054,0.055,0.078,0.11,0.079c0.056,0,0.085,0.027,0.066,0.053
			c-0.018,0.025,0.007,0.041,0.038,0.043c0.029,0.002,0.058-0.019,0.056-0.043c-0.003-0.025,0.026-0.051,0.069-0.05
			c0.045,0,0.064,0.012,0.079,0.048c0.014,0.036,0.05,0.065,0.097,0.097s0.07,0.054,0.127,0.05c0.057-0.003,0.18,0.02,0.224,0.047
			c0.042,0.027,0.078,0.042,0.121,0.026c0.045-0.017,0.103-0.017,0.138,0.013c0.035,0.029,0.073,0.058,0.112,0.066
			c0.04,0.008,0.103,0.043,0.134,0.08c0.032,0.036,0.08,0.079,0.132,0.092c0.053,0.012,0.079,0.03,0.098,0.071
			s0.12,0.055,0.147,0.01c0.026-0.046,0.039-0.07,0.07-0.079c0.032-0.01,0.053-0.034,0.061-0.057
			c0.007-0.022,0.027-0.106,0.078-0.142c0.021-0.016,0.014-0.103,0.065-0.141c0.051-0.039,0.013-0.148-0.042-0.172
			c-0.053-0.024-0.039-0.057-0.086-0.086s-0.108-0.088-0.152-0.103c-0.046-0.015-0.108-0.077-0.126-0.106s-0.08-0.056-0.091-0.082
			c-0.011-0.025-0.137-0.079-0.151-0.109c-0.016-0.03-0.122-0.046-0.165-0.087c-0.045-0.041-0.154-0.06-0.195-0.11
			c-0.043-0.05-0.113-0.106-0.166-0.116c-0.052-0.01-0.216-0.061-0.223-0.087c-0.009-0.027-0.007-0.05-0.033-0.048
			c-0.024,0.002-0.084-0.023-0.118-0.05c-0.035-0.026-0.047-0.095-0.044-0.133c0.003-0.038,0.016-0.088-0.046-0.101
			S27.209,12.798,27.202,12.833z"/>
		<path fill="#FFFFFF" d="M26.062,12.03c-0.022-0.05,0.025-0.065,0.064-0.072c0.025-0.048,0.105-0.067,0.211-0.007
			c0.104,0.06,0.146,0.117,0.135,0.172c-0.013,0.056-0.032,0.067-0.087,0.038c-0.057-0.029-0.147-0.064-0.203-0.059
			C26.126,12.108,26.081,12.076,26.062,12.03z"/>
		<path fill="#FFFFFF" d="M26.976,19.048c-0.041,0.065-0.086,0.022-0.11-0.002c-0.025-0.024-0.057-0.029-0.139,0.005
			c-0.084,0.034-0.121,0.014-0.153-0.033c-0.036-0.057-0.012-0.11,0.069-0.129c0.073-0.017,0.059,0.038,0.01,0.053
			c-0.031,0.009-0.019,0.035,0.002,0.04c0.018,0.006,0.043,0,0.113-0.035c0.076-0.038,0.129-0.022,0.177-0.011
			C26.994,18.946,27.006,19,26.976,19.048l0.368,0.125c0.131-0.014,0.141-0.04,0.144-0.096s0.029-0.089,0.033-0.134
			c0.005-0.045,0.043-0.048,0.075-0.055s0.073-0.025,0.082-0.091c0.01-0.066,0.005-0.106,0.022-0.134
			c0.018-0.029,0.005-0.097,0.028-0.133l-2.176-0.128c0.013,0.029,0.013,0.087-0.002,0.118c-0.014,0.03-0.017,0.063-0.014,0.099
			c0.001,0.036-0.014,0.067-0.066,0.08c-0.056,0.012-0.117,0.063-0.188,0.053s-0.112,0.055-0.115,0.126
			c-0.002,0.111-0.044,0.127-0.022,0.208c0.022,0.08,0.011,0.147-0.003,0.169c-0.016,0.022-0.028,0.11,0.063,0.11
			c0.092,0,0.057,0.039,0.093,0.041c0.038,0.002,0.056,0.011,0.063,0.037c0.005,0.027,0.039,0.01,0.044,0.039
			c0.004,0.029,0.022,0.041,0.059,0.044c0.037,0.003,0.055-0.013,0.066-0.046c0.01-0.034-0.024-0.064-0.012-0.094
			c0.012-0.029,0.003-0.061-0.034-0.08c-0.035-0.02-0.082-0.114-0.084-0.156s0.009-0.083,0.061-0.096
			c0.053-0.014,0.088-0.017,0.08,0.027c-0.009,0.043,0.021,0.109,0.043,0.139c0.021,0.029,0.044,0.044,0.071,0.025
			c0.025-0.019,0.046-0.029,0.064-0.033c0.019-0.004,0.041,0.006,0.011,0.033c-0.032,0.027-0.032,0.047-0.057,0.063
			c-0.025,0.016-0.042,0.069-0.039,0.105c0.003,0.036,0.007,0.067-0.014,0.084c-0.021,0.017-0.038,0.044-0.052,0.066
			c-0.016,0.021-0.088,0.049-0.125,0.034c-0.055-0.022-0.032-0.052-0.053-0.059c-0.02-0.008-0.043-0.05-0.065-0.05
			c-0.021,0-0.046,0.058-0.036,0.093c0.012,0.036,0.022,0.076,0.039,0.09c0.018,0.014,0.063,0.067,0.036,0.095
			s-0.088,0.111-0.098,0.127c-0.011,0.016-0.018,0.027-0.045,0.037c-0.027,0.011-0.048,0.039-0.06,0.058
			c-0.012,0.019-0.051,0.039-0.082,0.044c-0.03,0.005-0.026,0.034-0.021,0.061c0.003,0.027,0.022,0.045,0.055,0.043
			c0.031,0,0.068,0.035,0.067,0.073c-0.002,0.037-0.021,0.056-0.06,0.063c-0.038,0.007-0.075,0.019-0.109,0.029
			c-0.033,0.01-0.056,0.043-0.054,0.101c0.003,0.058,0.008,0.104,0.022,0.126c0.014,0.024,0.034,0.058,0.03,0.086
			c-0.004,0.029,0.012,0.071,0.06,0.066c0.031-0.003,0.054,0.014,0.064,0.028s0.035,0.028,0.049-0.001
			c0.015-0.031,0.054-0.037,0.071-0.074c0.017-0.038,0.046-0.062,0.074-0.068s0.06-0.016,0.058-0.057
			c-0.001-0.041,0.024-0.055,0.021-0.078c-0.002-0.023,0.006-0.043,0.027-0.06s0.02-0.034,0.017-0.057s0.019-0.055,0.036-0.059
			c0.018-0.003,0.053-0.022,0.063-0.047c0.01-0.025,0.043-0.044,0.054-0.058s0.045-0.031,0.066-0.016
			c0.021,0.015,0.061,0.049,0.094,0.039c0.033-0.011,0.12-0.02,0.155,0.004c0.035,0.024,0.064,0.049,0.085,0.047
			c0.021-0.002,0.033-0.015,0.021-0.035c-0.013-0.02-0.024-0.057-0.011-0.074c0.016-0.018-0.01-0.049-0.063-0.042
			c-0.051,0.007-0.13-0.01-0.154-0.023c-0.024-0.015-0.036-0.061,0.006-0.071c0.044-0.011,0.12-0.02,0.18,0.003
			c0.059,0.022,0.11,0.035,0.113,0.062c0.004,0.027,0.021,0.059,0.036,0.061c0.021,0.002,0.036,0.012,0.05,0.03
			s0.048,0.013,0.062-0.001c0.012-0.014,0.015-0.033,0.046-0.035c0.031-0.004,0.053-0.08,0.01-0.092
			c-0.044-0.012-0.076-0.042-0.066-0.062c0.008-0.02,0.013-0.069,0.007-0.083c-0.007-0.013,0.001-0.03,0.011-0.042
			s0.009-0.044-0.008-0.058c-0.015-0.015-0.013-0.05-0.003-0.069c0.009-0.018,0.008-0.069-0.011-0.096s-0.029-0.072,0.015-0.081
			c0.017-0.002,0.031,0.032,0.062,0.023c0.029-0.009,0.043-0.031,0.061-0.063c0.017-0.031,0.077-0.084,0.15-0.093
			c0.072-0.01,0.124,0.019,0.076,0.08c-0.062,0.08-0.158,0.075-0.263,0.228c-0.015,0.022-0.032,0.051-0.026,0.074
			c0.004,0.022-0.001,0.069-0.017,0.087c-0.017,0.018-0.031,0.046-0.001,0.057c0.032,0.009,0.074,0.024,0.094,0.044
			c0.021,0.02,0.138,0.038,0.16-0.097c0.009-0.044,0.028-0.065,0.075-0.097c0.046-0.032,0.042-0.073,0.11-0.09
			c0.044-0.011,0.059,0.034,0.058,0.061c-0.001,0.026,0.004,0.098,0.015,0.13c0.009,0.031,0.013,0.069-0.018,0.083l0.105,0.075
			c0.067-0.016,0.068-0.042,0.05-0.076c-0.019-0.033-0.017-0.064,0.016-0.087s0.055,0.005,0.058,0.03
			c0.026,0.03,0.063,0.067,0.108,0.087c0.066-0.025,0.109-0.012,0.14,0c0.029,0.013,0.122,0.019,0.16,0.002
			c0.038-0.016,0.135-0.041,0.221-0.028c0.086,0.012,0.152,0.022,0.223-0.004c0.078-0.029,0.131-0.077,0.113-0.115
			c-0.017-0.038-0.027-0.077,0.006-0.111c0.057-0.055-0.007-0.104,0.019-0.158c0.019-0.039,0.005-0.096-0.012-0.15
			c-0.017-0.052-0.022-0.111-0.006-0.15s0.022-0.088-0.001-0.115c-0.022-0.028-0.045-0.09-0.046-0.122
			c-0.001-0.031-0.016-0.052-0.038-0.06c-0.023-0.007-0.047-0.032-0.055-0.046c-0.008-0.015-0.025-0.036-0.042-0.042
			c-0.016-0.006-0.052,0.01-0.064,0.029c-0.011,0.018-0.072,0.042-0.1,0.048c-0.026,0.005-0.058,0.032-0.052,0.076
			c0.006,0.044-0.004,0.128-0.013,0.157c-0.008,0.028-0.023,0.083-0.071,0.083c-0.05,0-0.101,0.025-0.125,0.038
			c-0.024,0.014-0.098,0.036-0.127-0.001c-0.028-0.037-0.035-0.116,0.096-0.13L26.976,19.048z"/>
	</g>
	<g>
		<path fill="#FFFFFF" d="M20.871,28.363c0.935,0.07,1.744-0.393,2.835-1.068s2.555-0.984,4.001-0.883
			c1.111,0.078,1.828,0.449,2.406,0.758c0.104,0.055,0.07,0.092,0.014,0.135c-0.057,0.041-0.08,0.076-0.154,0.115
			c-0.075,0.039-0.114-0.008-0.2-0.061c-0.941-0.57-1.745-0.963-2.719-0.842c-0.39,0.049-0.98,0.248-1.431,0.641
			c-1.011,0.883-2.798,1.906-4.753,1.248C20.763,28.371,20.833,28.359,20.871,28.363z"/>
		<path fill="#FFFFFF" d="M18.694,26.83c-0.08-0.059-0.078-0.07,0.021-0.047c0.683,0.174,1.078,0.252,1.758,0.186
			c0.679-0.066,1.401-0.078,1.735-0.059c0.334,0.02,0.673,0.012,0.923-0.016c0.066-0.01,0.062-0.053-0.021-0.053
			c-1.12,0.01-1.781-0.754-2.195-1.295c-0.413-0.539-0.545-0.813-0.642-0.939c-0.095-0.125-0.044-0.107,0.063-0.037
			c0.841,0.553,1.057,0.477,1.876,1.156c0.677,0.561,0.972,1.041,1.487,1.068c0.097,0.006,0.099,0.041,0.002,0.082
			c-0.431,0.176-0.591,0.332-1.004,0.527C21.713,27.871,20.468,28.127,18.694,26.83z"/>
		<path fill="#FFFFFF" d="M16.521,24.408c-0.052-0.082-0.037-0.084,0.031-0.033c0.85,0.639,1.326,0.83,1.787,0.969
			c0.503,0.15,1.539,0.631,2.199,0.982c0.077,0.043,0.116-0.008,0.043-0.055c-0.915-0.596-1.399-1.6-1.612-2.129
			c-0.213-0.533-0.416-0.973-0.483-1.082s-0.034-0.096,0.035-0.027c0.906,0.883,1.67,1.553,2.044,2.408
			c0.275,0.629,0.384,0.936,0.499,1.055c0.114,0.121,0.045,0.092-0.073,0.074c-0.154-0.023-0.741,0-1.12,0.01
			C18.646,26.615,17.642,26.15,16.521,24.408z"/>
		<path fill="#FFFFFF" d="M15.17,21.922c-0.033-0.05-0.059-0.051-0.029,0.018c0.601,1.414,1.456,2.176,2.46,2.564
			c0.313,0.121,0.885,0.328,0.977,0.402c0.092,0.076,0.149,0.113,0.082-0.041c-0.29-0.674-0.175-1.156-0.479-2.066
			c-0.287-0.863-0.502-1.291-0.941-1.884c-0.015-0.021-0.037-0.023-0.021,0.022c0.111,0.331,0.097,0.741,0.142,1.09
			c0.065,0.508,0.241,1.318,0.53,1.809c0.16,0.271,0.275,0.436,0.317,0.498c0.042,0.063,0.019,0.139-0.067,0.043
			c-0.696-0.76-1.425-1.195-1.87-1.467C15.753,22.592,15.408,22.281,15.17,21.922z"/>
		<path fill="#FFFFFF" d="M16.812,22.855c0.055,0.066,0.079,0.051,0.057-0.039c-0.102-0.414,0.021-0.775,0.072-1.266
			c0.05-0.49,0.15-1.358-0.261-2.547c-0.017-0.046-0.059-0.064-0.052,0.016c0.049,0.563-0.198,1.094-0.232,1.703
			c-0.033,0.577,0.042,1.09,0.084,1.284c0.016,0.076-0.042,0.094-0.081,0.02c-0.417-0.816-1.086-1.684-1.682-2.256
			c-0.227-0.217-0.387-0.542-0.422-0.641c-0.036-0.099-0.068-0.068-0.057,0.02c0.179,1.293,0.887,2.424,1.92,3.111
			C16.414,22.428,16.585,22.584,16.812,22.855z"/>
		<path fill="#FFFFFF" d="M15.969,20.946c0.027,0.066,0.071,0.122,0.044-0.025c-0.114-0.645,0.298-1.32,0.388-1.583
			c0.288-0.847,0.479-1.959,0.458-2.541c-0.002-0.058-0.042-0.087-0.076,0.003c-0.235,0.621-0.903,1.309-0.996,2.334
			c-0.014,0.153-0.076,0.174-0.115,0.011c-0.189-0.818-0.438-1.382-0.627-1.809c-0.189-0.426-0.221-0.987-0.191-1.117
			c0.03-0.129-0.05-0.061-0.068,0.003c-0.385,1.352-0.182,2.451,0.571,3.685C15.708,20.488,15.856,20.669,15.969,20.946z"/>
		<path fill="#FFFFFF" d="M15.716,18.321c0.009,0.089,0.052,0.104,0.084-0.025c0.09-0.367,0.227-0.577,0.439-0.871
			c0.522-0.719,0.984-1.619,1.046-2.527c0.006-0.086-0.03-0.071-0.063,0.019c-0.212,0.583-0.874,1.069-1.159,1.681
			c-0.087,0.188-0.162,0.395-0.182,0.464c-0.019,0.069-0.083,0.083-0.088-0.025c-0.039-0.967-0.089-1.398-0.125-1.69
			c-0.037-0.291-0.005-0.675,0.063-0.877c0.027-0.078-0.019-0.103-0.075,0c-0.572,1.042-0.684,1.813-0.306,2.793
			C15.592,17.894,15.692,18.092,15.716,18.321z"/>
		<path fill="#FFFFFF" d="M15.871,16.587c0.014,0.096,0.04,0.111,0.069,0.044c0.326-0.721,0.645-0.994,1.009-2.017
			c0.14-0.394,0.223-0.805,0.399-1.135c0.039-0.072-0.011-0.109-0.087-0.034C16.486,14.198,15.669,15.18,15.871,16.587z"/>
	</g>
	<g>
		<path fill="none" stroke="#FFFFFF" stroke-width="0.1654" d="M23.195,18.298c-0.094-0.686,0.314-1.359,0.997-1.575
			c0.122-0.039,0.246-0.061,0.367-0.066"/>
		<path fill="none" stroke="#FFFFFF" stroke-width="0.1654" d="M25.245,16.793c0.351,0.166,0.636,0.472,0.762,0.871
			c0.151,0.479,0.042,0.977-0.25,1.341"/>
		<path fill="none" stroke="#FFFFFF" stroke-width="0.1654" d="M25.389,19.332c-0.099,0.061-0.207,0.111-0.323,0.148
			c-0.645,0.205-1.327-0.066-1.667-0.617"/>
		<path fill="none" stroke="#FFFFFF" stroke-width="0.1654" d="M25.503,20.86c-1.523,0.483-3.15-0.36-3.634-1.885
			c-0.483-1.523,0.36-3.15,1.884-3.633c1.524-0.483,3.151,0.36,3.634,1.884"/>
		<circle fill="none" stroke="#FFFFFF" stroke-width="0.1654" cx="24.628" cy="18.101" r="4.342"/>
		<circle fill="none" stroke="#FFFFFF" stroke-width="0.1654" cx="24.628" cy="18.101" r="5.791"/>
		<circle fill="none" stroke="#FFFFFF" stroke-width="0.1654" cx="24.628" cy="18.101" r="7.239"/>
		<line fill="none" stroke="#FFFFFF" stroke-width="0.1654" x1="31.529" y1="15.913" x2="26.007" y2="17.664"/>
		<line fill="none" stroke="#FFFFFF" stroke-width="0.1654" x1="27.96" y1="11.675" x2="25.823" y2="15.797"/>
		<line fill="none" stroke="#FFFFFF" stroke-width="0.1654" x1="22.44" y1="11.2" x2="24.19" y2="16.718"/>
		<line fill="none" stroke="#FFFFFF" stroke-width="0.1654" x1="18.201" y1="14.769" x2="23.34" y2="17.434"/>
		<line fill="none" stroke="#FFFFFF" stroke-width="0.1654" x1="17.727" y1="20.289" x2="21.227" y2="19.179"/>
		<line fill="none" stroke="#FFFFFF" stroke-width="0.1654" x1="21.295" y1="24.529" x2="23.96" y2="19.39"/>
		<line fill="none" stroke="#FFFFFF" stroke-width="0.1654" x1="26.816" y1="25.002" x2="25.564" y2="21.052"/>
		<line fill="none" stroke="#FFFFFF" stroke-width="0.1654" x1="31.055" y1="21.435" x2="28.224" y2="19.966"/>
		<path fill="none" stroke="#FFFFFF" stroke-width="0.1654" d="M24.63,18.102"/>
	</g>
	<g>
		<path fill="#FFFFFF" d="M33.659,24.531c-0.663,0.682-1.708,0.596-2.99,0.652s-2.718,0.541-3.855,1.439
			c-0.874,0.691-1.313,1.432-1.615,2.012c-0.054,0.105-0.007,0.115,0.063,0.119s0.109,0.018,0.193,0.01
			c0.083-0.01,0.089-0.072,0.131-0.164c0.456-1.002,0.948-1.742,1.822-2.191c0.348-0.178,1.011-0.355,1.605-0.283
			c1.332,0.156,3.345,0.074,4.67-1.559C33.756,24.479,33.686,24.504,33.659,24.531z"/>
		<path fill="#FFFFFF" d="M34.461,22.033c0.03-0.096-0.008-0.082-0.069-0.002c-0.393,0.514-0.682,0.822-1.281,1.148
			c-0.599,0.328-1.222,0.705-1.486,0.91s-0.595,0.404-0.818,0.521c-0.058,0.029-0.084-0.014-0.011-0.055
			c1.132-0.643,1.088-1.615,1.126-2.295c0.038-0.677,0.021-1.053,0.028-1.211c0.007-0.158-0.024-0.115-0.074,0.006
			c-0.383,0.93-0.584,1.008-0.878,2.031c-0.243,0.844-0.195,1.35-0.717,1.764c-0.075,0.059-0.058,0.088,0.045,0.066
			c0.455-0.098,0.64-0.07,1.096-0.105C32.438,24.73,33.789,24.098,34.461,22.033z"/>
		<path fill="#FFFFFF" d="M34.928,18.951c0.003-0.097-0.017-0.089-0.044-0.01c-0.343,1.006-0.689,1.44-0.931,1.806
			c-0.289,0.44-0.933,1.253-1.261,2.054c-0.033,0.08-0.101,0.057-0.067-0.021c0.419-1.008,0.254-2.11,0.131-2.669
			c-0.124-0.559-0.188-1.106-0.194-1.235c-0.006-0.128-0.024-0.098-0.044-0.003c-0.25,1.24-0.489,2.311-0.317,3.228
			c0.128,0.676,0.179,0.973,0.153,1.137c-0.027,0.164,0.061,0.086,0.148,0.006c0.114-0.105,0.564-0.404,0.884-0.607
			C34.222,22.098,34.854,20.984,34.928,18.951z"/>
		<path fill="#FFFFFF" d="M34.663,16.255c-0.001-0.061,0.017-0.075,0.034-0.002c0.399,1.696-0.011,2.512-0.621,3.398
			c-0.19,0.277-0.547,0.771-0.58,0.885c-0.032,0.115-0.059,0.177-0.091,0.012c-0.14-0.719-0.518-1.129-0.781-2.052
			c-0.249-0.875-0.271-1.219-0.242-1.956c0.001-0.026,0.017-0.04,0.03,0.006c0.094,0.336,0.31,0.702,0.469,1.016
			c0.231,0.456,0.566,1.049,0.579,1.702c0.007,0.315,0.019,0.515,0.019,0.59c0,0.075,0.062,0.124,0.08-0.002
			c0.146-1.02,0.486-1.72,0.7-2.195C34.509,17.101,34.669,16.687,34.663,16.255z"/>
		<path fill="#FFFFFF" d="M33.834,17.875c-0.008,0.085-0.058,0.093-0.093,0.006c-0.142-0.348-0.433-0.674-0.786-1.018
			c-0.4-0.39-0.875-1.029-1.152-2.242c-0.011-0.048,0.035-0.093,0.075-0.024c0.349,0.609,0.737,0.837,1.109,1.32
			c0.352,0.458,0.581,1.01,0.656,1.195c0.029,0.071,0.094,0.052,0.077-0.03c-0.198-0.961-0.06-2.066,0.11-2.874
			c0.065-0.308,0.011-0.678-0.016-0.779s0.024-0.098,0.058-0.016c0.476,1.177,0.686,2.459,0.22,3.609
			C33.976,17.306,33.868,17.522,33.834,17.875z"/>
		<path fill="#FFFFFF" d="M32.129,13.369c0.042,0.076,0.015,0.111-0.08,0.025c-0.271-0.242-0.496-0.318-0.831-0.409
			c-0.638-0.172-1.606-0.794-2.146-1.43c-0.054-0.063,0.015-0.108,0.09-0.055c0.482,0.347,1.139,0.366,1.696,0.696
			c0.169,0.102,0.439,0.285,0.491,0.33c0.054,0.044,0.119,0.016,0.057-0.067c-0.451-0.62-0.72-1.225-0.85-1.476
			c-0.128-0.25-0.34-0.596-0.503-0.72c-0.064-0.048-0.038-0.098,0.059-0.041c0.95,0.552,1.504,1.127,1.735,2.109
			C31.996,12.963,32.023,13.175,32.129,13.369z"/>
		<path fill="#FFFFFF" d="M31.043,12.138c0.038,0.089,0.03,0.113-0.032,0.075c-0.676-0.411-0.892-0.352-1.769-0.992
			c-0.338-0.247-0.655-0.716-0.986-0.889c-0.072-0.038-0.053-0.099,0.053-0.077C29.232,10.446,30.517,10.934,31.043,12.138z"/>
		<path fill="#FFFFFF" d="M30.455,12.914c0.354,0.364,1.028,1.143,1.26,1.387c0.592,0.626,1.398,1.031,1.528,1.238
			c0.131,0.206,0.146,0.179,0.108-0.052c-0.116-0.727,0.246-0.65-0.128-2.154c-0.143-0.579-0.809-1.651-1.44-2.11
			c-0.065-0.048-0.119-0.003-0.043,0.083c0.224,0.253,0.444,0.786,0.53,1.423c0.084,0.637,0.459,1.532,0.528,1.667
			c0.068,0.135,0.009,0.135-0.068,0.035c-0.445-0.588-1.173-1.103-1.631-1.292c-0.313-0.128-0.495-0.246-0.573-0.287
			C30.448,12.812,30.378,12.834,30.455,12.914z"/>
	</g>
</g>
</svg>
